{
.appVersion = "3108";
.formatVersion = 3;
axes = (
{
name = Weight;
tag = wght;
}
);
customParameters = (
{
name = "Axis Mappings";
value = {
wght = {
400 = 400;
500 = 550;
600 = 640;
700 = 700;
};
};
},
{
name = fsType;
value = (
);
},
{
name = "Use Line Breaks";
value = 1;
},
{
name = "Use Typo Metrics";
value = 1;
},
{
name = "Variable Font Origin";
value = "3DBDB2C8-AF6E-4CF3-B71C-7D596AD599C8";
}
);
date = "2018-08-15 16:17:21 +0000";
familyName = Finlandica;
featurePrefixes = (
{
automatic = 1;
code = "languagesystem DFLT dflt;

languagesystem latn dflt;
languagesystem latn AZE;
languagesystem latn CRT;
languagesystem latn KAZ;
languagesystem latn TAT;
languagesystem latn TRK;
languagesystem latn ROM;
languagesystem latn MOL;
languagesystem latn CAT;
";
name = Languagesystems;
}
);
features = (
{
automatic = 1;
code = "feature sups;
feature ordn;
feature ss01;
feature locl;
feature pnum;
feature tnum;
feature case;
";
tag = aalt;
},
{
automatic = 1;
code = "lookup ccmp_Other_1 {
	@CombiningTopAccents = [acutecomb brevecomb caroncomb circumflexcomb commaturnedabovecomb dieresiscomb dotaccentcomb gravecomb hungarumlautcomb macroncomb ringcomb tildecomb];
	@CombiningNonTopAccents = [cedillacomb ogonekcomb slashlongcomb slashshortcomb strokelongcomb strokeshortcomb];
	sub [i j]' @CombiningTopAccents by [idotless jdotless];
	sub [i j]' @CombiningNonTopAccents @CombiningTopAccents by [idotless jdotless];
} ccmp_Other_1;

lookup ccmp_latn_1 {
	sub fi by f i;
	sub fl by f l;
} ccmp_latn_1;

script latn;
lookup ccmp_latn_1;
";
tag = ccmp;
},
{
automatic = 1;
code = "lookup locl_latn_0 {
	script latn;
	language AZE;
	sub i by idotaccent;
	language CRT;
	sub i by idotaccent;
	language KAZ;
	sub i by idotaccent;
	language TAT;
	sub i by idotaccent;
	language TRK;
	sub i by idotaccent;
} locl_latn_0;

lookup locl_latn_1 {
	script latn;
	language ROM;
	sub Scedilla by Scommaaccent;
	sub scedilla by scommaaccent;
	language MOL;
	sub Scedilla by Scommaaccent;

glyphs = (
{
color = 6;
glyphname = A;
kernLeft = A;
kernRight = A;
lastChange = "2022-04-28 13:53:09 +0000";
layers = (
{
anchors = (
{
name = bottom;
pos = (395,0);
},
{
name = ogonek;
pos = (554,0);
},
{
name = top;
pos = (373,700);
}
);
layerId = "6B2E1CAF-7E84-411F-9290-838331FE9C95";
metricRight = "=V";
shapes = (
{
closed = 1;
nodes = (
(144,0,l),
(340,556,ls),
(344,568,o),
(358,565,o),
(358,553,cs),
(358,397,l),
(396,0,l),
(554,0,l),
(472,700,l),
(252,700,l),
(-16,0,l)
);
},
{
closed = 1;
nodes = (
(399,162,l),
(388,292,l),
(231,292,l),
(183,162,l)
);
},
{
closed = 1;
nodes = (
(230,570,l),
(268,700,l),
(148,700,l),
(129,570,l)
);
}
);
width = 610;
},
{
anchors = (
{
name = bottom;
pos = (259,0);
},
{
name = ogonek;
pos = (511,0);
},
{
name = top;
pos = (342,670);
}
);
layerId = "3DBDB2C8-AF6E-4CF3-B71C-7D596AD599C8";
metricRight = "=V";
shapes = (
{
closed = 1;
nodes = (
(71,0,l),
(334,625,ls),
(337,633,o),
(347,631,o),
(347,623,cs),
(349,534,l),
(427,0,l),
(511,0,l),
(401,700,l),
(281,700,l),
(-15,0,l)
);
},
{
closed = 1;
nodes = (
(429,187,l),
(418,261,l),
(152,261,l),
(119,187,l)
);
},
{
closed = 1;
nodes = (
(301,627,l),
(308,700,l),
(167,700,l),
(157,627,l)
);
}
);
width = 566;
}
);
metricRight = V;
unicode = 65;
userData = {
com.schriftgestaltung.Glyphs.ColorIndex = 3;
com.schriftgestaltung.Glyphs.layer.rightMetricsKey = "==V";
com.schriftgestaltung.Glyphs.rightMetricsKey = V;
};
},
{
color = 6;
glyphname = AE;
kernLeft = A;
kernRight = E;
lastChange = "2022-04-28 13:53:09 +0000";
layers = (
{
anchors = (
{
name = bottom;
pos = (390,0);
},
{
name = top;
pos = (489,700);
}
);
layerId = "6B2E1CAF-7E84-411F-9290-838331FE9C95";
shapes = (
{
closed = 1;
nodes = (
(145,0,l),
(202,162,l),
(368,162,l),
(345,0,l),
(775,0,l),
(795,140,l),
(510,140,l),
(530,285,l),
(798,285,l),
(816,415,l),
(548,415,l),
(570,565,l),
(855,565,l),
(874,700,l),
(149,700,l),
(130,565,l),
(201,565,l),
(-16,0,l)
);
},
{
closed = 1;
nodes = (
(344,565,l),
(425,565,l),
(386,292,l),
(248,292,l)
);
}
);
width = 861;
},
{
anchors = (
{
name = bottom;
pos = (381,0);
},
{
name = top;
pos = (479,700);
}
);
layerId = "3DBDB2C8-AF6E-4CF3-B71C-7D596AD599C8";
shapes = (
{
closed = 1;
nodes = (
(71,0,l),
(149,187,l),
(368,187,l),
(342,0,l),
(745,0,l),
(756,78,l),
(431,78,l),
(464,311,l),
(772,311,l),
(783,389,l),
(475,389,l),
(507,622,l),
(832,622,l),
(843,700,l),
(167,700,l),
(156,622,l),
(248,622,l),
(-15,0,l)
);
},
{
closed = 1;
nodes = (
(330,622,l),
(429,622,l),
(379,261,l),
(180,261,l)
);
}
);
width = 840;
}
);
metricLeft = A;
metricRight = E;
unicode = 198;
userData = {
com.schriftgestaltung.Glyphs.leftMetricsKey = A;
com.schriftgestaltung.Glyphs.rightMetricsKey = E;
};
},
{
color = 6;
glyphname = B;
kernLeft = H;
kernRight = B;
lastChange = "2022-04-28 13:53:09 +0000";
layers = (
{
anchors = (
{
name = bottom;
pos = (247,0);
},
{
name = top;
pos = (345,700);
}
);
background = {
shapes = (
{
closed = 1;
nodes = (
(325,0,ls),
(467,0,o),
(548,72,o),
(548,198,cs),
(548,281,o),
(509,341,o),
(441,362,c),
(497,389,o),
(529,442,o),
(529,509,cs),
(529,631,o),
(447,700,o),
(305,700,cs),
(66,700,l),
(66,0,l)
);
},
{
closed = 1;
nodes = (
(211,285,l),
(325,285,ls),
(375,285,o),
(403,252,o),
(403,205,cs),
(403,156,o),
(375,130,o),
(325,130,cs),
(211,130,l)
);
},
{
closed = 1;
nodes = (
(211,570,l),
(305,570,ls),
(356,570,o),
(385,543,o),
(385,495,cs),
(385,448,o),
(356,415,o),
(305,415,cs),
(211,415,l)
);
}
);
};
layerId = "6B2E1CAF-7E84-411F-9290-838331FE9C95";
metricLeft = "=H";
shapes = (
{
closed = 1;
nodes = (
(297,0,ls),
(451,0,o),
(551,55,o),
(551,201,cs),
(551,261,o),
(522,328,o),
(453,360,c),
(534,391,o),
(574,457,o),
(574,530,cs),
(574,636,o),
(494,700,o),
(379,700,cs),
(133,700,l),
(35,0,l)
);
},
{
closed = 1;
nodes = (
(220,285,l),
(337,285,ls),
(379,285,o),
(404,258,o),
(404,218,cs),
(404,161,o),
(372,130,o),
(308,130,cs),
(198,130,l)
);
},
{
closed = 1;
nodes = (
(260,570,l),
(362,570,ls),
(403,570,o),
(429,544,o),
(429,505,cs),
(429,458,o),
(396,415,o),
(333,415,cs),
(238,415,l)
);
}
);
width = 592;
},
{
anchors = (
{
name = bottom;
pos = (247,0);
},
{
name = top;
pos = (341,670);
}
);
background = {
shapes = (
{
closed = 1;
nodes = (
(337,629,l),
(421,638,o),
(469,590,o),
(469,510,cs),
(469,425,o),
(421,378,o),
(337,387,c),
(437,349,l),
(504,373,o),
(547,430,o),
(547,510,cs),
(547,638,o),
(468,709,o),
(336,699,c)
);
},
{
closed = 1;
nodes = (
(291,1,l),
(433,-7,o),
(517,63,o),
(517,190,cs),
(517,281,o),
(461,349,o),
(376,364,c),
(292,315,l),
(385,323,o),
(439,275,o),
(439,190,cs),
(439,109,o),
(385,63,o),
(292,71,c)
);
}
);
};
layerId = "3DBDB2C8-AF6E-4CF3-B71C-7D596AD599C8";
metricLeft = "=H";
shapes = (
{
closed = 1;
nodes = (
(290,0,ls),
(426,0,o),
(504,76,o),
(504,205,cs),
(504,273,o),
(462,328,o),
(418,346,c),
(489,374,o),
(533,436,o),
(533,527,cs),
(533,633,o),
(465,700,o),
(346,700,cs),
(153,700,l),
(55,0,l)
);
},
{
closed = 1;
nodes = (
(177,316,l),
(305,316,ls),
(377,316,o),
(425,282,o),
(425,204,cs),
(425,116,o),
(378,70,o),
(281,70,cs),
(143,70,l)
);
},
{
closed = 1;
nodes = (
(221,630,l),
(348,630,ls),
(419,630,o),
(455,586,o),
(455,520,cs),
(455,445,o),
(417,386,o),
(343,386,cs),
(187,386,l)
);
}
);
width = 563;
}
);
metricLeft = H;
unicode = 66;
userData = {
com.schriftgestaltung.Glyphs.ColorIndex = 3;
com.schriftgestaltung.Glyphs.layer.leftMetricsKey = "==H";
com.schriftgestaltung.Glyphs.leftMetricsKey = H;
};
},
{
color = 6;
glyphname = C;
kernLeft = O;
kernRight = C;
lastChange = "2022-04-28 13:53:09 +0000";
layers = (
{
anchors = (
{
name = bottom;
pos = (266,0);
},
{
name = top;
pos = (345,700);
}
);
layerId = "6B2E1CAF-7E84-411F-9290-838331FE9C95";
metricLeft = "=O";
shapes = (
{
closed = 1;
nodes = (
(362,-12,o),
(407,6,o),
(454,40,c),
(407,165,l),
(375,143,o),
(346,129,o),
(294,129,cs),
(238,129,o),
(206,164,o),
(206,223,cs),
(206,277,o),
(234,452,o),
(246,491,cs),
(264,546,o),
(310,572,o),
(360,572,cs),
(413,572,o),
(446,562,o),
(482,537,c),
(525,656,l),
(486,690,o),
(431,712,o),
(361,712,cs),
(215,712,o),
(129,634,o),
(96,524,cs),
(67,427,o),
(49,319,o),
(49,215,cs),
(49,108,o),
(130,-12,o),
(286,-12,cs)
);
}
);
width = 504;
},
{
anchors = (
{
name = bottom;
pos = (302,0);
},
{
name = top;
pos = (342,670);
}
);
layerId = "3DBDB2C8-AF6E-4CF3-B71C-7D596AD599C8";
metricLeft = "=O";
shapes = (
{
closed = 1;
nodes = (
(346,-12,o),
(400,7,o),
(439,39,c),
(419,117,l),
(387,89,o),
(337,64,o),
(286,64,cs),
(195,64,o),
(143,119,o),
(143,215,cs),
(143,304,o),
(162,429,o),
(190,513,cs),
(219,606,o),
(280,636,o),
(348,636,cs),
(411,636,o),
(456,612,o),
(483,575,c),
(517,644,l),
(481,685,o),
(428,712,o),
(356,712,cs),
(222,712,o),
(147,639,o),
(116,534,cs),
(84,439,o),
(64,308,o),
(64,214,cs),
(64,97,o),
(134,-12,o),
(278,-12,cs)
);
}
);
width = 503;
}
);
metricLeft = O;
unicode = 67;
userData = {
com.schriftgestaltung.Glyphs.ColorIndex = 3;
com.schriftgestaltung.Glyphs.layer.leftMetricsKey = "==O";
com.schriftgestaltung.Glyphs.leftMetricsKey = O;
};
},
{
color = 6;
glyphname = D;
kernLeft = H;
kernRight = O;
lastChange = "2022-04-28 13:53:09 +0000";
layers = (
{
anchors = (
{
name = bottom;
pos = (265,0);
},
{
name = center;
pos = (163,350);
},
{
name = top;
pos = (364,700);
}
);
background = {
shapes = (
{
pos = (-5,0);
ref = O;
}
);
};
layerId = "6B2E1CAF-7E84-411F-9290-838331FE9C95";
metricLeft = "=H";
metricRight = "=O";
shapes = (
{
closed = 1;
nodes = (
(243,0,ls),
(398,0,o),
(513,30,o),
(554,207,cs),
(572,285,o),
(589,386,o),
(589,469,cs),
(589,624,o),
(508,700,o),
(334,700,cs),
(133,700,l),
(34,0,l)
);
},
{
closed = 1;
nodes = (
(274,570,l),
(323,570,ls),
(408,570,o),
(437,539,o),
(437,466,cs),
(437,411,o),
(419,298,o),
(406,246,cs),
(379,136,o),
(334,130,o),
(254,130,cs),
(213,130,l)
);
}
);
width = 612;
},
{
anchors = (
{
name = bottom;
pos = (262,0);
},
{
name = center;
pos = (141,350);
},
{
name = top;
pos = (356,670);
}
);
background = {
shapes = (
{
pos = (-13,0);
ref = O;
}
);
};
layerId = "3DBDB2C8-AF6E-4CF3-B71C-7D596AD599C8";
metricLeft = "=H";
metricRight = "=O";
shapes = (
{
closed = 1;
nodes = (
(245,0,ls),
(406,0,o),
(498,86,o),
(525,225,cs),
(540,301,o),
(554,386,o),
(559,461,cs),
(568,592,o),
(506,700,o),
(339,700,cs),
(153,700,l),
(55,0,l)
);
},
{
closed = 1;
nodes = (
(223,627,l),
(333,627,ls),
(450,627,o),
(487,556,o),
(482,462,cs),
(479,400,o),
(465,299,o),
(452,244,cs),
(428,144,o),
(368,72,o),
(251,72,cs),
(145,72,l)
);
}
);
width = 593;
}
);
metricLeft = H;
metricRight = O;
unicode = 68;
userData = {
com.schriftgestaltung.Glyphs.ColorIndex = 3;
com.schriftgestaltung.Glyphs.layer.leftMetricsKey = "==H";
com.schriftgestaltung.Glyphs.layer.rightMetricsKey = "==O";
com.schriftgestaltung.Glyphs.leftMetricsKey = H;
com.schriftgestaltung.Glyphs.rightMetricsKey = O;
};
},
{
color = 3;
glyphname = Eth;
kernLeft = H;
kernRight = O;
lastChange = "2022-04-28 13:53:09 +0000";
layers = (
{
layerId = "6B2E1CAF-7E84-411F-9290-838331FE9C95";
shapes = (
{
closed = 1;
nodes = (
(332,293,l),
(348,407,l),
(8,407,l),
(-8,293,l)
);
},
{
pos = (20,0);
ref = D;
}
);
width = 632;
},
{
layerId = "3DBDB2C8-AF6E-4CF3-B71C-7D596AD599C8";
shapes = (
{
closed = 1;
nodes = (
(286,315,l),
(296,384,l),
(5,384,l),
(-5,315,l)
);
},
{
pos = (20,0);
ref = D;
}
);
width = 613;
}
);
metricRight = O;
unicode = 208;
userData = {
com.schriftgestaltung.Glyphs.rightMetricsKey = O;
};
},
{
color = 6;
glyphname = E;
kernLeft = H;
kernRight = E;
lastChange = "2022-04-28 13:53:09 +0000";
layers = (
{
anchors = (
{
name = bottom;
pos = (259,0);
},
{
name = ogonek;
pos = (464,0);
},
{
name = top;
pos = (358,700);
},
{
name = topleft;
pos = (83,700);
}
);
layerId = "6B2E1CAF-7E84-411F-9290-838331FE9C95";
metricLeft = "=H";
shapes = (
{
closed = 1;
nodes = (
(464,0,l),
(484,140,l),
(199,140,l),
(219,285,l),
(487,285,l),
(505,415,l),
(237,415,l),
(258,560,l),
(543,560,l),
(563,700,l),
(133,700,l),
(34,0,l)
);
}
);
width = 550;
},
{
anchors = (
{
name = bottom;
pos = (262,0);
},
{
name = ogonek;
pos = (458,0);
},
{
name = top;
pos = (356,670);
},
{
name = topleft;
pos = (83,700);
}
);
layerId = "3DBDB2C8-AF6E-4CF3-B71C-7D596AD599C8";
metricLeft = "=H";
shapes = (
{
closed = 1;
nodes = (
(458,0,l),
(469,78,l),
(144,78,l),
(177,311,l),
(485,311,l),
(496,389,l),
(188,389,l),
(220,622,l),
(545,622,l),
(556,700,l),
(153,700,l),
(55,0,l)
);
}
);
width = 553;
}
);
metricLeft = H;
unicode = 69;
userData = {
com.schriftgestaltung.Glyphs.ColorIndex = 3;
com.schriftgestaltung.Glyphs.layer.leftMetricsKey = "==H";
com.schriftgestaltung.Glyphs.leftMetricsKey = H;
};
},
{
color = 6;
glyphname = F;
kernLeft = H;
kernRight = F;
lastChange = "2022-04-28 13:53:09 +0000";
layers = (
{
anchors = (
{
name = bottom;
pos = (229,0);
},
{
name = top;
pos = (328,700);
}
);
layerId = "6B2E1CAF-7E84-411F-9290-838331FE9C95";
metricLeft = "=H";
shapes = (
{
closed = 1;
nodes = (
(194,0,l),
(234,280,l),
(487,280,l),
(506,420,l),
(253,420,l),
(273,560,l),
(543,560,l),
(563,700,l),
(133,700,l),
(34,0,l)
);
}
);
width = 530;
},
{
anchors = (
{
name = bottom;
pos = (226,0);
},
{
name = top;
pos = (320,670);
}
);
layerId = "3DBDB2C8-AF6E-4CF3-B71C-7D596AD599C8";
metricLeft = "=H";
shapes = (
{
closed = 1;
nodes = (
(138,0,l),
(182,311,l),
(465,311,l),
(476,389,l),
(193,389,l),
(225,622,l),
(534,622,l),
(545,700,l),
(153,700,l),
(55,0,l)
);
}
);
width = 522;
}
);
metricLeft = H;
unicode = 70;
userData = {
com.schriftgestaltung.Glyphs.ColorIndex = 3;
com.schriftgestaltung.Glyphs.layer.leftMetricsKey = "==H";
com.schriftgestaltung.Glyphs.leftMetricsKey = H;
};
},
{
color = 6;
glyphname = G;
kernLeft = O;
kernRight = G;
lastChange = "2022-04-28 13:53:09 +0000";
layers = (
{
anchors = (
{
name = bottom;
pos = (263,0);
},
{
name = top;
pos = (382,700);
}
);
layerId = "6B2E1CAF-7E84-411F-9290-838331FE9C95";
metricLeft = "=O";
shapes = (
{
closed = 1;
nodes = (
(384,-11,o),
(451,11,o),
(496,41,c),
(527,280,l),
(589,280,l),
(608,420,l),
(348,420,l),
(329,280,l),
(397,280,l),
(373,139,l),
(346,133,o),
(318,129,o),
(286,129,cs),
(233,129,o),
(200,165,o),
(200,212,cs),
(200,277,o),
(215,380,o),
(234,452,cs),
(258,544,o),
(301,572,o),
(385,572,cs),
(436,572,o),
(485,555,o),
(521,529,c),
(583,648,l),
(533,688,o),
(468,712,o),
(390,712,cs),
(245,712,o),
(131,666,o),
(86,495,cs),
(63,407,o),
(48,281,o),
(48,212,cs),
(48,82,o),
(139,-14,o),
(291,-12,cs)
);
}
);
width = 598;
},
{
anchors = (
{
name = bottom;
pos = (300,0);
},
{
name = top;
pos = (381,670);
}
);
layerId = "3DBDB2C8-AF6E-4CF3-B71C-7D596AD599C8";
metricLeft = "=O";
shapes = (
{
closed = 1;
nodes = (
(358,-12,o),
(411,6,o),
(466,41,c),
(502,311,l),
(576,311,l),
(587,389,l),
(349,389,l),
(338,311,l),
(419,311,l),
(386,85,l),
(366,73,o),
(322,66,o),
(283,66,cs),
(189,66,o),
(142,117,o),
(139,194,cs),
(136,267,o),
(159,385,o),
(176,471,cs),
(203,608,o),
(281,634,o),
(375,634,cs),
(436,634,o),
(474,619,o),
(514,581,c),
(547,649,l),
(508,688,o),
(449,712,o),
(377,712,cs),
(244,712,o),
(145,672,o),
(103,500,cs),
(82,413,o),
(59,274,o),
(59,194,cs),
(59,75,o),
(143,-12,o),
(280,-12,cs)
);
}
);
width = 600;
}
);
metricLeft = O;
unicode = 71;
userData = {
com.schriftgestaltung.Glyphs.ColorIndex = 3;
com.schriftgestaltung.Glyphs.layer.leftMetricsKey = "==O";
com.schriftgestaltung.Glyphs.leftMetricsKey = O;
};
},
{
color = 6;
glyphname = Gstroke;
lastChange = "2022-04-28 13:53:09 +0000";
layers = (
{
anchors = (
{
name = bottom;
pos = (294,0);
},
{
name = top;
pos = (294,700);
}
);
layerId = "6B2E1CAF-7E84-411F-9290-838331FE9C95";
shapes = (
{
closed = 1;
nodes = (
(384,-11,o),
(451,11,o),
(496,41,c),
(550,420,l),
(421,420,l),
(373,139,l),
(346,133,o),
(318,129,o),
(286,129,cs),
(233,129,o),
(200,165,o),
(200,212,cs),
(200,277,o),
(215,380,o),
(234,452,cs),
(258,544,o),
(301,572,o),
(385,572,cs),
(436,572,o),
(485,555,o),
(521,529,c),
(583,648,l),
(533,688,o),
(468,712,o),
(390,712,cs),
(245,712,o),
(131,666,o),
(86,495,cs),
(63,407,o),
(48,281,o),
(48,212,cs),
(48,82,o),
(139,-14,o),
(291,-12,cs)
);
},
{
closed = 1;
nodes = (
(579,203,l),
(598,343,l),
(338,343,l),
(319,203,l)
);
}
);
width = 598;
},
{
anchors = (
{
name = bottom;
pos = (300,0);
},
{
name = top;
pos = (358,670);
}
);
layerId = "3DBDB2C8-AF6E-4CF3-B71C-7D596AD599C8";
shapes = (
{
closed = 1;
nodes = (
(358,-12,o),
(411,6,o),
(466,41,c),
(513,389,l),
(430,389,l),
(386,85,l),
(366,73,o),
(322,66,o),
(283,66,cs),
(189,66,o),
(142,117,o),
(139,194,cs),
(136,267,o),
(159,385,o),
(176,471,cs),
(203,608,o),
(281,634,o),
(375,634,cs),
(436,634,o),
(474,619,o),
(514,581,c),
(547,649,l),
(508,688,o),
(449,712,o),
(377,712,cs),
(244,712,o),
(145,672,o),
(103,500,cs),
(82,413,o),
(59,274,o),
(59,194,cs),
(59,75,o),
(143,-12,o),
(280,-12,cs)
);
},
{
closed = 1;
nodes = (
(559,196,l),
(570,274,l),
(332,274,l),
(321,196,l)
);
}
);
width = 600;
}
);
unicode = 484;
},
{
color = 6;
glyphname = H;
kernLeft = H;
kernRight = H;
lastChange = "2022-04-28 13:53:09 +0000";
layers = (
{
anchors = (
{
name = bottom;
pos = (284,0);
},
{
name = center;
pos = (361,550);
},
{
name = top;
pos = (383,700);
},
{
name = topleft;
pos = (83,700);
}
);
layerId = "6B2E1CAF-7E84-411F-9290-838331FE9C95";
shapes = (
{
closed = 1;
nodes = (
(194,0,l),
(234,280,l),
(414,280,l),
(374,0,l),
(534,0,l),
(633,700,l),
(473,700,l),
(433,420,l),
(253,420,l),
(293,700,l),
(133,700,l),
(34,0,l)
);
}
);
width = 640;
},
{
anchors = (
{
name = bottom;
pos = (240,0);
},
{
name = center;
pos = (350,530);
},
{
name = top;
pos = (428,670);
},
{
name = topleft;
pos = (146,700);
}
);
layerId = "3DBDB2C8-AF6E-4CF3-B71C-7D596AD599C8";
shapes = (
{
closed = 1;
nodes = (
(138,0,l),
(182,311,l),
(456,311,l),
(412,0,l),
(495,0,l),
(593,700,l),
(510,700,l),
(467,389,l),
(193,389,l),
(236,700,l),
(153,700,l),
(55,0,l)
);
}
);
width = 620;
}
);
unicode = 72;
userData = {
com.schriftgestaltung.Glyphs.ColorIndex = 3;
};
},
{
color = 3;
glyphname = Hbar;
lastChange = "2022-04-28 13:53:09 +0000";
layers = (
{
anchors = (
{
name = _center;
pos = (350,530);
}
);
layerId = "3DBDB2C8-AF6E-4CF3-B71C-7D596AD599C8";
shapes = (
{
ref = H;
},
{
closed = 1;
nodes = (
(670,495,l),
(680,564,l),
(29,564,l),
(19,495,l)
);
}
);
width = 620;
},
{
anchors = (
{
name = _center;
pos = (361,550);
}
);
layerId = "6B2E1CAF-7E84-411F-9290-838331FE9C95";
shapes = (
{
ref = H;
},
{
closed = 1;
nodes = (
(708,493,l),
(724,607,l),
(13,607,l),
(-3,493,l)
);
}
);
width = 640;
}
);
unicode = 294;
},
{
color = 6;
glyphname = I;
kernLeft = I;
kernRight = I;
lastChange = "2022-04-28 13:53:09 +0000";
layers = (
{
anchors = (
{
name = bottom;
pos = (186,0);
},
{
name = ogonek;
pos = (357,0);
},
{
name = top;
pos = (285,700);
},
{
name = topleft;
pos = (83,700);
}
);
layerId = "6B2E1CAF-7E84-411F-9290-838331FE9C95";
shapes = (
{
closed = 1;
nodes = (
(357,0,l),
(375,130,l),
(283,130,l),
(345,570,l),
(437,570,l),
(456,700,l),
(113,700,l),
(94,570,l),
(186,570,l),
(124,130,l),
(32,130,l),
(14,0,l)
);
}
);
width = 443;
},
{
anchors = (
{
name = bottom;
pos = (177,0);
},
{
name = ogonek;
pos = (338,0);
},
{
name = top;
pos = (271,670);
},
{
name = topleft;
pos = (83,700);
}
);
layerId = "3DBDB2C8-AF6E-4CF3-B71C-7D596AD599C8";
shapes = (
{
closed = 1;
nodes = (
(338,0,l),
(349,76,l),
(229,76,l),
(306,624,l),
(426,624,l),
(436,700,l),
(113,700,l),
(103,624,l),
(223,624,l),
(146,76,l),
(26,76,l),
(15,0,l)
);
}
);
width = 423;
}
);
unicode = 73;
userData = {
com.schriftgestaltung.Glyphs.ColorIndex = 3;
};
},
{
color = 3;
glyphname = IJ;
kernLeft = I;
kernRight = J;
lastChange = "2022-04-28 13:53:09 +0000";
layers = (
{
layerId = "6B2E1CAF-7E84-411F-9290-838331FE9C95";
shapes = (
{
closed = 1;
nodes = (
(677,-12,o),
(780,67,o),
(801,216,cs),
(870,700,l),
(570,700,l),
(551,570,l),
(691,570,l),
(643,224,ls),
(634,160,o),
(588,129,o),
(525,129,cs),
(497,129,o),
(481,133,o),
(463,144,c),
(443,0,l),
(468,-8,o),
(491,-12,o),
(530,-12,cs)
);
},
{
ref = I;
}
);
width = 867;
},
{
layerId = "3DBDB2C8-AF6E-4CF3-B71C-7D596AD599C8";
shapes = (
{
closed = 1;
nodes = (
(629,-12,o),
(708,48,o),
(726,172,cs),
(800,700,l),
(558,700,l),
(547,622,l),
(707,622,l),
(646,186,ls),
(634,100,o),
(586,66,o),
(519,66,cs),
(487,66,o),
(454,72,o),
(426,89,c),
(416,8,l),
(437,-4,o),
(477,-12,o),
(518,-12,cs)
);
},
{
ref = I;
}
);
width = 827;
}
);
metricLeft = I;
metricRight = J;
unicode = 306;
},
{
color = 6;
glyphname = J;
kernLeft = J;
kernRight = J;
lastChange = "2022-04-28 13:53:09 +0000";
layers = (
{
anchors = (
{
name = bottom;
pos = (178,0);
},
{
name = top;
pos = (340,700);
}
);
background = {
shapes = (
{
closed = 1;
nodes = (
(455,700,l),
(313,700,l),
(313,190,l),
(313,157,o),
(305,116,o),
(254,116,cs),
(209,116,o),
(185,123,o),
(153,139,c),
(127,19,l),
(162,-1,o),
(210,-12,o),
(254,-12,cs),
(425,-12,o),
(455,97,o),
(455,190,c)
);
}
);
};
layerId = "6B2E1CAF-7E84-411F-9290-838331FE9C95";
metricRight = "=H-10";
shapes = (
{
closed = 1;
nodes = (
(289,-12,o),
(393,67,o),
(413,216,cs),
(482,700,l),
(182,700,l),
(163,570,l),
(303,570,l),
(255,224,ls),
(246,160,o),
(205,129,o),
(147,129,cs),
(99,129,o),
(71,140,o),
(39,163,c),
(-20,42,l),
(27,8,o),
(70,-12,o),
(142,-12,cs)
);
}
);
width = 479;
},
{
anchors = (
{
name = bottom;
pos = (179,0);
},
{
name = top;
pos = (273,670);
}
);
background = {
shapes = (
{
closed = 1;
nodes = (
(256,-12,o),
(329,50,o),
(329,154,cs),
(329,700,l),
(87,700,l),
(87,622,l),
(247,622,l),
(247,154,ls),
(247,98,o),
(206,66,o),
(142,66,cs),
(101,66,o),
(36,81,o),
(7,121,c),
(-18,50,l),
(24,8,o),
(93,-12,o),
(142,-12,cs)
);
}
);
};
layerId = "3DBDB2C8-AF6E-4CF3-B71C-7D596AD599C8";
metricRight = "=H";
shapes = (
{
closed = 1;
nodes = (
(249,-12,o),
(328,48,o),
(346,172,cs),
(420,700,l),
(178,700,l),
(167,622,l),
(327,622,l),
(266,186,ls),
(254,100,o),
(206,66,o),
(139,66,cs),
(98,66,o),
(41,79,o),
(7,121,c),
(-18,52,l),
(19,10,o),
(86,-12,o),
(138,-12,cs)
);
}
);
width = 447;
}
);
metricRight = H;
unicode = 74;
userData = {
com.schriftgestaltung.Glyphs.ColorIndex = 3;
com.schriftgestaltung.Glyphs.layer.rightMetricsKey = "==H";
com.schriftgestaltung.Glyphs.rightMetricsKey = H;
com.typemytype.robofont.layerData = {
background = {
anchors = (
);
components = (
);
contours = (
{
points = (
{
segmentType = line;
smooth = 0;
x = 455;
y = 700;
},
{
segmentType = line;
smooth = 0;
x = 313;
y = 700;
},
{
segmentType = line;
smooth = 0;
x = 313;
y = 190;
},
{
smooth = 0;
x = 313;
y = 157;
},
{
smooth = 0;
x = 305;
y = 116;
},
{
segmentType = curve;
smooth = 1;
x = 254;
y = 116;
},
{
smooth = 0;
x = 209;
y = 116;
},
{
smooth = 0;
x = 185;
y = 123;
},
{
segmentType = curve;
smooth = 0;
x = 153;
y = 139;
},
{
segmentType = line;
smooth = 0;
x = 127;
y = 19;
},
{
smooth = 0;
x = 162;
y = -1;
},
{
smooth = 0;
x = 210;
y = -12;
},
{
segmentType = curve;
smooth = 1;
x = 254;
y = -12;
},
{
smooth = 0;
x = 425;
y = -12;
},
{
smooth = 0;
x = 455;
y = 97;
},
{
segmentType = curve;
smooth = 0;
x = 455;
y = 190;
}
);
}
);
lib = {
};
name = J;
unicodes = (
);
width = 447;
};
};
};
},
{
color = 6;
glyphname = K;
kernLeft = H;
kernRight = K;
lastChange = "2022-04-28 13:53:09 +0000";
layers = (
{
anchors = (
{
name = bottom;
pos = (260,0);
},
{
name = top;
pos = (359,700);
}
);
layerId = "6B2E1CAF-7E84-411F-9290-838331FE9C95";
metricLeft = "=H";
shapes = (
{
closed = 1;
nodes = (
(190,0,l),
(230,285,l),
(289,285,l),
(360,0,l),
(524,0,l),
(430,358,l),
(630,700,l),
(459,700,l),
(298,415,l),
(249,415,l),
(289,700,l),
(133,700,l),
(34,0,l)
);
}
);
width = 586;
},
{
anchors = (
{
name = bottom;
pos = (234,0);
},
{
name = top;
pos = (328,670);
}
);
layerId = "3DBDB2C8-AF6E-4CF3-B71C-7D596AD599C8";
metricLeft = "=H";
shapes = (
{
closed = 1;
nodes = (
(137,0,l),
(181,313,l),
(263,313,l),
(384,0,l),
(472,0,l),
(333,355,l),
(570,700,l),
(477,700,l),
(263,388,l),
(191,388,l),
(235,700,l),
(153,700,l),
(55,0,l)
);
}
);
width = 538;
}
);
metricLeft = H;
unicode = 75;
userData = {
com.schriftgestaltung.Glyphs.ColorIndex = 3;
com.schriftgestaltung.Glyphs.layer.leftMetricsKey = "==H";
com.schriftgestaltung.Glyphs.leftMetricsKey = H;
};
},
{
color = 6;
glyphname = L;
kernLeft = H;
kernRight = L;
lastChange = "2022-04-28 13:53:09 +0000";
layers = (
{
anchors = (
{
name = bottom;
pos = (186,0);
},
{
name = center;
pos = (166,373);
},
{
name = top;
pos = (285,700);
},
{
name = topright;
pos = (327,700);
}
);
layerId = "6B2E1CAF-7E84-411F-9290-838331FE9C95";
metricLeft = "=H";
shapes = (
{
closed = 1;
nodes = (
(388,0,l),
(408,140,l),
(214,140,l),
(293,700,l),
(133,700,l),
(34,0,l)
);
}
);
width = 444;
},
{
anchors = (
{
name = bottom;
pos = (216,0);
},
{
name = center;
pos = (153,369);
},
{
name = top;
pos = (285,670);
},
{
name = topright;
pos = (305,700);
}
);
layerId = "3DBDB2C8-AF6E-4CF3-B71C-7D596AD599C8";
metricLeft = "=H";
shapes = (
{
closed = 1;
nodes = (
(387,0,l),
(398,78,l),
(149,78,l),
(236,700,l),
(153,700,l),
(55,0,l)
);
}
);
width = 452;
}
);
metricLeft = H;
unicode = 76;
userData = {
com.schriftgestaltung.Glyphs.ColorIndex = 3;
com.schriftgestaltung.Glyphs.layer.leftMetricsKey = "==H";
com.schriftgestaltung.Glyphs.leftMetricsKey = H;
};
},
{
color = 6;
glyphname = M;
kernLeft = H;
kernRight = H;
lastChange = "2022-04-28 13:53:09 +0000";
layers = (
{
anchors = (
{
name = bottom;
pos = (304,0);
},
{
name = top;
pos = (403,700);
}
);
guides = (
{
angle = 90;
pos = (629,540);
}
);
layerId = "6B2E1CAF-7E84-411F-9290-838331FE9C95";
metricLeft = "=H";
metricRight = "=H";
shapes = (
{
closed = 1;
nodes = (
(184,0,l),
(224,270,l),
(225,381,ls),
(225,393,o),
(238,396,o),
(243,384,cs),
(308,229,l),
(358,229,l),
(477,384,ls),
(485,395,o),
(498,391,o),
(494,378,cs),
(461,263,l),
(424,0,l),
(574,0,l),
(673,700,l),
(541,700,l),
(375,457,ls),
(368,446,o),
(358,445,o),
(354,456,cs),
(261,700,l),
(133,700,l),
(34,0,l)
);
}
);
width = 680;
},
{
anchors = (
{
name = bottom;
pos = (302,0);
},
{
name = top;
pos = (390,670);
}
);
layerId = "3DBDB2C8-AF6E-4CF3-B71C-7D596AD599C8";
metricLeft = "=H";
metricRight = "=H";
shapes = (
{
closed = 1;
nodes = (
(135,0,l),
(194,431,l),
(197,517,ls),
(198,532,o),
(208,535,o),
(212,524,cs),
(315,265,l),
(365,265,l),
(538,520,ls),
(545,531,o),
(557,529,o),
(553,516,cs),
(528,425,l),
(469,0,l),
(549,0,l),
(647,700,l),
(576,700,l),
(366,388,ls),
(358,376,o),
(346,377,o),
(342,388,cs),
(222,700,l),
(153,700,l),
(55,0,l)
);
}
);
width = 674;
}
);
metricLeft = H;
metricRight = H;
unicode = 77;
userData = {
com.schriftgestaltung.Glyphs.ColorIndex = 3;
com.schriftgestaltung.Glyphs.layer.leftMetricsKey = "==H";
com.schriftgestaltung.Glyphs.layer.rightMetricsKey = "==H";
com.schriftgestaltung.Glyphs.leftMetricsKey = H;
com.schriftgestaltung.Glyphs.rightMetricsKey = H;
};
},
{
color = 6;
glyphname = N;
kernLeft = H;
kernRight = H;
lastChange = "2022-04-28 13:53:09 +0000";
layers = (
{
anchors = (
{
name = bottom;
pos = (284,0);
},
{
name = top;
pos = (383,700);
}
);
layerId = "6B2E1CAF-7E84-411F-9290-838331FE9C95";
metricLeft = "=H";
metricRight = "=H";
shapes = (
{
closed = 1;
nodes = (
(184,0,l),
(219,249,l),
(225,385,ls),
(226,398,o),
(237,401,o),
(242,390,cs),
(406,0,l),
(534,0,l),
(633,700,l),
(483,700,l),
(446,435,l),
(445,308,ls),
(445,296,o),
(433,294,o),
(429,304,cs),
(261,700,l),
(133,700,l),
(34,0,l)
);
}
);
width = 640;
},
{
anchors = (
{
name = bottom;
pos = (277,0);
},
{
name = top;
pos = (375,700);
}
);
layerId = "3DBDB2C8-AF6E-4CF3-B71C-7D596AD599C8";
metricLeft = "=H";
metricRight = "=H";
shapes = (
{
closed = 1;
nodes = (
(135,0,l),
(193,414,l),
(196,512,ls),
(196,528,o),
(208,532,o),
(213,519,cs),
(416,0,l),
(498,0,l),
(596,700,l),
(516,700,l),
(454,255,l),
(452,160,ls),
(452,141,o),
(440,141,o),
(436,151,cs),
(223,700,l),
(153,700,l),
(55,0,l)
);
}
);
width = 623;
}
);
metricLeft = H;
metricRight = H;
unicode = 78;
userData = {
com.schriftgestaltung.Glyphs.ColorIndex = 3;
com.schriftgestaltung.Glyphs.layer.leftMetricsKey = "==H";
com.schriftgestaltung.Glyphs.layer.rightMetricsKey = "==H";
com.schriftgestaltung.Glyphs.leftMetricsKey = H;
com.schriftgestaltung.Glyphs.rightMetricsKey = H;
};
},
{
color = 3;
glyphname = Eng;
lastChange = "2022-04-28 13:53:09 +0000";
layers = (
{
layerId = "6B2E1CAF-7E84-411F-9290-838331FE9C95";
shapes = (
{
closed = 1;
nodes = (
(421,-215,o),
(508,-146,o),
(531,-17,cs),
(534,0,l),
(406,0,l),
(404,-9,ls),
(395,-51,o),
(342,-75,o),
(290,-74,cs),
(255,-73,o),
(235,-67,o),
(211,-50,c),
(152,-171,l),
(191,-198,o),
(226,-215,o),
(285,-215,cs)
);
},
{
ref = N;
}
);
width = 640;
},
{
layerId = "3DBDB2C8-AF6E-4CF3-B71C-7D596AD599C8";
shapes = (
{
closed = 1;
nodes = (
(409,-215,o),
(474,-159,o),
(488,-67,cs),
(498,0,l),
(418,0,l),
(409,-63,ls),
(402,-110,o),
(367,-142,o),
(320,-142,cs),
(288,-142,o),
(255,-127,o),
(234,-101,c),
(191,-160,l),
(223,-193,o),
(270,-215,o),
(315,-215,cs)
);
},
{
ref = N;
}
);
width = 623;
}
);
metricLeft = N;
metricRight = N;
unicode = 330;
},
{
color = 6;
glyphname = O;
kernLeft = O;
kernRight = O;
lastChange = "2022-04-28 13:53:09 +0000";
layers = (
{
anchors = (
{
name = bottom;
pos = (274,0);
},
{
name = center;
pos = (323,350);
},
{
name = ogonek;
pos = (524,10);
},
{
name = top;
pos = (373,700);
},
{
name = topleft;
pos = (83,700);
},
{
name = topright;
pos = (663,700);
}
);
background = {
shapes = (
{
closed = 1;
nodes = (
(431,-12,o),
(517,67,o),
(551,176,cs),
(580,266,o),
(598,383,o),
(598,485,cs),
(598,592,o),
(516,712,o),
(361,712,cs),
(215,712,o),
(129,634,o),
(96,524,cs),
(67,427,o),
(49,319,o),
(49,215,cs),
(49,108,o),
(130,-12,o),
(285,-12,cs)
);
},
{
closed = 1;
nodes = (
(238,129,o),
(206,164,o),
(206,223,cs),
(206,277,o),
(234,452,o),
(249,500,cs),
(263,545,o),
(304,571,o),
(350,571,cs),
(406,571,o),
(441,536,o),
(441,477,cs),
(441,419,o),
(414,254,o),
(397,200,cs),
(383,155,o),
(342,129,o),
(294,129,cs)
);
}
);
};
layerId = "6B2E1CAF-7E84-411F-9290-838331FE9C95";
shapes = (
{
closed = 1;
nodes = (
(431,-12,o),
(517,67,o),
(551,176,cs),
(580,268,o),
(598,388,o),
(598,485,cs),
(598,597,o),
(521,712,o),
(361,712,cs),
(215,712,o),
(130,633,o),
(96,524,cs),
(67,432,o),
(49,312,o),
(49,215,cs),
(49,103,o),
(125,-12,o),
(285,-12,cs)
);
},
{
closed = 1;
nodes = (
(236,129,o),
(206,167,o),
(206,225,cs),
(206,275,o),
(227,437,o),
(246,491,cs),
(262,537,o),
(300,571,o),
(352,571,cs),
(410,571,o),
(441,533,o),
(441,475,cs),
(441,415,o),
(421,265,o),
(400,209,cs),
(383,163,o),
(346,129,o),
(294,129,cs)
);
}
);
width = 620;
},
{
anchors = (
{
name = bottom;
pos = (268,0);
},
{
name = center;
pos = (317,350);
},
{
name = ogonek;
pos = (511,10);
},
{
name = top;
pos = (362,670);
},
{
name = topleft;
pos = (83,700);
},
{
name = topright;
pos = (649,700);
}
);
background = {
shapes = (
{
closed = 1;
nodes = (
(415,-12,o),
(472,10,o),
(512,51,cs),
(554,95,o),
(586,162,o),
(586,350,c),
(586,538,o),
(555,606,o),
(512,649,cs),
(471,690,o),
(415,712,o),
(343,712,c),
(271,712,o),
(214,690,o),
(174,649,cs),
(132,605,o),
(100,538,o),
(100,350,c),
(100,162,o),
(131,94,o),
(174,51,cs),
(215,10,o),
(271,-12,o),
(343,-12,c)
);
},
{
closed = 1;
nodes = (
(244,66,o),
(193,123,o),
(188,214,cs),
(185,272,o),
(182,308,o),
(182,350,c),
(182,392,o),
(184,428,o),
(188,486,cs),
(194,577,o),
(244,634,o),
(343,634,c),
(442,634,o),
(493,577,o),
(498,486,cs),
(501,428,o),
(504,392,o),
(504,350,c),
(504,308,o),
(502,272,o),
(498,214,cs),
(492,123,o),
(442,66,o),
(343,66,c)
);
}
);
};
layerId = "3DBDB2C8-AF6E-4CF3-B71C-7D596AD599C8";
shapes = (
{
closed = 1;
nodes = (
(412,-12,o),
(488,61,o),
(519,166,cs),
(551,264,o),
(571,394,o),
(571,486,cs),
(571,603,o),
(501,712,o),
(356,712,cs),
(222,712,o),
(147,639,o),
(116,534,cs),
(84,439,o),
(64,308,o),
(64,214,cs),
(64,97,o),
(134,-12,o),
(278,-12,cs)
);
},
{
closed = 1;
nodes = (
(195,64,o),
(143,119,o),
(143,215,cs),
(143,304,o),
(162,429,o),
(190,513,cs),
(219,606,o),
(280,636,o),
(348,636,cs),
(440,636,o),
(492,581,o),
(492,485,cs),
(492,396,o),
(472,271,o),
(445,187,cs),
(417,94,o),
(355,64,o),
(286,64,cs)
);
}
);
width = 606;
},
{
anchors = (
{
name = bottom;
pos = (238,0);
},
{
name = center;
pos = (336,350);
},
{
name = ogonek;
pos = (490,10);
},
{
name = top;
pos = (436,700);
},
{
name = topleft;
pos = (146,700);
},
{
name = topright;
pos = (726,700);
}
);
associatedMasterId = "6B2E1CAF-7E84-411F-9290-838331FE9C95";
layerId = "18025181-8B99-44A8-8E42-1532E3D028D5";
name = Cursify;
shapes = (
{
closed = 1;
nodes = (
(345,-12,o),
(415,6,o),
(472,51,cs),
(524,102,o),
(562,162,o),
(587,341,cs),
(614,530,o),
(588,592,o),
(545,635,cs),
(505,688,o),
(440,712,o),
(367,712,cs),
(302,712,o),
(232,694,o),
(174,649,cs),
(123,598,o),
(85,538,o),
(60,359,cs),
(33,170,o),
(59,108,o),
(102,65,cs),
(141,12,o),
(207,-12,o),
(280,-12,cs)
);
},
{
closed = 1;
nodes = (
(233,129,o),
(202,162,o),
(205,218,cs),
(209,261,o),
(213,303,o),
(218,341,cs),
(225,389,o),
(233,431,o),
(241,464,cs),
(254,530,o),
(302,571,o),
(362,571,cs),
(414,571,o),
(445,538,o),
(441,482,cs),
(438,439,o),
(434,397,o),
(429,359,cs),
(422,311,o),
(414,269,o),
(406,236,cs),
(393,170,o),
(345,129,o),
(285,129,cs)
);
}
);
width = 620;
},
{
anchors = (
{
name = bottom;
pos = (202,0);
},
{
name = center;
pos = (350,350);
},
{
name = ogonek;
pos = (455,10);
},
{
name = top;
pos = (498,700);
},
{
name = topleft;
pos = (208,700);
},
{
name = topright;
pos = (788,700);
}
);
associatedMasterId = "6B2E1CAF-7E84-411F-9290-838331FE9C95";
layerId = "3D8AB01A-8BE4-466F-9AAE-649B1211A019";
name = Slanted;
shapes = (
{
closed = 1;
nodes = (
(341,-12,o),
(412,9,o),
(468,58,cs),
(522,105,o),
(562,166,o),
(588,350,cs),
(614,534,o),
(591,595,o),
(550,642,cs),
(508,691,o),
(443,712,o),
(374,712,cs),
(305,712,o),
(234,691,o),
(178,642,cs),
(125,595,o),
(84,534,o),
(58,350,cs),
(32,166,o),
(56,105,o),
(96,58,cs),
(138,9,o),
(203,-12,o),
(272,-12,cs)
);
},
{
closed = 1;
nodes = (
(236,129,o),
(202,166,o),
(207,227,cs),
(209,265,o),
(213,307,o),
(219,350,cs),
(225,393,o),
(233,435,o),
(242,473,cs),
(254,534,o),
(298,571,o),
(354,571,cs),
(410,571,o),
(444,534,o),
(440,473,cs),
(437,435,o),
(433,393,o),
(427,350,cs),
(421,307,o),
(413,265,o),
(405,227,cs),
(392,166,o),
(348,129,o),
(292,129,cs)
);
}
);
width = 620;
}
);
unicode = 79;
userData = {
com.schriftgestaltung.Glyphs.ColorIndex = 3;
};
},
{
color = 6;
glyphname = OE;
kernLeft = O;
kernRight = E;
lastChange = "2022-04-28 13:53:09 +0000";
layers = (
{
anchors = (
{
name = bottom;
pos = (420,0);
},
{
name = top;
pos = (519,700);
}
);
background = {
shapes = (
{
closed = 1;
nodes = (
(303,-12,o),
(330,-10,o),
(357,-3,c),
(388,11,ls),
(395,16,o),
(399,19,o),
(398,10,cs),
(396,0,l),
(826,0,l),
(846,140,l),
(561,140,l),
(581,285,l),
(849,285,l),
(867,415,l),
(599,415,l),
(620,560,l),
(905,560,l),
(925,700,l),
(495,700,l),
(494,698,ls),
(493,689,o),
(482,679,o),
(475,684,cs),
(451,700,l),
(426,707,o),
(399,712,o),
(367,712,cs),
(302,712,o),
(232,694,o),
(174,649,cs),
(123,598,o),
(85,538,o),
(60,359,cs),
(33,170,o),
(59,108,o),
(102,65,cs),
(141,12,o),
(207,-12,o),
(280,-12,cs)
);
},
{
closed = 1;
nodes = (
(233,129,o),
(202,162,o),
(205,218,cs),
(209,261,o),
(213,303,o),
(218,341,cs),
(225,389,o),
(233,431,o),
(241,464,cs),
(254,530,o),
(302,571,o),
(362,571,cs),
(414,571,o),
(445,538,o),
(441,482,cs),
(438,439,o),
(434,397,o),
(429,359,cs),
(422,311,o),
(414,269,o),
(406,236,cs),
(393,170,o),
(345,129,o),
(285,129,cs)
);
}
);
};
layerId = "6B2E1CAF-7E84-411F-9290-838331FE9C95";
shapes = (
{
closed = 1;
nodes = (
(314,-12,o),
(325,-9,o),
(339,-5,c),
(387,28,ls),
(397,35,o),
(402,29,o),
(401,23,cs),
(398,0,l),
(826,0,l),
(846,140,l),
(561,140,l),
(581,285,l),
(849,285,l),
(867,415,l),
(599,415,l),
(620,560,l),
(905,560,l),
(925,700,l),
(503,700,l),
(497,675,ls),
(495,666,o),
(487,661,o),
(479,669,cs),
(448,700,l),
(430,707,o),
(392,712,o),
(361,712,cs),
(215,712,o),
(130,633,o),
(96,524,cs),
(67,432,o),
(49,312,o),
(49,215,cs),
(49,103,o),
(125,-12,o),
(285,-12,cs)
);
},
{
closed = 1;
nodes = (
(236,129,o),
(206,167,o),
(206,225,cs),
(206,275,o),
(227,437,o),
(246,491,cs),
(262,537,o),
(300,571,o),
(352,571,cs),
(410,571,o),
(441,533,o),
(441,475,cs),
(441,415,o),
(421,265,o),
(400,209,cs),
(383,163,o),
(346,129,o),
(294,129,cs)
);
}
);
width = 912;
},
{
anchors = (
{
name = bottom;
pos = (431,0);
},
{
name = top;
pos = (529,700);
}
);
background = {
anchors = (
{
name = bottom;
pos = (268,0);
},
{
name = center;
pos = (317,350);
},
{
name = ogonek;
pos = (511,10);
},
{
name = top;
pos = (362,670);
},
{
name = topleft;
pos = (83,700);
},
{
name = topright;
pos = (649,700);
}
);
};
layerId = "3DBDB2C8-AF6E-4CF3-B71C-7D596AD599C8";
shapes = (
{
closed = 1;
nodes = (
(329,-12,o),
(358,2,o),
(367,6,c),
(421,40,ls),
(433,48,o),
(439,41,o),
(438,35,cs),
(434,0,l),
(837,0,l),
(848,78,l),
(523,78,l),
(556,311,l),
(864,311,l),
(875,389,l),
(567,389,l),
(599,622,l),
(924,622,l),
(935,700,l),
(532,700,l),
(524,648,ls),
(523,639,o),
(514,638,o),
(508,643,cs),
(467,683,l),
(449,695,o),
(412,712,o),
(356,712,cs),
(222,712,o),
(147,639,o),
(116,534,c),
(84,439,o),
(64,308,o),
(64,214,cs),
(64,97,o),
(134,-12,o),
(278,-12,cs)
);
},
{
closed = 1;
nodes = (
(195,64,o),
(143,119,o),
(143,215,cs),
(143,304,o),
(162,429,o),
(190,513,cs),
(219,606,o),
(280,636,o),
(348,636,cs),
(440,636,o),
(492,581,o),
(492,485,cs),
(492,396,o),
(472,271,o),
(445,187,cs),
(417,94,o),
(355,64,o),
(286,64,cs)
);
}
);
width = 932;
}
);
metricLeft = O;
metricRight = E;
unicode = 338;
userData = {
com.schriftgestaltung.Glyphs.leftMetricsKey = O;
com.schriftgestaltung.Glyphs.rightMetricsKey = E;
};
},
{
color = 6;
glyphname = P;
kernLeft = H;
kernRight = P;
lastChange = "2022-04-28 13:53:09 +0000";
layers = (
{
anchors = (
{
name = bottom;
pos = (290,0);
},
{
name = top;
pos = (290,700);
}
);
layerId = "6B2E1CAF-7E84-411F-9290-838331FE9C95";
metricLeft = "=H";
shapes = (
{
closed = 1;
nodes = (
(193,0,l),
(233,280,l),
(341,280,ls),
(486,280,o),
(583,369,o),
(583,509,cs),
(583,625,o),
(503,700,o),
(383,700,cs),
(133,700,l),
(34,0,l)
);
},
{
closed = 1;
nodes = (
(273,570,l),
(372,570,ls),
(427,570,o),
(439,536,o),
(439,501,cs),
(439,454,o),
(406,410,o),
(352,410,cs),
(251,410,l)
);
}
);
width = 580;
},
{
anchors = (
{
name = bottom;
pos = (242,0);
},
{
name = top;
pos = (336,670);
}
);
layerId = "3DBDB2C8-AF6E-4CF3-B71C-7D596AD599C8";
metricLeft = "=H";
shapes = (
{
closed = 1;
nodes = (
(135,0,l),
(178,311,l),
(341,311,ls),
(477,311,o),
(562,403,o),
(562,535,cs),
(562,622,o),
(501,700,o),
(391,700,cs),
(153,700,l),
(55,0,l)
);
},
{
closed = 1;
nodes = (
(223,630,l),
(375,630,ls),
(439,630,o),
(485,597,o),
(485,535,cs),
(485,423,o),
(429,384,o),
(337,384,cs),
(189,384,l)
);
}
);
width = 553;
}
);
metricLeft = H;
unicode = 80;
userData = {
com.schriftgestaltung.Glyphs.ColorIndex = 3;
com.schriftgestaltung.Glyphs.layer.leftMetricsKey = "==H";
com.schriftgestaltung.Glyphs.leftMetricsKey = H;
};
},
{
color = 6;
glyphname = Thorn;
kernLeft = H;
kernRight = Thorn;
lastChange = "2022-04-28 13:53:09 +0000";
layers = (
{
anchors = (
{
name = bottom;
pos = (254,0);
},
{
name = top;
pos = (353,700);
}
);
background = {
anchors = (
{
name = bottom;
pos = (254,0);
},
{
name = top;
pos = (353,700);
}
);
shapes = (
{
closed = 1;
nodes = (
(193,0,l),
(214,150,l),
(324,150,ls),
(457,150,o),
(546,227,o),
(563,347,cs),
(582,485,o),
(509,570,o),
(376,570,cs),
(273,570,l),
(292,700,l),
(133,700,l),
(34,0,l)
);
},
{
closed = 1;
nodes = (
(255,440,l),
(365,440,ls),
(409,440,o),
(428,415,o),
(421,368,cs),
(414,317,o),
(379,280,o),
(335,280,cs),
(233,280,l)
);
}
);
};
layerId = "6B2E1CAF-7E84-411F-9290-838331FE9C95";
shapes = (
{
closed = 1;
nodes = (
(193,0,l),
(214,150,l),
(322,150,ls),
(467,150,o),
(564,239,o),
(564,379,cs),
(564,495,o),
(484,570,o),
(364,570,cs),
(273,570,l),
(292,700,l),
(133,700,l),
(34,0,l)
);
},
{
closed = 1;
nodes = (
(254,440,l),
(353,440,ls),
(408,440,o),
(420,406,o),
(420,371,cs),
(420,324,o),
(387,280,o),
(333,280,cs),
(232,280,l)
);
}
);
width = 580;
},
{
anchors = (
{
name = bottom;
pos = (242,0);
},
{
name = top;
pos = (336,670);
}
);
background = {
anchors = (
{
name = bottom;
pos = (242,0);
},
{
name = top;
pos = (340,700);
}
);
shapes = (
{
closed = 1;
nodes = (
(135,0,l),
(158,165,l),
(320,165,ls),
(439,165,o),
(521,236,o),
(537,352,cs),
(555,475,o),
(490,555,o),
(371,555,cs),
(213,555,l),
(233,700,l),
(153,700,l),
(55,0,l)
);
},
{
closed = 1;
nodes = (
(203,484,l),
(355,484,ls),
(430,484,o),
(468,437,o),
(458,362,cs),
(447,284,o),
(391,238,o),
(316,238,cs),
(168,238,l)
);
}
);
};
layerId = "3DBDB2C8-AF6E-4CF3-B71C-7D596AD599C8";
shapes = (
{
closed = 1;
nodes = (
(135,0,l),
(158,165,l),
(321,165,ls),
(457,165,o),
(542,257,o),
(542,388,cs),
(542,476,o),
(481,554,o),
(371,554,cs),
(212,554,l),
(232,700,l),
(153,700,l),
(55,0,l)
);
},
{
closed = 1;
nodes = (
(203,484,l),
(355,484,ls),
(419,484,o),
(465,451,o),
(465,378,cs),
(465,280,o),
(412,238,o),
(317,238,cs),
(169,238,l)
);
}
);
width = 553;
}
);
metricLeft = H;
unicode = 222;
userData = {
com.schriftgestaltung.Glyphs.leftMetricsKey = H;
};
},
{
color = 6;
glyphname = Q;
kernLeft = O;
kernRight = O;
lastChange = "2022-04-28 13:53:09 +0000";
layers = (
{
anchors = (
{
name = bottom;
pos = (274,0);
},
{
name = top;
pos = (373,700);
}
);
layerId = "6B2E1CAF-7E84-411F-9290-838331FE9C95";
metricLeft = "=O";
metricRight = "=O";
shapes = (
{
closed = 1;
nodes = (
(464,-60,l),
(433,30,l),
(494,60,o),
(531,112,o),
(551,176,cs),
(579,266,o),
(598,383,o),
(598,485,cs),
(598,592,o),
(516,712,o),
(361,712,cs),
(215,712,o),
(129,634,o),
(96,524,cs),
(67,427,o),
(49,319,o),
(49,215,cs),
(49,108,o),
(130,-12,o),
(285,-12,cs),
(295,-12,o),
(301,-12,o),
(306,-12,c),
(337,-115,l)
);
},
{
closed = 1;
nodes = (
(237,122,o),
(196,164,o),
(196,223,cs),
(196,277,o),
(226,451,o),
(238,490,cs),
(255,545,o),
(305,573,o),
(351,573,cs),
(411,573,o),
(451,537,o),
(451,477,cs),
(451,419,o),
(424,254,o),
(407,200,cs),
(403,189,o),
(398,179,o),
(390,170,c),
(353,285,l),
(233,232,l),
(250,172,l),
(296,143,ls),
(302,139,o),
(304,136,o),
(304,132,cs),
(304,127,o),
(300,122,o),
(290,122,cs)
);
}
);
width = 620;
},
{
anchors = (
{
name = bottom;
pos = (268,0);
},
{
name = top;
pos = (362,670);
}
);
background = {
shapes = (
{
closed = 1;
nodes = (
(455,-86,l),
(416,21,l),
(469,52,o),
(500,104,o),
(520,166,cs),
(552,264,o),
(571,395,o),
(571,490,cs),
(571,602,o),
(500,712,o),
(359,712,cs),
(223,712,o),
(147,639,o),
(116,534,cs),
(88,438,o),
(63,312,o),
(63,229,cs),
(63,101,o),
(134,-12,o),
(273,-12,cs),
(297,-12,o),
(320,-10,o),
(340,-7,c),
(381,-118,l)
);
},
{
closed = 1;
nodes = (
(197,64,o),
(143,119,o),
(143,221,cs),
(143,302,o),
(162,426,o),
(190,513,cs),
(222,609,o),
(282,636,o),
(351,636,cs),
(439,636,o),
(492,581,o),
(492,485,cs),
(492,396,o),
(475,271,o),
(448,187,cs),
(434,143,o),
(414,114,o),
(389,94,c),
(330,256,l),
(256,223,l),
(292,126,ls),
(298,111,o),
(310,103,o),
(317,95,cs),
(321,91,o),
(324,87,o),
(324,83,cs),
(324,71,o),
(307,64,o),
(283,64,cs)
);
}
);
};
layerId = "3DBDB2C8-AF6E-4CF3-B71C-7D596AD599C8";
metricLeft = "=O";
metricRight = "=O";
shapes = (
{
closed = 1;
nodes = (
(455,-86,l),
(416,21,l),
(469,52,o),
(500,104,o),
(520,166,cs),
(552,264,o),
(571,395,o),
(571,490,cs),
(571,602,o),
(500,712,o),
(359,712,cs),
(223,712,o),
(147,639,o),
(116,534,cs),
(88,438,o),
(63,312,o),
(63,229,cs),
(63,101,o),
(134,-12,o),
(273,-12,cs),
(297,-12,o),
(320,-10,o),
(340,-7,c),
(381,-118,l)
);
},
{
closed = 1;
nodes = (
(197,64,o),
(143,119,o),
(143,221,cs),
(143,302,o),
(162,426,o),
(190,513,cs),
(222,609,o),
(282,636,o),
(351,636,cs),
(439,636,o),
(492,581,o),
(492,485,cs),
(492,396,o),
(475,271,o),
(448,187,cs),
(434,143,o),
(414,114,o),
(389,94,c),
(330,256,l),
(256,223,l),
(295,119,l),
(307,106,ls),
(315,98,o),
(324,90,o),
(324,83,cs),
(324,71,o),
(307,64,o),
(283,64,cs)
);
}
);
width = 606;
}
);
metricLeft = O;
metricRight = O;
unicode = 81;
userData = {
com.schriftgestaltung.Glyphs.ColorIndex = 3;
com.schriftgestaltung.Glyphs.layer.leftMetricsKey = "==O";
com.schriftgestaltung.Glyphs.layer.rightMetricsKey = "==O";
com.schriftgestaltung.Glyphs.leftMetricsKey = O;
com.schriftgestaltung.Glyphs.rightMetricsKey = O;
};
},
{
color = 6;
glyphname = R;
kernLeft = H;
kernRight = R;
lastChange = "2022-04-28 13:53:09 +0000";
layers = (
{
anchors = (
{
name = bottom;
pos = (264,0);
},
{
name = top;
pos = (363,700);
}
);
layerId = "6B2E1CAF-7E84-411F-9290-838331FE9C95";
metricLeft = "=H";
shapes = (
{
closed = 1;
nodes = (
(194,0,l),
(234,280,l),
(295,280,l),
(358,0,l),
(515,0,l),
(463,227,l),
(434,273,ls),
(430,283,o),
(433,288,o),
(443,291,cs),
(538,324,o),
(602,404,o),
(602,505,cs),
(602,622,o),
(522,700,o),
(380,700,cs),
(133,700,l),
(34,0,l)
);
},
{
closed = 1;
nodes = (
(273,570,l),
(375,570,ls),
(431,570,o),
(460,543,o),
(460,493,cs),
(460,446,o),
(426,410,o),
(375,410,cs),
(251,410,l)
);
}
);
width = 600;
},
{
anchors = (
{
name = bottom;
pos = (247,0);
},
{
name = top;
pos = (341,670);
}
);
layerId = "3DBDB2C8-AF6E-4CF3-B71C-7D596AD599C8";
metricLeft = "=H";
shapes = (
{
closed = 1;
nodes = (
(135,0,l),
(178,311,l),
(317,311,l),
(386,0,l),
(474,0,l),
(425,227,l),
(394,299,ls),
(390,309,o),
(395,316,o),
(407,319,cs),
(506,347,o),
(562,427,o),
(562,524,cs),
(562,622,o),
(501,700,o),
(391,700,cs),
(153,700,l),
(55,0,l)
);
},
{
closed = 1;
nodes = (
(223,630,l),
(375,630,ls),
(439,630,o),
(485,597,o),
(485,524,cs),
(485,423,o),
(429,384,o),
(337,384,cs),
(189,384,l)
);
}
);
width = 563;
}
);
metricLeft = H;
unicode = 82;
userData = {
com.schriftgestaltung.Glyphs.ColorIndex = 3;
com.schriftgestaltung.Glyphs.layer.leftMetricsKey = "==H";
com.schriftgestaltung.Glyphs.leftMetricsKey = H;
};
},
{
color = 6;
glyphname = S;
kernLeft = S;
kernRight = S;
lastChange = "2022-04-28 13:53:09 +0000";
layers = (
{
anchors = (
{
name = bottom;
pos = (211,0);
},
{
name = top;
pos = (309,700);
}
);
background = {
anchors = (
{
name = bottom;
pos = (427,0);
},
{
name = top;
pos = (427,700);
}
);
shapes = (
{
closed = 1;
nodes = (
(438,-10,o),
(528,68,o),
(528,217,cs),
(528,342,o),
(453,420,o),
(321,436,cs),
(281,441,ls),
(240,446,o),
(217,466,o),
(217,505,cs),
(217,541,o),
(245,574,o),
(323,574,cs),
(375,574,o),
(422,562,o),
(469,537,c),
(513,655,l),
(472,686,o),
(406,712,o),
(318,712,cs),
(150,712,o),
(67,626,o),
(67,495,cs),
(67,373,o),
(152,312,o),
(261,297,cs),
(298,292,ls),
(351,285,o),
(378,255,o),
(378,210,cs),
(378,156,o),
(337,128,o),
(275,128,cs),
(209,128,o),
(166,143,o),
(104,180,c),
(58,54,l),
(125,11,o),
(188,-10,o),
(279,-10,cs)
);
},
{
ref = O;
}
);
};
layerId = "6B2E1CAF-7E84-411F-9290-838331FE9C95";
shapes = (
{
closed = 1;
nodes = (
(366,-10,o),
(487,69,o),
(485,227,cs),
(483,335,o),
(418,401,o),
(297,435,cs),
(271,442,ls),
(234,452,o),
(221,469,o),
(221,495,cs),
(221,531,o),
(255,574,o),
(339,574,cs),
(388,574,o),
(435,561,o),
(478,536,c),
(522,655,l),
(486,683,o),
(423,712,o),
(328,712,cs),
(185,712,o),
(71,627,o),
(71,491,cs),
(71,380,o),
(152,317,o),
(246,292,cs),
(276,284,ls),
(320,272,o),
(335,248,o),
(335,219,cs),
(335,167,o),
(288,128,o),
(220,128,cs),
(151,128,o),
(106,142,o),
(44,180,c),
(-2,54,l),
(59,12,o),
(119,-10,o),
(213,-10,cs)
);
}
);
width = 520;
},
{
anchors = (
{
name = bottom;
pos = (193,0);
},
{
name = top;
pos = (287,670);
}
);
background = {
shapes = (
{
closed = 1;
nodes = (
(362,-10,o),
(477,58,o),
(475,227,cs),
(473,339,o),
(421,397,o),
(300,431,cs),
(261,442,ls),
(227,452,o),
(211,473,o),
(211,498,cs),
(211,544,o),
(240,574,o),
(329,574,cs),
(378,574,o),
(425,561,o),
(468,536,c),
(512,655,l),
(476,683,o),
(413,712,o),
(329,712,cs),
(168,712,o),
(61,633,o),
(61,491,cs),
(61,375,o),
(133,319,o),
(214,298,cs),
(260,286,ls),
(307,274,o),
(325,250,o),
(325,212,cs),
(325,158,o),
(284,128,o),
(210,128,cs),
(141,128,o),
(96,142,o),
(34,180,c),
(-12,54,l),
(49,12,o),
(109,-10,o),
(203,-10,cs)
);
},
{
closed = 1;
nodes = (
(426,-10,o),
(509,80,o),
(509,201,cs),
(509,310,o),
(444,388,o),
(323,401,cs),
(275,406,ls),
(211,413,o),
(169,447,o),
(169,518,cs),
(169,587,o),
(222,635,o),
(318,635,cs),
(366,635,o),
(420,623,o),
(468,590,c),
(493,660,l),
(439,694,o),
(376,710,o),
(317,710,cs),
(175,710,o),
(87,626,o),
(87,513,cs),
(87,404,o),
(153,340,o),
(265,328,cs),
(313,323,ls),
(397,314,o),
(428,260,o),
(428,196,cs),
(428,120,o),
(380,67,o),
(285,67,cs),
(223,67,o),
(160,89,o),
(116,128,c),
(86,58,l),
(135,17,o),
(212,-10,o),
(289,-10,cs)
);
}
);
};
layerId = "3DBDB2C8-AF6E-4CF3-B71C-7D596AD599C8";
shapes = (
{
closed = 1;
nodes = (
(332,-10,o),
(432,98,o),
(432,212,cs),
(432,309,o),
(381,368,o),
(283,402,cs),
(248,414,ls),
(199,431,o),
(169,464,o),
(169,510,cs),
(169,569,o),
(217,635,o),
(327,635,cs),
(364,635,o),
(420,624,o),
(469,590,c),
(494,660,l),
(441,693,o),
(379,710,o),
(328,710,cs),
(164,710,o),
(88,606,o),
(88,510,cs),
(88,418,o),
(151,364,o),
(226,338,cs),
(266,324,ls),
(321,305,o),
(351,267,o),
(351,218,cs),
(351,143,o),
(287,67,o),
(189,67,cs),
(133,67,o),
(68,88,o),
(27,128,c),
(-3,58,l),
(34,23,o),
(113,-10,o),
(191,-10,cs)
);
}
);
width = 483;
}
);
unicode = 83;
userData = {
com.schriftgestaltung.Glyphs.ColorIndex = 3;
com.typemytype.robofont.layerData = {
background = {
anchors = (
);
components = (
);
contours = (
{
points = (
{
smooth = 0;
x = 389;
y = 562;
},
{
smooth = 0;
x = 346;
y = 574;
},
{
segmentType = curve;
smooth = 1;
x = 290;
y = 574;
},
{
smooth = 0;
x = 204;
y = 574;
},
{
smooth = 0;
x = 174;
y = 537;
},
{
segmentType = curve;
smooth = 1;
x = 174;
y = 499;
},
{
smooth = 0;
x = 174;
y = 463;
},
{
smooth = 0;
x = 196;
y = 444;
},
{
segmentType = curve;
smooth = 1;
x = 238;
y = 441;
},
{
segmentType = line;
smooth = 1;
x = 311;
y = 435;
},
{
smooth = 0;
x = 434;
y = 425;
},
{
smooth = 0;
x = 509;
y = 341;
},
{
segmentType = curve;
smooth = 1;
x = 509;
y = 224;
},
{
smooth = 0;
x = 509;
y = 82;
},
{
smooth = 0;
x = 419;
y = -10;
},
{
segmentType = curve;
smooth = 1;
x = 249;
y = -10;
},
{
smooth = 0;
x = 154;
y = -10;
},
{
smooth = 0;
x = 93;
y = 11;
},
{
segmentType = curve;
smooth = 0;
x = 23;
y = 64;
},
{
segmentType = line;
smooth = 0;
x = 69;
y = 190;
},
{
smooth = 0;
x = 135;
y = 143;
},
{
smooth = 0;
x = 175;
y = 128;
},
{
segmentType = curve;
smooth = 1;
x = 245;
y = 128;
},
{
smooth = 0;
x = 318;
y = 128;
},
{
smooth = 0;
x = 359;
y = 160;
},
{
segmentType = curve;
smooth = 1;
x = 359;
y = 218;
},
{
smooth = 0;
x = 359;
y = 259;
},
{
smooth = 0;
x = 335;
y = 287;
},
{
segmentType = curve;
smooth = 1;
x = 280;
y = 292;
},
{
segmentType = line;
smooth = 1;
x = 210;
y = 298;
},
{
smooth = 0;
x = 103;
y = 307;
},
{
smooth = 0;
x = 24;
y = 377;
},
{
segmentType = curve;
smooth = 1;
x = 24;
y = 489;
},
{
smooth = 0;
x = 24;
y = 615;
},
{
smooth = 0;
x = 112;
y = 712;
},
{
segmentType = curve;
smooth = 1;
x = 285;
y = 712;
},
{
smooth = 0;
x = 378;
y = 712;
},
{
smooth = 0;
x = 435;
y = 686;
},
{
segmentType = curve;
smooth = 0;
x = 483;
y = 655;
},
{
segmentType = line;
smooth = 0;
x = 439;
y = 537;
}
);
}
);
lib = {
};
name = S;
unicodes = (
);
width = 503;
};
};
};
},
{
color = 6;
glyphname = T;
kernLeft = T;
kernRight = T;
lastChange = "2022-04-28 13:53:09 +0000";
layers = (
{
anchors = (
{
name = bottom;
pos = (219,0);
},
{
name = center;
pos = (268,350);
},
{
name = top;
pos = (318,700);
}
);
layerId = "6B2E1CAF-7E84-411F-9290-838331FE9C95";
shapes = (
{
closed = 1;
nodes = (
(299,0,l),
(378,560,l),
(533,560,l),
(553,700,l),
(83,700,l),
(63,560,l),
(218,560,l),
(139,0,l)
);
}
);
width = 510;
},
{
anchors = (
{
name = bottom;
pos = (209,0);
},
{
name = center;
pos = (258,350);
},
{
name = top;
pos = (303,670);
}
);
layerId = "3DBDB2C8-AF6E-4CF3-B71C-7D596AD599C8";
shapes = (
{
closed = 1;
nodes = (
(250,0,l),
(337,622,l),
(510,622,l),
(521,700,l),
(93,700,l),
(82,622,l),
(254,622,l),
(167,0,l)
);
}
);
width = 488;
}
);
unicode = 84;
userData = {
com.schriftgestaltung.Glyphs.ColorIndex = 3;
};
},
{
color = 6;
glyphname = U;
kernLeft = U;
kernRight = U;
lastChange = "2022-04-28 13:53:09 +0000";
layers = (
{
anchors = (
{
name = bottom;
pos = (266,0);
},
{
name = ogonek;
pos = (355,0);
},
{
name = top;
pos = (365,700);
},
{
name = topright;
pos = (647,700);
}
);
guides = (
{
pos = (551,-263);
}
);
layerId = "6B2E1CAF-7E84-411F-9290-838331FE9C95";
shapes = (
{
closed = 1;
nodes = (
(417,-10,o),
(515,78,o),
(535,212,cs),
(607,700,l),
(447,700,l),
(379,217,ls),
(372,168,o),
(339,131,o),
(288,131,cs),
(243,131,o),
(207,160,o),
(216,226,cs),
(283,700,l),
(123,700,l),
(58,240,ls),
(36,86,o),
(133,-10,o),
(280,-10,cs)
);
}
);
width = 604;
},
{
anchors = (
{
name = bottom;
pos = (270,0);
},
{
name = ogonek;
pos = (346,0);
},
{
name = top;
pos = (364,670);
},
{
name = topright;
pos = (652,700);
}
);
guides = (
{
pos = (505,-247);
}
);
layerId = "3DBDB2C8-AF6E-4CF3-B71C-7D596AD599C8";
shapes = (
{
closed = 1;
nodes = (
(402,-10,o),
(498,74,o),
(516,199,cs),
(587,700,l),
(503,700,l),
(433,203,ls),
(422,123,o),
(359,66,o),
(279,66,cs),
(196,66,o),
(149,119,o),
(165,229,cs),
(232,700,l),
(148,700,l),
(82,233,ls),
(60,78,o),
(141,-10,o),
(277,-10,cs)
);
}
);
width = 609;
}
);
unicode = 85;
userData = {
com.schriftgestaltung.Glyphs.ColorIndex = 3;
};
},
{
color = 6;
glyphname = V;
kernLeft = V;
kernRight = V;
lastChange = "2022-04-28 13:53:09 +0000";
layers = (
{
anchors = (
{
name = bottom;
pos = (245,0);
},
{
name = top;
pos = (344,700);
}
);
background = {
shapes = (
{
closed = 1;
nodes = (
(350,0,l),
(604,700,l),
(446,700,l),
(289,227,l),
(271,141,ls),
(268,129,o),
(252,121,o),
(252,133,cs),
(259,227,l),
(240,700,l),
(83,700,l),
(137,0,l)
);
}
);
};
layerId = "6B2E1CAF-7E84-411F-9290-838331FE9C95";
shapes = (
{
closed = 1;
nodes = (
(364,0,l),
(604,700,l),
(443,700,l),
(272,141,ls),
(268,128,o),
(253,130,o),
(254,143,cs),
(265,287,l),
(238,700,l),
(83,700,l),
(137,0,l)
);
}
);
width = 561;
},
{
anchors = (
{
name = bottom;
pos = (233,0);
},
{
name = top;
pos = (327,670);
}
);
layerId = "3DBDB2C8-AF6E-4CF3-B71C-7D596AD599C8";
shapes = (
{
closed = 1;
nodes = (
(295,0,l),
(579,700,l),
(493,700,l),
(244,75,ls),
(240,64,o),
(230,66,o),
(230,77,cs),
(226,173,l),
(167,700,l),
(83,700,l),
(168,0,l)
);
}
);
width = 536;
}
);
unicode = 86;
userData = {
com.schriftgestaltung.Glyphs.ColorIndex = 3;
};
},
{
color = 6;
glyphname = W;
kernLeft = W;
kernRight = W;
lastChange = "2022-04-28 13:53:09 +0000";
layers = (
{
anchors = (
{
name = bottom;
pos = (284,0);
},
{
name = top;
pos = (383,700);
}
);
layerId = "6B2E1CAF-7E84-411F-9290-838331FE9C95";
shapes = (
{
closed = 1;
nodes = (
(212,0,l),
(301,223,ls),
(306,236,o),
(319,234,o),
(320,223,cs),
(338,0,l),
(488,0,l),
(663,700,l),
(519,700,l),
(452,431,l),
(428,294,ls),
(426,280,o),
(412,280,o),
(410,294,cs),
(381,510,l),
(309,510,l),
(214,296,ls),
(209,285,o),
(196,285,o),
(198,298,cs),
(218,431,l),
(225,700,l),
(83,700,l),
(62,0,l)
);
}
);
width = 640;
},
{
anchors = (
{
name = bottom;
pos = (273,0);
},
{
name = top;
pos = (367,670);
}
);
layerId = "3DBDB2C8-AF6E-4CF3-B71C-7D596AD599C8";
shapes = (
{
closed = 1;
nodes = (
(185,0,l),
(308,308,ls),
(313,321,o),
(326,320,o),
(328,306,cs),
(361,0,l),
(446,0,l),
(653,700,l),
(581,700,l),
(434,220,l),
(420,145,ls),
(417,131,o),
(407,133,o),
(406,142,cs),
(371,500,l),
(314,500,l),
(179,145,ls),
(176,136,o),
(164,137,o),
(165,148,cs),
(170,234,l),
(161,700,l),
(88,700,l),
(100,0,l)
);
}
);
width = 615;
}
);
unicode = 87;
userData = {
com.schriftgestaltung.Glyphs.ColorIndex = 3;
};
},
{
color = 6;
glyphname = X;
kernLeft = X;
kernRight = X;
lastChange = "2022-04-28 13:53:09 +0000";
layers = (
{
anchors = (
{
name = bottom;
pos = (249,0);
},
{
name = top;
pos = (348,700);
}
);
layerId = "6B2E1CAF-7E84-411F-9290-838331FE9C95";
metricLeft = "=V";
metricRight = "=V";
shapes = (
{
closed = 1;
nodes = (
(154,0,l),
(293,288,ls),
(299,300,o),
(308,300,o),
(308,288,cs),
(305,204,l),
(330,0,l),
(492,0,l),
(418,365,l),
(613,700,l),
(441,700,l),
(295,413,ls),
(289,401,o),
(279,402,o),
(280,414,cs),
(288,506,l),
(262,700,l),
(104,700,l),
(176,355,l),
(-16,0,l)
);
}
);
width = 570;
},
{
anchors = (
{
name = bottom;
pos = (226,0);
},
{
name = top;
pos = (320,670);
}
);
layerId = "3DBDB2C8-AF6E-4CF3-B71C-7D596AD599C8";
metricLeft = "=V";
metricRight = "=V";
shapes = (
{
closed = 1;
nodes = (
(81,0,l),
(270,295,ls),
(275,303,o),
(282,303,o),
(284,295,cs),
(298,227,l),
(384,0,l),
(467,0,l),
(325,366,l),
(550,700,l),
(454,700,l),
(275,422,ls),
(270,414,o),
(263,414,o),
(261,422,cs),
(244,493,l),
(172,700,l),
(85,700,l),
(219,347,l),
(-15,0,l)
);
}
);
width = 522;
}
);
metricLeft = T;
metricRight = T;
unicode = 88;
userData = {
com.schriftgestaltung.Glyphs.ColorIndex = 3;
com.schriftgestaltung.Glyphs.layer.leftMetricsKey = "==V";
com.schriftgestaltung.Glyphs.layer.rightMetricsKey = "==V";
com.schriftgestaltung.Glyphs.leftMetricsKey = T;
com.schriftgestaltung.Glyphs.rightMetricsKey = T;
};
},
{
color = 6;
glyphname = Y;
kernLeft = Y;
kernRight = Y;
lastChange = "2022-04-28 13:53:09 +0000";
layers = (
{
anchors = (
{
name = bottom;
pos = (218,0);
},
{
name = top;
pos = (317,700);
},
{
name = topleft;
pos = (83,700);
}
);
layerId = "6B2E1CAF-7E84-411F-9290-838331FE9C95";
shapes = (
{
closed = 1;
nodes = (
(297,0,l),
(334,255,l),
(571,700,l),
(410,700,l),
(280,418,ls),
(273,404,o),
(263,405,o),
(262,418,cs),
(255,550,l),
(222,700,l),
(63,700,l),
(174,255,l),
(137,0,l)
);
}
);
width = 508;
},
{
anchors = (
{
name = bottom;
pos = (206,0);
},
{
name = top;
pos = (300,670);
},
{
name = topleft;
pos = (83,700);
}
);
layerId = "3DBDB2C8-AF6E-4CF3-B71C-7D596AD599C8";
shapes = (
{
closed = 1;
nodes = (
(246,0,l),
(293,330,l),
(546,700,l),
(450,700,l),
(262,407,ls),
(257,399,o),
(249,400,o),
(248,407,cs),
(233,484,l),
(156,700,l),
(64,700,l),
(213,330,l),
(166,0,l)
);
}
);
width = 482;
}
);
unicode = 89;
userData = {
com.schriftgestaltung.Glyphs.ColorIndex = 3;
};
},
{
color = 6;
glyphname = Z;
kernLeft = Z;
kernRight = Z;
lastChange = "2022-04-28 13:53:09 +0000";
layers = (
{
anchors = (
{
name = bottom;
pos = (228,0);
},
{
name = top;
pos = (327,700);
}
);
layerId = "6B2E1CAF-7E84-411F-9290-838331FE9C95";
metricLeft = "=H/2";
metricRight = "=H/2";
shapes = (
{
closed = 1;
nodes = (
(466,0,l),
(486,140,l),
(217,140,ls),
(209,140,o),
(207,149,o),
(213,156,cs),
(293,245,l),
(550,602,l),
(563,700,l),
(99,700,l),
(71,504,l),
(216,504,l),
(225,570,l),
(354,570,ls),
(361,570,o),
(364,563,o),
(358,556,cs),
(270,457,l),
(13,98,l),
(0,0,l)
);
}
);
width = 537;
},
{
anchors = (
{
name = bottom;
pos = (219,0);
},
{
name = top;
pos = (313,670);
}
);
layerId = "3DBDB2C8-AF6E-4CF3-B71C-7D596AD599C8";
metricLeft = "=H/2";
metricRight = "=H/2";
shapes = (
{
closed = 1;
nodes = (
(427,0,l),
(438,78,l),
(133,78,ls),
(128,78,o),
(126,85,o),
(131,91,cs),
(187,160,l),
(518,652,l),
(524,700,l),
(119,700,l),
(98,547,l),
(171,547,l),
(182,630,l),
(408,630,ls),
(415,630,o),
(416,622,o),
(412,618,cs),
(361,558,l),
(17,48,l),
(11,0,l)
);
}
);
width = 507;
}
);
unicode = 90;
userData = {
com.schriftgestaltung.Glyphs.ColorIndex = 3;
com.schriftgestaltung.Glyphs.layer.leftMetricsKey = "==H/2";
com.schriftgestaltung.Glyphs.layer.rightMetricsKey = "==H/2";
};
},
{
color = 6;
glyphname = A.ss01;
kernLeft = A.ss01;
kernRight = A.ss01;
lastChange = "2022-04-28 13:53:09 +0000";
layers = (
{
anchors = (
{
name = bottom;
pos = (305,0);
},
{
name = ogonek;
pos = (549,10);
},
{
name = top;
pos = (305,700);
}
);
layerId = "6B2E1CAF-7E84-411F-9290-838331FE9C95";
metricLeft = "=A";
metricRight = "=A";
shapes = (
{
closed = 1;
nodes = (
(144,0,l),
(340,556,ls),
(344,568,o),
(358,565,o),
(358,553,cs),
(358,397,l),
(396,0,l),
(554,0,l),
(472,700,l),
(252,700,l),
(-16,0,l)
);
},
{
closed = 1;
nodes = (
(399,162,l),
(388,292,l),
(231,292,l),
(183,162,l)
);
}
);
width = 610;
},
{
anchors = (
{
name = bottom;
pos = (283,0);
},
{
name = ogonek;
pos = (509,10);
},
{
name = top;
pos = (283,670);
}
);
layerId = "3DBDB2C8-AF6E-4CF3-B71C-7D596AD599C8";
metricLeft = "=A";
metricRight = "=A";
shapes = (
{
closed = 1;
nodes = (
(71,0,l),
(332,625,ls),
(335,633,o),
(345,631,o),
(345,623,cs),
(347,534,l),
(427,0,l),
(511,0,l),
(401,700,l),
(281,700,l),
(-15,0,l)
);
},
{
closed = 1;
nodes = (
(429,187,l),
(418,261,l),
(152,261,l),
(119,187,l)
);
}
);
width = 566;
}
);
metricLeft = A;
metricRight = A;
userData = {
com.schriftgestaltung.Glyphs.layer.leftMetricsKey = "==A";
com.schriftgestaltung.Glyphs.layer.rightMetricsKey = "==A";
com.schriftgestaltung.Glyphs.leftMetricsKey = A;
com.schriftgestaltung.Glyphs.rightMetricsKey = A;
};
},
{
color = 6;
glyphname = G.ss01;
kernLeft = G.ss01;
kernRight = G.ss01;
lastChange = "2022-04-28 13:53:09 +0000";
layers = (
{
anchors = (
{
name = bottom;
pos = (286,0);
},
{
name = top;
pos = (286,700);
}
);
layerId = "6B2E1CAF-7E84-411F-9290-838331FE9C95";
metricLeft = "=O";
shapes = (
{
closed = 1;
nodes = (
(384,-11,o),
(451,11,o),
(496,41,c),
(546,420,l),
(321,420,l),
(302,280,l),
(397,280,l),
(373,139,l),
(346,133,o),
(318,129,o),
(286,129,cs),
(233,129,o),
(200,165,o),
(200,212,cs),
(200,277,o),
(215,380,o),
(234,452,cs),
(258,544,o),
(301,572,o),
(385,572,cs),
(436,572,o),
(485,555,o),
(521,529,c),
(583,648,l),
(533,688,o),
(468,712,o),
(390,712,cs),
(245,712,o),
(131,666,o),
(86,495,cs),
(63,407,o),
(48,281,o),
(48,212,cs),
(48,82,o),
(139,-14,o),
(291,-12,cs)
);
}
);
width = 578;
},
{
anchors = (
{
name = bottom;
pos = (281,0);
},
{
name = top;
pos = (281,700);
}
);
layerId = "3DBDB2C8-AF6E-4CF3-B71C-7D596AD599C8";
metricLeft = "=O";
shapes = (
{
closed = 1;
nodes = (
(358,-12,o),
(411,6,o),
(466,41,c),
(513,389,l),
(309,389,l),
(298,311,l),
(419,311,l),
(386,85,l),
(366,73,o),
(322,66,o),
(283,66,cs),
(189,66,o),
(142,117,o),
(139,194,cs),
(136,267,o),
(159,385,o),
(176,471,cs),
(203,608,o),
(281,634,o),
(375,634,cs),
(436,634,o),
(474,619,o),
(514,581,c),
(547,649,l),
(508,688,o),
(449,712,o),
(377,712,cs),
(244,712,o),
(145,672,o),
(103,500,cs),
(82,413,o),
(59,274,o),
(59,194,cs),
(59,75,o),
(143,-12,o),
(280,-12,cs)
);
}
);
width = 545;
}
);
metricLeft = O;
metricRight = I;
userData = {
com.schriftgestaltung.Glyphs.layer.leftMetricsKey = "==O";
com.schriftgestaltung.Glyphs.leftMetricsKey = O;
};
},
{
color = 6;
glyphname = I.ss01;
kernLeft = H;
kernRight = H;
lastChange = "2022-04-28 13:53:09 +0000";
layers = (
{
anchors = (
{
name = bottom;
pos = (114,0);
},
{
name = ogonek;
pos = (236,10);
},
{
name = top;
pos = (213,700);
},
{
name = topleft;
pos = (83,700);
}
);
layerId = "6B2E1CAF-7E84-411F-9290-838331FE9C95";
metricLeft = "=H";
metricRight = "=H";
shapes = (
{
closed = 1;
nodes = (
(194,0,l),
(293,700,l),
(133,700,l),
(34,0,l)
);
}
);
width = 300;
},
{
anchors = (
{
name = bottom;
pos = (97,0);
},
{
name = ogonek;
pos = (203,10);
},
{
name = top;
pos = (191,670);
},
{
name = topleft;
pos = (83,700);
}
);
layerId = "3DBDB2C8-AF6E-4CF3-B71C-7D596AD599C8";
metricLeft = "=H";
metricRight = "=H";
shapes = (
{
closed = 1;
nodes = (
(138,0,l),
(236,700,l),
(153,700,l),
(55,0,l)
);
}
);
width = 263;
}
);
metricLeft = H;
metricRight = H;
userData = {
com.schriftgestaltung.Glyphs.layer.leftMetricsKey = "==H";
com.schriftgestaltung.Glyphs.layer.rightMetricsKey = "==H";
com.schriftgestaltung.Glyphs.leftMetricsKey = H;
com.schriftgestaltung.Glyphs.rightMetricsKey = h;
};
},
{
color = 6;
glyphname = J.ss01;
kernLeft = J.ss01;
kernRight = J.ss01;
lastChange = "2022-04-28 13:53:09 +0000";
layers = (
{
anchors = (
{
name = bottom;
pos = (107,0);
},
{
name = top;
pos = (283,700);
}
);
layerId = "6B2E1CAF-7E84-411F-9290-838331FE9C95";
metricRight = "=U";
shapes = (
{
closed = 1;
nodes = (
(229,-12,o),
(284,96,o),
(297,190,cs),
(369,700,l),
(209,700,l),
(138,198,ls),
(134,166,o),
(118,130,o),
(58,130,cs),
(34,130,o),
(10,133,o),
(-13,142,c),
(-34,2,l),
(-12,-6,o),
(19,-12,o),
(51,-12,cs)
);
}
);
width = 366;
},
{
anchors = (
{
name = bottom;
pos = (99,0);
},
{
name = top;
pos = (258,670);
}
);
layerId = "3DBDB2C8-AF6E-4CF3-B71C-7D596AD599C8";
metricRight = "=U";
shapes = (
{
closed = 1;
nodes = (
(148,-12,o),
(215,44,o),
(228,136,cs),
(307,700,l),
(225,700,l),
(147,140,ls),
(140,93,o),
(105,61,o),
(59,61,cs),
(29,61,o),
(-2,68,o),
(-21,79,c),
(-31,12,l),
(-8,-2,o),
(24,-12,o),
(55,-12,cs)
);
}
);
width = 329;
}
);
metricRight = U;
userData = {
com.schriftgestaltung.Glyphs.layer.rightMetricsKey = "==U";
com.schriftgestaltung.Glyphs.rightMetricsKey = U;
};
},
{
color = 6;
glyphname = Z.ss01;
kernLeft = Z.ss01;
kernRight = Z.ss01;
lastChange = "2022-04-28 13:53:09 +0000";
layers = (
{
anchors = (
{
name = bottom;
pos = (264,0);
},
{
name = top;
pos = (264,700);
}
);
layerId = "6B2E1CAF-7E84-411F-9290-838331FE9C95";
metricLeft = "=Z";
metricRight = "=Z";
shapes = (
{
closed = 1;
nodes = (
(466,0,l),
(486,140,l),
(217,140,ls),
(209,140,o),
(207,149,o),
(213,156,cs),
(293,245,l),
(550,602,l),
(563,700,l),
(99,700,l),
(80,570,l),
(354,570,ls),
(361,570,o),
(364,563,o),
(358,556,cs),
(270,457,l),
(13,98,l),
(0,0,l)
);
}
);
width = 537;
},
{
anchors = (
{
name = bottom;
pos = (254,0);
},
{
name = top;
pos = (254,670);
}
);
layerId = "3DBDB2C8-AF6E-4CF3-B71C-7D596AD599C8";
metricLeft = "=Z";
metricRight = "=Z";
shapes = (
{
closed = 1;
nodes = (
(427,0,l),
(438,78,l),
(133,78,ls),
(128,78,o),
(126,85,o),
(131,91,cs),
(187,160,l),
(518,652,l),
(524,700,l),
(119,700,l),
(109,630,l),
(408,630,l),
(415,630,o),
(416,622,o),
(412,618,cs),
(361,558,l),
(17,48,l),
(11,0,l)
);
}
);
width = 507;
}
);
metricLeft = Z;
metricRight = Z;
userData = {
com.schriftgestaltung.Glyphs.layer.leftMetricsKey = "==Z";
com.schriftgestaltung.Glyphs.layer.rightMetricsKey = "==Z";
com.schriftgestaltung.Glyphs.leftMetricsKey = Z;
com.schriftgestaltung.Glyphs.rightMetricsKey = Z;
};
},
{
color = 6;
glyphname = a;
kernLeft = o;
kernRight = a;
lastChange = "2022-04-28 13:53:09 +0000";
layers = (
{
anchors = (
{
name = bottom;
pos = (246,0);
},
{
name = ogonek;
pos = (448,13);
},
{
name = top;
pos = (318,510);
}
);
background = {
shapes = (
{
closed = 1;
nodes = (
(511,112,l),
(449,143,l),
(499,514,l),
(398,503,ls),
(391,502,o),
(387,502,o),
(382,504,cs),
(346,517,l),
(323,520,o),
(309,521,o),
(294,521,cs),
(196,521,o),
(121,475,o),
(72,387,cs),
(42,327,o),
(28,249,o),
(28,175,cs),
(28,35,o),
(127,-9,o),
(207,-9,cs),
(247,-9,o),
(264,-2,o),
(314,17,c),
(332,37,ls),
(335,41,o),
(341,41,o),
(346,39,cs),
(525,-49,l),
(406,-87,l)
);
},
{
closed = 1;
nodes = (
(166,249,o),
(174,299,o),
(195,342,cs),
(214,380,o),
(253,398,o),
(294,398,cs),
(308,398,o),
(321,397,o),
(339,394,c),
(305,149,l),
(265,129,o),
(247,122,o),
(230,122,cs),
(192,122,o),
(166,144,o),
(166,190,cs)
);
}
);
};
guides = (
{
pos = (551,-263);
}
);
layerId = "6B2E1CAF-7E84-411F-9290-838331FE9C95";
shapes = (
{
closed = 1;
nodes = (
(247,-9,o),
(264,-2,o),
(314,17,c),
(332,37,ls),
(335,41,o),
(341,41,o),
(346,39,cs),
(446,-10,l),
(511,112,l),
(449,143,l),
(499,514,l),
(398,503,ls),
(391,502,o),
(387,502,o),
(382,504,cs),
(346,517,l),
(323,520,o),
(309,521,o),
(294,521,cs),
(196,521,o),
(121,475,o),
(72,387,cs),
(42,327,o),
(28,249,o),
(28,175,cs),
(28,35,o),
(127,-9,o),
(207,-9,cs)
);
},
{
closed = 1;
nodes = (
(192,122,o),
(166,144,o),
(166,190,cs),
(166,249,o),
(174,299,o),
(195,342,cs),
(214,380,o),
(253,398,o),
(294,398,cs),
(308,398,o),
(321,397,o),
(339,394,c),
(305,149,l),
(265,129,o),
(247,122,o),
(230,122,cs)
);
}
);
width = 552;
},
{
anchors = (
{
name = bottom;
pos = (225,0);
},
{
name = ogonek;
pos = (438,0);
},
{
name = top;
pos = (325,500);
}
);
background = {
shapes = (
{
angle = 180;
pos = (520,500);
ref = n;
},
{
pos = (-2,0);
ref = o;
}
);
};
guides = (
{
pos = (505,-247);
}
);
layerId = "3DBDB2C8-AF6E-4CF3-B71C-7D596AD599C8";
shapes = (
{
closed = 1;
nodes = (
(231,-10,o),
(249,-5,o),
(303,26,c),
(317,41,ls),
(320,45,o),
(326,46,o),
(331,43,cs),
(437,-10,l),
(470,60,l),
(412,88,l),
(470,504,l),
(413,498,ls),
(406,497,o),
(402,497,o),
(397,498,cs),
(359,507,l),
(341,509,o),
(326,510,o),
(306,510,cs),
(212,510,o),
(135,456,o),
(95,375,cs),
(63,310,o),
(48,235,o),
(48,158,cs),
(48,19,o),
(137,-10,o),
(201,-10,cs)
);
},
{
closed = 1;
nodes = (
(167,63,o),
(124,84,o),
(124,153,cs),
(124,233,o),
(136,288,o),
(157,338,cs),
(182,397,o),
(236,440,o),
(312,440,cs),
(333,440,o),
(352,437,o),
(380,430,c),
(337,120,l),
(255,69,o),
(239,63,o),
(212,63,cs)
);
}
);
width = 542;
}
);
metricLeft = o;
unicode = 97;
userData = {
com.schriftgestaltung.Glyphs.ColorIndex = 3;
com.typemytype.robofont.layerData = {
background = {
anchors = (
);
components = (
{
baseGlyph = n;
transformation = (
1,
0,
0,
1,
-5,
0
);
}
);
contours = (
);
lib = {
};
name = a;
unicodes = (
);
width = 491;
};
};
};
},
{
color = 3;
glyphname = aogonek;
lastChange = "2022-04-28 13:53:09 +0000";
layers = (
{
layerId = "3DBDB2C8-AF6E-4CF3-B71C-7D596AD599C8";
shapes = (
{
ref = a;
},
{
closed = 1;
nodes = (
(451,-185,l),
(389,-175,o),
(356,-156,o),
(364,-96,cs),
(370,-53,o),
(400,-20,o),
(438,0,c),
(371,22,l),
(324,-3,o),
(298,-45,o),
(292,-90,cs),
(278,-188,o),
(333,-238,o),
(432,-247,c)
);
}
);
width = 542;
},
{
layerId = "6B2E1CAF-7E84-411F-9290-838331FE9C95";
shapes = (
{
ref = a;
},
{
closed = 1;
nodes = (
(468,-154,l),
(393,-153,o),
(354,-138,o),
(361,-79,cs),
(365,-45,o),
(388,-19,o),
(446,-10,c),
(344,44,l),
(281,20,o),
(245,-22,o),
(237,-80,cs),
(220,-210,o),
(311,-259,o),
(445,-260,c)
);
}
);
width = 552;
}
);
unicode = 261;
},
{
color = 6;
glyphname = ae;
kernLeft = a;
kernRight = e;
lastChange = "2022-04-28 13:53:09 +0000";
layers = (
{
anchors = (
{
name = bottom;
pos = (350,0);
},
{
name = top;
pos = (422,510);
}
);
background = {
shapes = (
{
closed = 1;
nodes = (
(228,-9,o),
(238,-5,o),
(314,28,c),
(330,49,ls),
(338,59,o),
(342,57,o),
(349,50,cs),
(379,18,o),
(433,-9,o),
(499,-9,cs),
(595,-9,o),
(670,34,o),
(715,108,c),
(606,162,l),
(571,122,o),
(550,108,o),
(510,108,cs),
(468,108,o),
(428,135,o),
(437,203,cs),
(448,289,ls),
(456,354,o),
(488,403,o),
(549,403,cs),
(641,403,o),
(608,326,o),
(617,284,c),
(681,325,l),
(210,295,ls),
(110,289,o),
(32,247,o),
(18,151,cs),
(5,60,o),
(73,-9,o),
(181,-9,cs)
);
},
{
closed = 1;
nodes = (
(169,98,o),
(145,120,o),
(150,151,cs),
(153,173,o),
(173,192,o),
(213,195,cs),
(710,226,l),
(738,274,l),
(759,426,o),
(702,520,o),
(544,520,cs),
(518,520,o),
(479,515,o),
(435,491,c),
(414,466,ls),
(408,458,o),
(401,458,o),
(395,466,cs),
(376,491,l),
(344,511,o),
(299,522,o),
(248,522,cs),
(185,522,o),
(123,505,o),
(67,475,c),
(99,359,l),
(142,383,o),
(186,401,o),
(235,401,cs),
(293,401,o),
(320,370,o),
(315,330,cs),
(291,135,l),
(249,114,o),
(224,98,o),
(194,98,cs)
);
}
);
};
layerId = "6B2E1CAF-7E84-411F-9290-838331FE9C95";
shapes = (
{
closed = 1;
nodes = (
(228,-9,o),
(238,-5,o),
(314,28,c),
(330,49,ls),
(338,59,o),
(342,57,o),
(349,50,cs),
(379,18,o),
(433,-9,o),
(499,-9,cs),
(595,-9,o),
(670,34,o),
(715,108,c),
(606,162,l),
(571,122,o),
(550,108,o),
(510,108,cs),
(468,108,o),
(428,135,o),
(437,203,cs),
(441,232,o),
(444,260,o),
(448,289,cs),
(456,354,o),
(488,403,o),
(549,403,cs),
(624,403,o),
(616,345,o),
(615,321,c),
(210,295,ls),
(110,289,o),
(32,247,o),
(18,151,cs),
(5,60,o),
(73,-9,o),
(181,-9,cs)
);
},
{
closed = 1;
nodes = (
(169,98,o),
(145,120,o),
(150,151,cs),
(153,173,o),
(173,193,o),
(213,195,cs),
(710,226,l),
(738,274,l),
(759,426,o),
(702,520,o),
(544,520,cs),
(518,520,o),
(479,515,o),
(435,491,c),
(414,466,ls),
(408,458,o),
(401,458,o),
(395,466,cs),
(376,491,l),
(344,511,o),
(299,522,o),
(248,522,cs),
(185,522,o),
(123,505,o),
(67,475,c),
(99,359,l),
(142,383,o),
(186,401,o),
(235,401,cs),
(293,401,o),
(320,370,o),
(315,330,cs),
(291,135,l),
(249,114,o),
(224,98,o),
(194,98,cs)
);
}
);
width = 771;
},
{
anchors = (
{
name = bottom;
pos = (343,0);
},
{
name = top;
pos = (413,500);
}
);
layerId = "3DBDB2C8-AF6E-4CF3-B71C-7D596AD599C8";
shapes = (
{
closed = 1;
nodes = (
(230,-11,o),
(245,-6,o),
(319,28,c),
(343,48,ls),
(350,54,o),
(358,57,o),
(365,49,cs),
(400,12,o),
(442,-10,o),
(501,-10,cs),
(556,-10,o),
(613,13,o),
(679,91,c),
(619,120,l),
(571,74,o),
(548,60,o),
(505,60,cs),
(438,60,o),
(406,107,o),
(406,191,cs),
(406,212,o),
(410,236,o),
(418,282,cs),
(437,389,o),
(503,440,o),
(565,440,cs),
(631,440,o),
(662,388,o),
(643,298,c),
(215,266,ls),
(118,259,o),
(51,221,o),
(39,135,cs),
(27,48,o),
(80,-11,o),
(178,-11,cs)
);
},
{
closed = 1;
nodes = (
(141,58,o),
(112,88,o),
(118,128,cs),
(124,174,o),
(162,198,o),
(215,202,cs),
(688,237,l),
(716,277,l),
(741,396,o),
(712,510,o),
(565,510,cs),
(523,510,o),
(481,492,o),
(447,471,c),
(422,444,ls),
(414,435,o),
(406,437,o),
(401,446,cs),
(387,473,l),
(359,498,o),
(314,512,o),
(258,512,cs),
(204,512,o),
(153,499,o),
(97,460,c),
(116,388,l),
(163,421,o),
(203,439,o),
(252,439,cs),
(331,439,o),
(358,401,o),
(348,328,cs),
(316,103,l),
(257,76,o),
(231,58,o),
(183,58,cs)
);
}
);
width = 755;
}
);
metricLeft = a;
metricRight = e;
unicode = 230;
userData = {
com.schriftgestaltung.Glyphs.leftMetricsKey = a;
com.schriftgestaltung.Glyphs.rightMetricsKey = e;
};
},
{
color = 6;
glyphname = b;
kernLeft = b;
kernRight = o;
lastChange = "2022-04-28 13:53:09 +0000";
layers = (
{
anchors = (
{
name = bottom;
pos = (227,0);
},
{
name = top;
pos = (299,510);
}
);
background = {
shapes = (
{
pos = (-44,0);
ref = o;
}
);
};
layerId = "6B2E1CAF-7E84-411F-9290-838331FE9C95";
metricRight = "=o";
shapes = (
{
closed = 1;
nodes = (
(340,-12,o),
(413,35,o),
(460,123,cs),
(490,183,o),
(504,261,o),
(504,335,cs),
(504,475,o),
(408,519,o),
(325,519,cs),
(320,519,o),
(316,518,o),
(311,517,c),
(258,488,ls),
(250,484,o),
(245,488,o),
(246,496,cs),
(281,750,l),
(136,750,l),
(33,-4,l),
(134,7,ls),
(141,8,o),
(144,8,o),
(150,6,cs),
(186,-7,l),
(210,-11,o),
(224,-12,o),
(244,-12,cs)
);
},
{
closed = 1;
nodes = (
(224,112,o),
(211,113,o),
(193,116,c),
(227,361,l),
(256,380,o),
(277,388,o),
(302,388,cs),
(338,388,o),
(366,368,o),
(366,323,cs),
(366,261,o),
(357,211,o),
(336,167,cs),
(319,130,o),
(279,112,o),
(238,112,cs)
);
}
);
width = 532;
},
{
anchors = (
{
name = bottom;
pos = (225,0);
},
{
name = top;
pos = (295,500);
}
);
background = {
shapes = (
{
pos = (4,0);
ref = o;
},
{
ref = p;
}
);
};
layerId = "3DBDB2C8-AF6E-4CF3-B71C-7D596AD599C8";
shapes = (
{
closed = 1;
nodes = (
(308,-10,o),
(385,44,o),
(425,125,cs),
(457,190,o),
(472,265,o),
(472,347,cs),
(472,460,o),
(409,510,o),
(323,510,cs),
(309,510,o),
(293,508,o),
(279,504,c),
(211,467,ls),
(200,461,o),
(192,465,o),
(194,478,cs),
(230,750,l),
(155,750,l),
(50,-4,l),
(107,2,l),
(114,3,o),
(118,3,o),
(123,2,c),
(161,-7,l),
(176,-9,o),
(192,-10,o),
(214,-10,cs)
);
},
{
closed = 1;
nodes = (
(182,60,o),
(164,63,o),
(139,70,c),
(182,382,l),
(242,423,o),
(278,437,o),
(313,437,cs),
(346,437,o),
(396,419,o),
(396,338,cs),
(396,267,o),
(384,212,o),
(363,162,cs),
(334,98,o),
(280,60,o),
(208,60,cs)
);
}
);
width = 519;
}
);
metricLeft = h;
metricRight = o;
unicode = 98;
userData = {
com.schriftgestaltung.Glyphs.ColorIndex = 3;
com.schriftgestaltung.Glyphs.layer.leftMetricsKey = "==h-45";
com.schriftgestaltung.Glyphs.layer.rightMetricsKey = "==o";
com.schriftgestaltung.Glyphs.leftMetricsKey = "=h-45";
com.typemytype.robofont.layerData = {
background = {
anchors = (
);
components = (
{
baseGlyph = a;
transformation = (
-1,
0,
0,
1,
491,
0
);
}
);
contours = (
);
lib = {
};
name = b;
unicodes = (
);
width = 527;
};
};
};
},
{
color = 6;
glyphname = c;
kernLeft = o;
kernRight = c;
lastChange = "2022-04-28 13:53:09 +0000";
layers = (
{
anchors = (
{
name = bottom;
pos = (206,0);
},
{
name = top;
pos = (276,500);
}
);
background = {
shapes = (
{
pos = (20,0);
ref = s;
}
);
};
layerId = "6B2E1CAF-7E84-411F-9290-838331FE9C95";
metricLeft = "=o";
shapes = (
{
closed = 1;
nodes = (
(301,-10,o),
(372,18,o),
(414,108,c),
(314,162,l),
(295,125,o),
(266,108,o),
(242,108,cs),
(198,108,o),
(162,137,o),
(165,191,cs),
(167,233,o),
(172,267,o),
(179,297,cs),
(197,359,o),
(235,400,o),
(306,400,cs),
(343,400,o),
(380,388,o),
(405,374,c),
(447,482,l),
(403,506,o),
(359,520,o),
(285,520,cs),
(167,520,o),
(82,456,o),
(48,327,cs),
(36,283,o),
(28,238,o),
(28,192,cs),
(28,73,o),
(101,-10,o),
(231,-10,cs)
);
}
);
width = 460;
},
{
anchors = (
{
name = bottom;
pos = (219,0);
},
{
name = top;
pos = (289,500);
}
);
background = {
shapes = (
{
pos = (-1,0);
ref = e;
},
{
pos = (-1,0);
ref = o;
},
{
pos = (9,0);
ref = s;
}
);
};
layerId = "3DBDB2C8-AF6E-4CF3-B71C-7D596AD599C8";
metricLeft = "=o";
shapes = (
{
closed = 1;
nodes = (
(275,-10,o),
(332,8,o),
(404,91,c),
(344,120,l),
(286,70,o),
(263,60,o),
(228,60,cs),
(154,60,o),
(125,120,o),
(125,186,cs),
(125,224,o),
(130,259,o),
(142,303,cs),
(164,382,o),
(212,438,o),
(287,438,cs),
(333,438,o),
(365,424,o),
(403,401,c),
(432,464,l),
(389,492,o),
(346,510,o),
(289,510,cs),
(181,510,o),
(101,429,o),
(71,325,cs),
(56,270,o),
(49,219,o),
(49,168,cs),
(46,76,o),
(110,-10,o),
(223,-10,cs)
);
}
);
width = 450;
}
);
metricLeft = o;
unicode = 99;
userData = {
com.schriftgestaltung.Glyphs.ColorIndex = 3;
com.schriftgestaltung.Glyphs.layer.leftMetricsKey = "==o";
com.schriftgestaltung.Glyphs.leftMetricsKey = o;
};
},
{
color = 3;
glyphname = d;
kernLeft = o;
kernRight = l;
lastChange = "2022-04-28 13:53:09 +0000";
layers = (
{
anchors = (
{
name = bottom;
pos = (242,0);
},
{
name = center;
pos = (452,614);
},
{
name = top;
pos = (314,510);
},
{
name = topright;
pos = (546,750);
}
);
layerId = "6B2E1CAF-7E84-411F-9290-838331FE9C95";
metricLeft = "=o";
shapes = (
{
closed = 1;
nodes = (
(488,433,l),
(533,750,l),
(387,750,l),
(342,433,l)
);
},
{
ref = a;
}
);
width = 552;
},
{
anchors = (
{
name = bottom;
pos = (232,0);
},
{
name = center;
pos = (455,611);
},
{
name = top;
pos = (302,500);
},
{
name = topright;
pos = (529,750);
}
);
layerId = "3DBDB2C8-AF6E-4CF3-B71C-7D596AD599C8";
metricLeft = "=o";
shapes = (
{
closed = 1;
nodes = (
(470,504,l),
(505,750,l),
(425,750,l),
(384,470,l)
);
},
{
ref = a;
}
);
width = 542;
}
);
metricRight = a;
unicode = 100;
userData = {
com.schriftgestaltung.Glyphs.ColorIndex = 3;
com.schriftgestaltung.Glyphs.layer.leftMetricsKey = "==o";
com.schriftgestaltung.Glyphs.layer.rightMetricsKey = "==i";
com.schriftgestaltung.Glyphs.rightMetricsKey = l;
};
},
{
color = 6;
glyphname = eth;
kernLeft = eth;
kernRight = eth;
lastChange = "2022-04-28 13:53:09 +0000";
layers = (
{
layerId = "6B2E1CAF-7E84-411F-9290-838331FE9C95";
shapes = (
{
closed = 1;
nodes = (
(356,-12,o),
(434,57,o),
(463,153,cs),
(496,256,o),
(501,342,o),
(501,416,cs),
(501,493,o),
(481,557,o),
(448,608,cs),
(411,666,o),
(368,711,o),
(323,750,c),
(149,750,l),
(218,695,o),
(276,640,o),
(313,593,cs),
(340,558,o),
(367,523,o),
(367,503,cs),
(367,489,o),
(358,485,o),
(346,493,cs),
(329,505,l),
(315,515,o),
(291,522,o),
(278,522,cs),
(160,522,o),
(84,453,o),
(55,358,cs),
(39,307,o),
(28,240,o),
(28,187,cs),
(28,89,o),
(92,-12,o),
(230,-12,cs)
);
},
{
closed = 1;
nodes = (
(192,109,o),
(168,143,o),
(168,196,cs),
(168,241,o),
(179,302,o),
(189,329,cs),
(203,370,o),
(233,401,o),
(276,401,cs),
(324,401,o),
(351,366,o),
(351,315,cs),
(351,275,o),
(340,210,o),
(329,182,cs),
(314,139,o),
(283,109,o),
(240,109,cs)
);
},
{
closed = 1;
nodes = (
(525,632,l),
(500,734,l),
(122,638,l),
(147,544,l)
);
}
);
width = 522;
},
{
layerId = "3DBDB2C8-AF6E-4CF3-B71C-7D596AD599C8";
shapes = (
{
closed = 1;
nodes = (
(316,-11,o),
(392,40,o),
(427,131,cs),
(453,196,o),
(472,311,o),
(472,410,cs),
(472,522,o),
(449,597,o),
(418,651,cs),
(389,698,o),
(354,728,o),
(322,750,c),
(210,750,l),
(258,722,o),
(304,677,o),
(339,625,cs),
(373,574,o),
(396,516,o),
(396,462,cs),
(396,448,o),
(385,446,o),
(379,453,cs),
(346,501,l),
(330,508,o),
(311,511,o),
(286,511,cs),
(194,511,o),
(118,460,o),
(83,369,cs),
(63,317,o),
(50,232,o),
(50,173,cs),
(50,79,o),
(105,-11,o),
(223,-11,cs)
);
},
{
closed = 1;
nodes = (
(155,60,o),
(126,116,o),
(126,177,cs),
(126,230,o),
(137,304,o),
(154,345,cs),
(178,406,o),
(216,440,o),
(281,440,cs),
(355,440,o),
(386,384,o),
(386,323,cs),
(386,274,o),
(375,193,o),
(358,155,cs),
(331,95,o),
(294,60,o),
(228,60,cs)
);
},
{
closed = 1;
nodes = (
(541,657,l),
(523,718,l),
(159,613,l),
(177,551,l)
);
}
);
width = 539;
}
);
metricLeft = o;
metricRight = o;
unicode = 240;
userData = {
com.schriftgestaltung.Glyphs.leftMetricsKey = six;
com.schriftgestaltung.Glyphs.rightMetricsKey = six;
};
},
{
color = 6;
glyphname = e;
kernLeft = o;
kernRight = e;
lastChange = "2022-04-28 13:53:09 +0000";
layers = (
{
anchors = (
{
name = bottom;
pos = (212,0);
},
{
name = ogonek;
pos = (337,10);
},
{
name = top;
pos = (287,510);
}
);
background = {
shapes = (
{
pos = (-2,0);
ref = o;
}
);
};
layerId = "6B2E1CAF-7E84-411F-9290-838331FE9C95";
shapes = (
{
closed = 1;
nodes = (
(312,-10,o),
(394,18,o),
(443,108,c),
(334,162,l),
(310,125,o),
(273,108,o),
(242,108,cs),
(198,108,o),
(162,137,o),
(165,191,cs),
(167,233,o),
(172,267,o),
(179,297,cs),
(194,362,o),
(224,405,o),
(282,405,cs),
(334,405,o),
(361,373,o),
(347,317,c),
(151,317,l),
(139,218,l),
(438,218,l),
(472,288,l),
(492,419,o),
(434,520,o),
(284,520,cs),
(160,520,o),
(82,457,o),
(48,327,cs),
(36,283,o),
(28,238,o),
(28,192,cs),
(28,73,o),
(101,-10,o),
(231,-10,cs)
);
}
);
width = 502;
},
{
anchors = (
{
name = bottom;
pos = (209,0);
},
{
name = ogonek;
pos = (285,0);
},
{
name = top;
pos = (284,500);
}
);
background = {
shapes = (
{
ref = o;
}
);
};
guides = (
{
pos = (505,-247);
}
);
layerId = "3DBDB2C8-AF6E-4CF3-B71C-7D596AD599C8";
metricLeft = "=o";
shapes = (
{
closed = 1;
nodes = (
(282,-10,o),
(339,13,o),
(405,91,c),
(345,120,l),
(297,74,o),
(274,60,o),
(231,60,cs),
(161,60,o),
(122,107,o),
(125,191,cs),
(126,237,o),
(130,254,o),
(136,282,cs),
(159,389,o),
(227,440,o),
(291,440,cs),
(357,440,o),
(388,393,o),
(369,303,c),
(121,303,l),
(112,233,l),
(414,233,l),
(442,273,l),
(466,392,o),
(438,510,o),
(292,510,cs),
(191,510,o),
(98,436,o),
(67,312,cs),
(59,281,o),
(50,230,o),
(50,167,cs),
(50,74,o),
(108,-10,o),
(227,-10,cs)
);
}
);
width = 482;
}
);
metricLeft = o;
unicode = 101;
userData = {
com.schriftgestaltung.Glyphs.ColorIndex = 3;
com.schriftgestaltung.Glyphs.layer.leftMetricsKey = "==o";
com.schriftgestaltung.Glyphs.leftMetricsKey = o;
};
},
{
color = 3;
glyphname = eogonek;
lastChange = "2022-04-28 13:53:09 +0000";
layers = (
{
anchors = (
{
name = _ogonek;
pos = (285,0);
}
);
layerId = "3DBDB2C8-AF6E-4CF3-B71C-7D596AD599C8";
shapes = (
{
ref = e;
},
{
closed = 1;
nodes = (
(298,-185,l),
(236,-175,o),
(203,-156,o),
(211,-96,cs),
(217,-53,o),
(247,-20,o),
(285,0,c),
(218,22,l),
(171,-3,o),
(145,-45,o),
(139,-90,cs),
(125,-188,o),
(180,-238,o),
(279,-247,c)
);
}
);
width = 482;
},
{
anchors = (
{
name = _ogonek;
pos = (337,10);
}
);
layerId = "6B2E1CAF-7E84-411F-9290-838331FE9C95";
shapes = (
{
ref = e;
},
{
closed = 1;
nodes = (
(357,-157,l),
(282,-156,o),
(243,-142,o),
(249,-88,cs),
(254,-41,o),
(281,-18,o),
(337,10,c),
(233,41,l),
(170,17,o),
(134,-25,o),
(126,-83,cs),
(109,-213,o),
(200,-262,o),
(334,-263,c)
);
}
);
width = 502;
}
);
unicode = 281;
},
{
color = 6;
glyphname = ezh;
lastChange = "2022-04-28 13:53:09 +0000";
layers = (
{
anchors = (
{
name = bottom;
pos = (211,0);
},
{
name = top;
pos = (283,510);
}
);
layerId = "6B2E1CAF-7E84-411F-9290-838331FE9C95";
shapes = (
{
closed = 1;
nodes = (
(311,-260,o),
(441,-129,o),
(441,45,cs),
(441,177,o),
(304,251,o),
(219,244,c),
(225,184,l),
(455,412,l),
(468,510,l),
(51,510,l),
(33,380,l),
(257,380,ls),
(265,380,o),
(270,369,o),
(260,363,cs),
(214,335,l),
(97,202,l),
(86,112,l),
(186,112,ls),
(266,112,o),
(293,74,o),
(292,24,cs),
(292,-65,o),
(214,-123,o),
(129,-123,cs),
(78,-123,o),
(36,-113,o),
(-7,-72,c),
(-65,-183,l),
(-10,-240,o),
(50,-260,o),
(135,-260,cs)
);
}
);
width = 514;
},
{
anchors = (
{
name = bottom;
pos = (184,0);
},
{
name = top;
pos = (254,500);
}
);
layerId = "3DBDB2C8-AF6E-4CF3-B71C-7D596AD599C8";
shapes = (
{
closed = 1;
nodes = (
(280,-256,o),
(392,-149,o),
(392,19,cs),
(392,151,o),
(286,217,o),
(138,207,c),
(185,185,l),
(433,452,l),
(439,500,l),
(50,500,l),
(40,430,l),
(312,430,ls),
(323,430,o),
(323,418,o),
(316,413,cs),
(264,371,l),
(87,180,l),
(82,134,l),
(143,134,ls),
(263,134,o),
(312,90,o),
(310,10,cs),
(310,-98,o),
(238,-179,o),
(121,-179,cs),
(61,-179,o),
(2,-154,o),
(-34,-116,c),
(-70,-182,l),
(-19,-230,o),
(40,-256,o),
(120,-256,cs)
);
}
);
width = 478;
}
);
unicode = 658;
},
{
color = 6;
glyphname = f;
kernLeft = f;
kernRight = f;
lastChange = "2022-04-28 13:53:09 +0000";
layers = (
{
anchors = (
{
name = bottom;
pos = (153,0);
},
{
name = top;
pos = (225,510);
}
);
background = {
shapes = (
{
pos = (99,231);
ref = s;
}
);
};
layerId = "6B2E1CAF-7E84-411F-9290-838331FE9C95";
shapes = (
{
closed = 1;
nodes = (
(210,0,l),
(264,386,l),
(368,386,l),
(387,510,l),
(282,510,l),
(287,553,ls),
(293,604,o),
(323,632,o),
(384,632,cs),
(404,632,o),
(432,628,o),
(455,617,c),
(496,726,l),
(470,742,o),
(429,753,o),
(380,753,cs),
(249,753,o),
(157,688,o),
(140,570,cs),
(132,510,l),
(47,510,l),
(28,386,l),
(114,386,l),
(60,0,l)
);
}
);
width = 403;
},
{
anchors = (
{
name = bottom;
pos = (118,0);
},
{
name = top;
pos = (188,500);
}
);
background = {
shapes = (
{
pos = (70,242);
ref = s;
}
);
};
layerId = "3DBDB2C8-AF6E-4CF3-B71C-7D596AD599C8";
shapes = (
{
closed = 1;
nodes = (
(144,0,l),
(204,430,l),
(335,430,l),
(345,500,l),
(214,500,l),
(223,563,ls),
(232,640,o),
(279,681,o),
(342,681,cs),
(368,681,o),
(391,677,o),
(420,666,c),
(446,730,l),
(409,747,o),
(380,753,o),
(345,753,cs),
(221,753,o),
(161,676,o),
(149,584,cs),
(137,500,l),
(35,500,l),
(25,430,l),
(127,430,l),
(67,0,l)
);
}
);
width = 345;
}
);
unicode = 102;
userData = {
com.schriftgestaltung.Glyphs.ColorIndex = 3;
};
},
{
color = 6;
glyphname = g;
kernLeft = o;
kernRight = g;
lastChange = "2022-04-28 13:53:09 +0000";
layers = (
{
anchors = (
{
name = bottom;
pos = (237,0);
},
{
name = top;
pos = (309,510);
}
);
background = {
shapes = (
{
closed = 1;
nodes = (
(292,-208,o),
(406,-158,o),
(434,43,cs),
(506,564,l),
(517,516,l),
(398,503,ls),
(391,502,o),
(387,502,o),
(382,504,cs),
(346,517,l),
(323,520,o),
(309,521,o),
(294,521,cs),
(196,521,o),
(121,475,o),
(72,387,cs),
(42,333,o),
(28,244,o),
(28,175,cs),
(28,31,o),
(120,-9,o),
(207,-9,c),
(268,10,ls),
(278,13,o),
(285,8,o),
(283,-2,cs),
(280,-19,ls),
(273,-58,o),
(229,-86,o),
(164,-86,cs),
(107,-86,o),
(69,-75,o),
(18,-42,c),
(-24,-150,l),
(28,-188,o),
(88,-208,o),
(176,-208,cs)
);
},
{
closed = 1;
nodes = (
(202,122,o),
(166,130,o),
(166,198,cs),
(166,247,o),
(172,296,o),
(195,342,cs),
(214,380,o),
(253,398,o),
(294,398,cs),
(323,398,o),
(348,395,o),
(417,371,c),
(345,436,l),
(301,122,l),
(330,167,l),
(287,135,o),
(262,122,o),
(230,122,cs)
);
}
);
};
layerId = "6B2E1CAF-7E84-411F-9290-838331FE9C95";
shapes = (
{
closed = 1;
nodes = (
(292,-208,o),
(406,-158,o),
(434,43,cs),
(499,514,l),
(398,503,ls),
(391,502,o),
(387,502,o),
(382,504,cs),
(346,517,l),
(323,520,o),
(309,521,o),
(294,521,cs),
(196,521,o),
(121,475,o),
(72,387,cs),
(42,333,o),
(28,244,o),
(28,175,cs),
(28,39,o),
(110,-4,o),
(192,-9,cs),
(197,-9,o),
(202,-9,o),
(207,-9,c),
(268,10,ls),
(278,13,o),
(285,8,o),
(283,-2,cs),
(280,-19,ls),
(273,-58,o),
(229,-86,o),
(164,-86,cs),
(107,-86,o),
(69,-75,o),
(18,-42,c),
(-24,-150,l),
(28,-188,o),
(88,-208,o),
(176,-208,cs)
);
},
{
closed = 1;
nodes = (
(202,122,o),
(166,130,o),
(166,198,cs),
(166,247,o),
(172,296,o),
(195,342,cs),
(214,380,o),
(253,398,o),
(294,398,cs),
(308,398,o),
(321,397,o),
(339,394,c),
(305,149,l),
(276,130,o),
(255,122,o),
(230,122,cs)
);
}
);
width = 524;
},
{
anchors = (
{
name = bottom;
pos = (225,0);
},
{
name = top;
pos = (295,500);
}
);
layerId = "3DBDB2C8-AF6E-4CF3-B71C-7D596AD599C8";
metricLeft = "=o";
shapes = (
{
closed = 1;
nodes = (
(273,-204,o),
(371,-142,o),
(396,17,cs),
(470,504,l),
(413,498,ls),
(406,497,o),
(402,497,o),
(397,498,cs),
(359,507,l),
(344,509,o),
(328,510,o),
(306,510,cs),
(212,510,o),
(135,456,o),
(95,375,cs),
(63,310,o),
(48,235,o),
(48,158,cs),
(48,16,o),
(134,-10,o),
(197,-10,cs),
(211,-10,o),
(227,-8,o),
(241,-4,c),
(309,33,ls),
(320,39,o),
(328,35,o),
(326,22,cs),
(320,-11,ls),
(305,-88,o),
(244,-134,o),
(166,-134,cs),
(105,-134,o),
(56,-112,o),
(25,-78,c),
(-1,-148,l),
(29,-178,o),
(91,-204,o),
(151,-204,cs)
);
},
{
closed = 1;
nodes = (
(168,63,o),
(124,77,o),
(124,153,cs),
(124,233,o),
(136,288,o),
(157,338,cs),
(186,402,o),
(240,440,o),
(312,440,cs),
(338,440,o),
(356,437,o),
(381,430,c),
(340,122,l),
(258,75,o),
(224,63,o),
(202,63,cs)
);
}
);
width = 514;
}
);
metricRight = n;
unicode = 103;
userData = {
com.schriftgestaltung.Glyphs.ColorIndex = 3;
com.schriftgestaltung.Glyphs.layer.leftMetricsKey = "==o";
com.schriftgestaltung.Glyphs.rightMetricsKey = n;
};
},
{
color = 6;
glyphname = gstroke;
lastChange = "2022-04-28 13:53:09 +0000";
layers = (
{
layerId = "6B2E1CAF-7E84-411F-9290-838331FE9C95";
shapes = (
{
closed = 1;
nodes = (
(291,-214,o),
(406,-164,o),
(421,-56,cs),
(498,514,l),
(397,503,ls),
(390,502,o),
(386,502,o),
(381,504,cs),
(345,517,l),
(322,520,o),
(308,521,o),
(293,521,cs),
(195,521,o),
(120,475,o),
(71,387,cs),
(41,333,o),
(34,252,o),
(34,212,cs),
(34,87,o),
(122,50,o),
(207,48,cs),
(209,48,o),
(211,48,o),
(213,48,c),
(274,67,ls),
(284,70,o),
(291,65,o),
(289,55,cs),
(273,-56,ls),
(271,-74,o),
(250,-92,o),
(163,-92,cs),
(106,-92,o),
(68,-81,o),
(17,-48,c),
(-25,-156,l),
(27,-194,o),
(87,-214,o),
(175,-214,cs)
);
},
{
closed = 1;
nodes = (
(515,-65,l),
(528,29,l),
(152,29,l),
(139,-65,l)
);
},
{
closed = 1;
nodes = (
(208,179,o),
(172,185,o),
(172,235,cs),
(172,259,o),
(178,310,o),
(194,342,cs),
(213,380,o),
(252,398,o),
(293,398,cs),
(307,398,o),
(320,397,o),
(338,394,c),
(311,206,l),
(282,187,o),
(261,179,o),
(236,179,cs)
);
}
);
width = 569;
},
{
layerId = "3DBDB2C8-AF6E-4CF3-B71C-7D596AD599C8";
shapes = (
{
closed = 1;
nodes = (
(312,-204,o),
(382,-84,o),
(402,50,cs),
(470,504,l),
(413,498,ls),
(406,497,o),
(402,497,o),
(397,498,cs),
(359,507,l),
(344,509,o),
(328,510,o),
(306,510,cs),
(212,510,o),
(135,456,o),
(95,375,cs),
(63,310,o),
(57,271,o),
(57,216,cs),
(57,74,o),
(143,48,o),
(206,48,cs),
(220,48,o),
(236,50,o),
(250,54,c),
(318,91,ls),
(329,97,o),
(337,93,o),
(335,80,cs),
(329,47,ls),
(311,-54,o),
(265,-134,o),
(166,-134,cs),
(105,-134,o),
(56,-112,o),
(25,-78,c),
(-1,-148,l),
(29,-178,o),
(91,-204,o),
(151,-204,cs)
);
},
{
closed = 1;
nodes = (
(499,-69,l),
(499,0,l),
(168,0,l),
(168,-69,l)
);
},
{
closed = 1;
nodes = (
(177,121,o),
(133,135,o),
(133,211,cs),
(133,250,o),
(136,288,o),
(157,338,cs),
(186,402,o),
(240,440,o),
(312,440,cs),
(338,440,o),
(356,437,o),
(381,430,c),
(349,180,l),
(267,133,o),
(233,121,o),
(211,121,cs)
);
}
);
width = 524;
}
);
unicode = 485;
},
{
color = 6;
glyphname = h;
kernLeft = h;
kernRight = n;
lastChange = "2022-04-28 13:53:09 +0000";
layers = (
{
anchors = (
{
name = bottom;
pos = (247,0);
},
{
name = center;
pos = (189,612);
},
{
name = top;
pos = (370,750);
}
);
background = {
shapes = (
{
pos = (1,0);
ref = n;
}
);
};
layerId = "6B2E1CAF-7E84-411F-9290-838331FE9C95";
shapes = (
{
closed = 1;
nodes = (
(452,0,l),
(501,345,ls),
(518,467,o),
(461,520,o),
(369,520,cs),
(316,520,o),
(282,512,o),
(228,474,c),
(219,358,l),
(252,377,o),
(278,389,o),
(308,389,cs),
(344,389,o),
(357,368,o),
(351,325,cs),
(306,0,l)
);
},
{
closed = 1;
nodes = (
(176,0,l),
(282,751,l),
(136,751,l),
(30,0,l)
);
}
);
width = 548;
},
{
anchors = (
{
name = bottom;
pos = (231,0);
},
{
name = center;
pos = (176,610);
},
{
name = top;
pos = (356,750);
}
);
background = {
shapes = (
{
ref = n;
}
);
};
layerId = "3DBDB2C8-AF6E-4CF3-B71C-7D596AD599C8";
metricRight = "=n";
shapes = (
{
closed = 1;
nodes = (
(422,0,l),
(468,349,ls),
(481,444,o),
(421,510,o),
(333,510,cs),
(273,510,o),
(245,496,o),
(174,451,c),
(169,378,l),
(252,429,o),
(283,437,o),
(322,437,cs),
(368,437,o),
(396,411,o),
(389,355,cs),
(342,0,l)
);
},
{
closed = 1;
nodes = (
(130,0,l),
(235,750,l),
(155,750,l),
(50,0,l)
);
}
);
width = 537;
}
);
unicode = 104;
userData = {
com.schriftgestaltung.Glyphs.ColorIndex = 3;
com.schriftgestaltung.Glyphs.layer.leftMetricsKey = "==n";
com.schriftgestaltung.Glyphs.layer.rightMetricsKey = "==n";
com.schriftgestaltung.Glyphs.leftMetricsKey = n;
com.schriftgestaltung.Glyphs.rightMetricsKey = n;
};
},
{
color = 6;
glyphname = i;
kernLeft = i;
kernRight = i;
lastChange = "2022-04-28 13:53:09 +0000";
layers = (
{
anchors = (
{
name = bottom;
pos = (134,0);
}
);
background = {
shapes = (
{
closed = 1;
nodes = (
(274,0,l),
(250,48,ls),
(233,83,o),
(229,111,o),
(234,148,cs),
(286,510,l),
(46,510,l),
(28,386,l),
(118,386,l),
(82,132,ls),
(77,95,o),
(80,68,o),
(95,32,cs),
(108,0,l)
);
},
{
closed = 1;
nodes = (
(295,578,l),
(313,700,l),
(163,700,l),
(145,578,l)
);
}
);
};
layerId = "6B2E1CAF-7E84-411F-9290-838331FE9C95";
shapes = (
{
closed = 1;
nodes = (
(214,0,l),
(286,510,l),
(46,510,l),
(28,386,l),
(118,386,l),
(64,0,l)
);
},
{
closed = 1;
nodes = (
(295,578,l),
(313,700,l),
(163,700,l),
(145,578,l)
);
}
);
width = 320;
},
{
anchors = (
{
name = bottom;
pos = (78,0);
}
);
layerId = "3DBDB2C8-AF6E-4CF3-B71C-7D596AD599C8";
shapes = (
{
closed = 1;
nodes = (
(135,0,l),
(205,500,l),
(55,500,l),
(45,430,l),
(115,430,l),
(55,0,l)
);
},
{
closed = 1;
nodes = (
(219,600,l),
(233,700,l),
(153,700,l),
(139,600,l)
);
}
);
width = 255;
}
);
unicode = 105;
userData = {
com.schriftgestaltung.Glyphs.ColorIndex = 3;
};
},
{
color = 6;
glyphname = idotless;
kernLeft = i;
kernRight = i;
lastChange = "2022-04-28 13:53:09 +0000";
layers = (
{
anchors = (
{
name = bottom;
pos = (129,0);
},
{
name = ogonek;
pos = (224,0);
},
{
name = top;
pos = (201,510);
}
);
layerId = "6B2E1CAF-7E84-411F-9290-838331FE9C95";
shapes = (
{
closed = 1;
nodes = (
(224,0,l),
(296,510,l),
(56,510,l),
(38,386,l),
(128,386,l),
(74,0,l)
);
}
);
width = 325;
},
{
anchors = (
{
name = bottom;
pos = (110,0);
},
{
name = ogonek;
pos = (165,0);
},
{
name = top;
pos = (180,500);
}
);
layerId = "3DBDB2C8-AF6E-4CF3-B71C-7D596AD599C8";
shapes = (
{
closed = 1;
nodes = (
(165,0,l),
(235,500,l),
(85,500,l),
(75,430,l),
(145,430,l),
(85,0,l)
);
}
);
width = 290;
}
);
unicode = 305;
},
{
color = 3;
glyphname = idieresis;
kernLeft = i;
kernRight = i;
lastChange = "2022-04-28 13:53:09 +0000";
layers = (
{
layerId = "6B2E1CAF-7E84-411F-9290-838331FE9C95";
shapes = (
{
closed = 1;
nodes = (
(340,578,l),
(357,700,l),
(237,700,l),
(220,578,l)
);
},
{
ref = idotless;
},
{
closed = 1;
nodes = (
(178,578,l),
(195,700,l),
(75,700,l),
(58,578,l)
);
}
);
width = 330;
},
{
layerId = "3DBDB2C8-AF6E-4CF3-B71C-7D596AD599C8";
shapes = (
{
closed = 1;
nodes = (
(303,600,l),
(317,700,l),
(236,700,l),
(222,600,l)
);
},
{
ref = idotless;
},
{
closed = 1;
nodes = (
(153,600,l),
(167,700,l),
(86,700,l),
(72,600,l)
);
}
);
width = 290;
}
);
unicode = 239;
},
{
color = 6;
glyphname = j;
kernLeft = j;
kernRight = j;
lastChange = "2022-04-28 13:53:09 +0000";
layers = (
{
layerId = "6B2E1CAF-7E84-411F-9290-838331FE9C95";
metricRight = "=i";
shapes = (
{
closed = 1;
nodes = (
(83,-215,o),
(203,-151,o),
(226,10,cs),
(296,510,l),
(56,510,l),
(39,387,l),
(129,387,l),
(76,12,ls),
(68,-45,o),
(22,-75,o),
(-38,-90,c),
(-15,-222,l)
);
},
{
closed = 1;
nodes = (
(304,578,l),
(322,700,l),
(173,700,l),
(155,578,l)
);
}
);
width = 330;
},
{
layerId = "3DBDB2C8-AF6E-4CF3-B71C-7D596AD599C8";
metricRight = "=i";
shapes = (
{
closed = 1;
nodes = (
(78,-190,o),
(146,-124,o),
(165,3,cs),
(236,500,l),
(85,500,l),
(75,430,l),
(145,430,l),
(86,7,ls),
(73,-85,o),
(18,-136,o),
(-47,-153,c),
(-24,-223,l)
);
},
{
closed = 1;
nodes = (
(249,600,l),
(263,700,l),
(183,700,l),
(169,600,l)
);
}
);
width = 286;
}
);
metricRight = i;
unicode = 106;
userData = {
com.schriftgestaltung.Glyphs.ColorIndex = 3;
com.schriftgestaltung.Glyphs.layer.leftMetricsKey = "==i-20";
com.schriftgestaltung.Glyphs.layer.rightMetricsKey = "==i";
com.schriftgestaltung.Glyphs.leftMetricsKey = n;
com.schriftgestaltung.Glyphs.rightMetricsKey = n;
};
},
{
color = 6;
glyphname = jdotless;
lastChange = "2022-04-28 14:30:19 +0000";
layers = (
{
layerId = "3DBDB2C8-AF6E-4CF3-B71C-7D596AD599C8";
shapes = (
{
closed = 1;
nodes = (
(78,-190,o),
(146,-124,o),
(165,3,cs),
(236,500,l),
(85,500,l),
(75,430,l),
(145,430,l),
(86,7,ls),
(73,-85,o),
(18,-136,o),
(-47,-153,c),
(-24,-223,l)
);
}
);
width = 286;
},
{
layerId = "6B2E1CAF-7E84-411F-9290-838331FE9C95";
shapes = (
{
closed = 1;
nodes = (
(83,-215,o),
(203,-151,o),
(226,10,cs),
(296,510,l),
(56,510,l),
(39,387,l),
(129,387,l),
(76,12,ls),
(68,-45,o),
(22,-75,o),
(-38,-90,c),
(-15,-222,l)
);
}
);
width = 330;
}
);
unicode = 567;
},
{
color = 6;
glyphname = k;
kernLeft = h;
kernRight = k;
lastChange = "2022-04-28 13:53:09 +0000";
layers = (
{
anchors = (
{
name = bottom;
pos = (227,0);
},
{
name = top;
pos = (349,700);
}
);
layerId = "6B2E1CAF-7E84-411F-9290-838331FE9C95";
shapes = (
{
closed = 1;
nodes = (
(176,0,l),
(208,223,l),
(264,223,l),
(305,0,l),
(462,0,l),
(389,297,l),
(529,511,l),
(365,511,l),
(268,353,ls),
(226,353,l),
(282,750,l),
(136,750,l),
(30,0,l)
);
}
);
width = 524;
},
{
anchors = (
{
name = bottom;
pos = (204,0);
},
{
name = top;
pos = (317,670);
}
);
layerId = "3DBDB2C8-AF6E-4CF3-B71C-7D596AD599C8";
shapes = (
{
closed = 1;
nodes = (
(132,0,l),
(165,239,l),
(241,239,l),
(323,0,l),
(411,0,l),
(310,285,l),
(459,500,l),
(363,500,l),
(229,309,l),
(175,309,l),
(237,750,l),
(155,750,l),
(50,0,l)
);
}
);
width = 487;
}
);
metricLeft = h;
unicode = 107;
userData = {
com.schriftgestaltung.Glyphs.ColorIndex = 3;
com.schriftgestaltung.Glyphs.layer.leftMetricsKey = "==n";
com.schriftgestaltung.Glyphs.leftMetricsKey = n;
};
},
{
color = 6;
glyphname = l;
kernLeft = h;
kernRight = l;
lastChange = "2022-04-28 13:53:09 +0000";
layers = (
{
anchors = (
{
name = bottom;
pos = (85,0);
},
{
name = center;
pos = (153,435);
},
{
name = top;
pos = (287,750);
},
{
name = topright;
pos = (295,750);
}
);
background = {
anchors = (
{
name = bottom;
pos = (423,0);
},
{
name = top;
pos = (423,500);
},
{
name = topright;
pos = (519,500);
}
);
shapes = (
{
closed = 1;
nodes = (
(236,0,l),
(212,48,ls),
(195,83,o),
(191,111,o),
(196,148,cs),
(282,750,l),
(47,750,l),
(29,626,l),
(119,626,l),
(49,132,ls),
(44,95,o),
(47,68,o),
(62,32,cs),
(75,0,l)
);
}
);
};
layerId = "6B2E1CAF-7E84-411F-9290-838331FE9C95";
shapes = (
{
closed = 1;
nodes = (
(246,1,l),
(264,130,l),
(215,130,ls),
(200,130,o),
(193,133,o),
(196,151,cs),
(282,750,l),
(137,750,l),
(48,124,ls),
(38,53,o),
(84,1,o),
(154,1,cs)
);
}
);
width = 302;
},
{
anchors = (
{
name = bottom;
pos = (103,0);
},
{
name = center;
pos = (166,450);
},
{
name = top;
pos = (196,750);
},
{
name = topright;
pos = (259,750);
}
);
background = {
anchors = (
{
name = bottom;
pos = (108,0);
},
{
name = center;
pos = (148,250);
},
{
name = top;
pos = (108,500);
},
{
name = topright;
pos = (204,500);
}
);
shapes = (
{
closed = 1;
nodes = (
(95,750,l),
(95,61,l),
(148,-11,l),
(215,31,l),
(175,90,l),
(175,750,l)
);
}
);
};
layerId = "3DBDB2C8-AF6E-4CF3-B71C-7D596AD599C8";
metricLeft = "=h";
shapes = (
{
closed = 1;
nodes = (
(205,0,l),
(215,70,l),
(172,70,ls),
(151,70,o),
(142,83,o),
(145,106,cs),
(235,750,l),
(155,750,l),
(65,110,ls),
(56,44,o),
(97,0,o),
(166,0,cs)
);
}
);
width = 275;
}
);
metricLeft = h;
unicode = 108;
userData = {
com.schriftgestaltung.Glyphs.ColorIndex = 3;
com.schriftgestaltung.Glyphs.layer.leftMetricsKey = "==h";
com.schriftgestaltung.Glyphs.leftMetricsKey = n;
com.typemytype.robofont.layerData = {
background = {
anchors = (
{
name = bottom;
x = 108;
y = 0;
},
{
name = top;
x = 108;
y = 500;
},
{
name = topright;
x = 204;
y = 500;
},
{
name = center;
x = 148;
y = 250;
}
);
components = (
);
contours = (
{
points = (
{
segmentType = line;
smooth = 0;
x = 95;
y = 750;
},
{
segmentType = line;
smooth = 0;
x = 95;
y = 61;
},
{
segmentType = line;
smooth = 0;
x = 148;
y = -11;
},
{
segmentType = line;
smooth = 0;
x = 215;
y = 31;
},
{
segmentType = line;
smooth = 0;
x = 175;
y = 90;
},
{
segmentType = line;
smooth = 0;
x = 175;
y = 750;
}
);
}
);
lib = {
};
name = l;
unicodes = (
);
width = 275;
};
};
};
},
{
color = 6;
glyphname = m;
kernLeft = n;
kernRight = n;
lastChange = "2022-04-28 13:53:09 +0000";
layers = (
{
anchors = (
{
name = bottom;
pos = (535,0);
},
{
name = top;
pos = (607,510);
}
);
background = {
shapes = (
{
pos = (24,0);
ref = n;
}
);
};
layerId = "6B2E1CAF-7E84-411F-9290-838331FE9C95";
metricLeft = "=n";
metricRight = "=n";
shapes = (
{
closed = 1;
nodes = (
(200,0,l),
(261,432,l),
(189,322,l),
(257,364,o),
(289,389,o),
(328,389,cs),
(361,389,o),
(380,369,o),
(375,333,cs),
(328,0,l),
(474,0,l),
(530,389,l),
(466,319,l),
(535,369,o),
(571,389,o),
(604,389,cs),
(637,389,o),
(656,369,o),
(651,333,cs),
(604,0,l),
(750,0,l),
(797,328,ls),
(814,446,o),
(753,520,o),
(647,522,cs),
(598,523,o),
(570,518,o),
(521,496,c),
(505,478,ls),
(500,472,o),
(493,470,o),
(488,475,cs),
(461,502,o),
(424,521,o),
(371,522,cs),
(318,523,o),
(286,517,o),
(233,488,c),
(217,470,ls),
(212,464,o),
(205,464,o),
(199,467,cs),
(92,520,l),
(30,396,l),
(168,328,l),
(113,429,l),
(54,0,l)
);
}
);
width = 847;
},
{
anchors = (
{
name = bottom;
pos = (385,0);
},
{
name = top;
pos = (455,500);
}
);
background = {
shapes = (
{
pos = (10,0);
ref = n;
},
{
pos = (300,0);
ref = n;
}
);
};
layerId = "3DBDB2C8-AF6E-4CF3-B71C-7D596AD599C8";
metricLeft = "=n";
metricRight = "=n";
shapes = (
{
closed = 1;
nodes = (
(140,0,l),
(200,423,l),
(151,362,l),
(259,427,o),
(287,437,o),
(334,437,cs),
(379,437,o),
(406,409,o),
(399,354,cs),
(352,0,l),
(432,0,l),
(489,421,l),
(438,359,l),
(539,422,o),
(573,437,o),
(622,437,cs),
(669,437,o),
(697,412,o),
(689,351,cs),
(642,0,l),
(722,0,l),
(769,347,ls),
(781,434,o),
(734,510,o),
(633,510,cs),
(578,510,o),
(548,498,o),
(490,463,c),
(478,451,ls),
(472,445,o),
(464,446,o),
(460,452,cs),
(439,482,o),
(399,509,o),
(345,510,cs),
(301,511,o),
(267,502,o),
(221,475,c),
(209,463,ls),
(205,459,o),
(200,458,o),
(194,461,cs),
(93,510,l),
(60,440,l),
(151,396,l),
(122,449,l),
(60,0,l)
);
}
);
width = 837;
}
);
metricLeft = n;
metricRight = n;
unicode = 109;
userData = {
com.schriftgestaltung.Glyphs.ColorIndex = 3;
com.schriftgestaltung.Glyphs.layer.leftMetricsKey = "==n";
com.schriftgestaltung.Glyphs.layer.rightMetricsKey = "==n";
com.schriftgestaltung.Glyphs.leftMetricsKey = n;
com.schriftgestaltung.Glyphs.rightMetricsKey = n;
com.typemytype.robofont.layerData = {
background = {
anchors = (
);
components = (
);
contours = (
{
points = (
{
smooth = 0;
x = 283;
y = 512;
},
{
smooth = 0;
x = 266;
y = 510;
},
{
segmentType = curve;
smooth = 0;
x = 249;
y = 506;
},
{
segmentType = line;
smooth = 1;
x = 198;
y = 476;
},
{
smooth = 0;
x = 182;
y = 466;
},
{
smooth = 0;
x = 175;
y = 471;
},
{
segmentType = curve;
smooth = 1;
x = 175;
y = 484;
},
{
segmentType = line;
smooth = 0;
x = 175;
y = 500;
},
{
segmentType = line;
smooth = 0;
x = 95;
y = 500;
},
{
segmentType = line;
smooth = 0;
x = 95;
y = 0;
},
{
segmentType = line;
smooth = 0;
x = 175;
y = 0;
},
{
segmentType = line;
smooth = 1;
x = 175;
y = 348;
},
{
smooth = 0;
x = 175;
y = 404;
},
{
smooth = 0;
x = 205;
y = 440;
},
{
segmentType = curve;
smooth = 1;
x = 287;
y = 440;
},
{
smooth = 0;
x = 348;
y = 440;
},
{
smooth = 0;
x = 385;
y = 404;
},
{
segmentType = curve;
smooth = 1;
x = 385;
y = 348;
},
{
segmentType = line;
smooth = 0;
x = 385;
y = 0;
},
{
segmentType = line;
smooth = 0;
x = 465;
y = 0;
},
{
segmentType = line;
smooth = 1;
x = 465;
y = 348;
},
{
smooth = 0;
x = 465;
y = 404;
},
{
smooth = 0;
x = 491;
y = 440;
},
{
segmentType = curve;
smooth = 1;
x = 566;
y = 440;
},
{
smooth = 0;
x = 645;
y = 440;
},
{
smooth = 0;
x = 675;
y = 404;
},
{
segmentType = curve;
smooth = 1;
x = 675;
y = 348;
},
{
segmentType = line;
smooth = 0;
x = 675;
y = 0;
},
{
segmentType = line;
smooth = 0;
x = 755;
y = 0;
},
{
segmentType = line;
smooth = 1;
x = 755;
y = 357;
},
{
smooth = 0;
x = 755;
y = 449;
},
{
smooth = 0;
x = 699;
y = 512;
},
{
segmentType = curve;
smooth = 1;
x = 587;
y = 512;
},
{
smooth = 0;
x = 529;
y = 512;
},
{
smooth = 0;
x = 474;
y = 492;
},
{
segmentType = curve;
smooth = 0;
x = 437;
y = 451;
},
{
smooth = 0;
x = 410;
y = 489;
},
{
smooth = 0;
x = 360;
y = 512;
},
{
segmentType = curve;
smooth = 0;
x = 303;
y = 512;
}
);
}
);
lib = {
};
name = m;
unicodes = (
);
width = 825;
};
};
};
},
{
color = 6;
glyphname = n;
kernLeft = n;
kernRight = n;
lastChange = "2022-04-28 13:53:09 +0000";
layers = (
{
anchors = (
{
name = bottom;
pos = (287,0);
},
{
name = top;
pos = (359,510);
}
);
background = {
shapes = (
{
angle = 180;
pos = (556,510);
ref = a;
}
);
};
layerId = "6B2E1CAF-7E84-411F-9290-838331FE9C95";
shapes = (
{
closed = 1;
nodes = (
(200,0,l),
(254,381,ls),
(232,349,l),
(272,375,o),
(298,389,o),
(328,389,cs),
(361,389,o),
(380,369,o),
(375,333,cs),
(328,0,l),
(474,0,l),
(521,328,ls),
(538,450,o),
(479,520,o),
(371,522,cs),
(318,523,o),
(286,519,o),
(233,488,c),
(217,470,ls),
(212,464,o),
(205,464,o),
(199,467,cs),
(92,520,l),
(30,396,l),
(177,323,l),
(115,448,l),
(54,0,l)
);
}
);
width = 571;
},
{
anchors = (
{
name = bottom;
pos = (244,0);
},
{
name = top;
pos = (314,500);
}
);
background = {
shapes = (
{
closed = 1;
nodes = (
(140,0,l),
(188,346,ls),
(196,401,o),
(243,438,o),
(307,438,cs),
(377,438,o),
(409,405,o),
(398,330,cs),
(352,0,l),
(432,0,l),
(479,335,ls),
(497,447,o),
(432,512,o),
(317,512,cs),
(256,512,o),
(204,486,o),
(162,443,c),
(236,440,l),
(93,510,l),
(60,440,l),
(161,391,l),
(122,447,l),
(60,0,l)
);
}
);
};
layerId = "3DBDB2C8-AF6E-4CF3-B71C-7D596AD599C8";
shapes = (
{
closed = 1;
nodes = (
(140,0,l),
(200,424,l),
(179,377,l),
(261,428,o),
(288,437,o),
(331,437,cs),
(379,437,o),
(407,413,o),
(398,344,cs),
(352,0,l),
(432,0,l),
(478,340,ls),
(491,438,o),
(444,508,o),
(341,510,cs),
(295,511,o),
(264,501,o),
(221,475,c),
(209,463,ls),
(205,459,o),
(200,458,o),
(194,461,cs),
(93,510,l),
(60,440,l),
(161,391,l),
(122,447,l),
(60,0,l)
);
}
);
width = 547;
}
);
metricRight = h;
unicode = 110;
userData = {
com.schriftgestaltung.Glyphs.ColorIndex = 3;
};
},
{
color = 3;
glyphname = eng;
lastChange = "2022-04-28 13:53:09 +0000";
layers = (
{
layerId = "6B2E1CAF-7E84-411F-9290-838331FE9C95";
shapes = (
{
closed = 1;
nodes = (
(337,-215,o),
(452,-151,o),
(474,0,c),
(328,0,l),
(318,-57,o),
(276,-76,o),
(212,-90,c),
(235,-222,l)
);
},
{
ref = n;
}
);
width = 571;
},
{
layerId = "3DBDB2C8-AF6E-4CF3-B71C-7D596AD599C8";
shapes = (
{
closed = 1;
nodes = (
(353,-191,o),
(414,-124,o),
(432,0,c),
(352,0,l),
(340,-86,o),
(294,-137,o),
(238,-153,c),
(261,-223,l)
);
},
{
ref = n;
}
);
width = 547;
}
);
metricLeft = n;
metricRight = n;
unicode = 331;
},
{
color = 6;
glyphname = o;
kernLeft = o;
kernRight = o;
lastChange = "2022-04-28 13:53:09 +0000";
layers = (
{
anchors = (
{
name = bottom;
pos = (229,0);
},
{
name = center;
pos = (265,255);
},
{
name = ogonek;
pos = (450,10);
},
{
name = top;
pos = (301,510);
},
{
name = topright;
pos = (555,510);
}
);
background = {
shapes = (
{
closed = 1;
nodes = (
(362,-12,o),
(446,60,o),
(475,156,cs),
(484,193,o),
(489,221,o),
(492,244,cs),
(497,279,o),
(499,308,o),
(499,336,cs),
(501,443,o),
(430,522,o),
(294,522,cs),
(166,522,o),
(82,450,o),
(54,354,cs),
(44,316,o),
(40,287,o),
(36,262,cs),
(31,229,o),
(30,201,o),
(30,174,cs),
(28,68,o),
(98,-12,o),
(234,-12,cs)
);
},
{
closed = 1;
nodes = (
(190,112,o),
(171,142,o),
(172,179,cs),
(174,232,o),
(179,269,o),
(191,313,cs),
(201,360,o),
(238,399,o),
(291,399,cs),
(339,399,o),
(359,368,o),
(358,331,cs),
(355,276,o),
(350,240,o),
(337,196,cs),
(326,151,o),
(291,112,o),
(237,112,cs)
);
}
);
};
layerId = "6B2E1CAF-7E84-411F-9290-838331FE9C95";
shapes = (
{
closed = 1;
nodes = (
(356,-12,o),
(434,57,o),
(463,153,cs),
(479,204,o),
(491,270,o),
(491,323,cs),
(491,422,o),
(425,522,o),
(286,522,cs),
(160,522,o),
(84,453,o),
(55,358,cs),
(39,307,o),
(28,240,o),
(28,187,cs),
(28,89,o),
(92,-12,o),
(230,-12,cs)
);
},
{
closed = 1;
nodes = (
(192,109,o),
(168,143,o),
(168,196,cs),
(168,241,o),
(179,302,o),
(189,329,cs),
(203,370,o),
(233,401,o),
(276,401,cs),
(324,401,o),
(351,366,o),
(351,315,cs),
(351,275,o),
(340,210,o),
(329,182,cs),
(314,139,o),
(283,109,o),
(240,109,cs)
);
}
);
width = 519;
},
{
anchors = (
{
name = bottom;
pos = (220,0);
},
{
name = center;
pos = (255,250);
},
{
name = ogonek;
pos = (425,10);
},
{
name = top;
pos = (290,500);
},
{
name = topright;
pos = (525,500);
}
);
background = {
shapes = (
{
closed = 1;
nodes = (
(389,-11,o),
(455,63,o),
(467,162,cs),
(471,194,o),
(473,221,o),
(473,249,cs),
(473,277,o),
(471,305,o),
(467,338,cs),
(455,438,o),
(389,511,o),
(273,511,cs),
(157,511,o),
(91,438,o),
(79,338,cs),
(75,305,o),
(73,277,o),
(73,249,cs),
(73,221,o),
(75,194,o),
(79,162,cs),
(91,63,o),
(157,-11,o),
(273,-11,cs)
);
},
{
closed = 1;
nodes = (
(200,58,o),
(162,107,o),
(156,165,cs),
(150,225,o),
(151,271,o),
(155,333,cs),
(159,391,o),
(200,440,o),
(273,440,cs),
(346,440,o),
(385,391,o),
(390,333,cs),
(395,271,o),
(395,225,o),
(390,165,cs),
(385,107,o),
(346,58,o),
(273,58,cs)
);
}
);
};
layerId = "3DBDB2C8-AF6E-4CF3-B71C-7D596AD599C8";
shapes = (
{
closed = 1;
nodes = (
(316,-11,o),
(392,40,o),
(427,131,cs),
(447,183,o),
(460,268,o),
(460,327,cs),
(460,421,o),
(405,511,o),
(286,511,cs),
(194,511,o),
(118,460,o),
(83,369,cs),
(63,317,o),
(50,232,o),
(50,173,cs),
(50,79,o),
(105,-11,o),
(223,-11,cs)
);
},
{
closed = 1;
nodes = (
(155,60,o),
(126,116,o),
(126,177,cs),
(126,230,o),
(137,304,o),
(154,345,cs),
(178,406,o),
(216,440,o),
(281,440,cs),
(355,440,o),
(384,384,o),
(384,323,cs),
(384,274,o),
(373,193,o),
(356,155,cs),
(332,94,o),
(294,60,o),
(228,60,cs)
);
}
);
width = 510;
}
);
unicode = 111;
userData = {
com.schriftgestaltung.Glyphs.ColorIndex = 3;
com.typemytype.robofont.layerData = {
background = {
anchors = (
);
components = (
);
contours = (
{
points = (
{
smooth = 0;
x = 539;
y = 66;
},
{
smooth = 0;
x = 451;
y = -8;
},
{
segmentType = curve;
smooth = 1;
x = 332;
y = -8;
},
{
smooth = 0;
x = 213;
y = -8;
},
{
smooth = 0;
x = 125;
y = 66;
},
{
segmentType = curve;
smooth = 1;
x = 125;
y = 252;
},
{
smooth = 0;
x = 125;
y = 438;
},
{
smooth = 0;
x = 213;
y = 512;
},
{
segmentType = curve;
smooth = 1;
x = 332;
y = 512;
},
{
smooth = 0;
x = 451;
y = 512;
},
{
smooth = 0;
x = 539;
y = 438;
},
{
segmentType = curve;
smooth = 1;
x = 539;
y = 252;
}
);
},
{
points = (
{
smooth = 0;
x = 465;
y = 408;
},
{
smooth = 0;
x = 406;
y = 446;
},
{
segmentType = curve;
smooth = 1;
x = 332;
y = 446;
},
{
smooth = 0;
x = 259;
y = 446;
},
{
smooth = 0;
x = 199;
y = 406;
},
{
segmentType = curve;
smooth = 1;
x = 199;
y = 252;
},
{
smooth = 0;
x = 199;
y = 98;
},
{
smooth = 0;
x = 259;
y = 58;
},
{
segmentType = curve;
smooth = 1;
x = 332;
y = 58;
},
{
smooth = 0;
x = 406;
y = 58;
},
{
smooth = 0;
x = 465;
y = 96;
},
{
segmentType = curve;
smooth = 1;
x = 465;
y = 252;
}
);
}
);
lib = {
};
name = o;
unicodes = (
);
width = 510;
};
};
};
},
{
color = 6;
glyphname = oe;
kernLeft = o;
kernRight = e;
lastChange = "2022-04-28 13:53:09 +0000";
layers = (
{
anchors = (
{
name = bottom;
pos = (430,0);
},
{
name = center;
pos = (263,255);
},
{
name = ogonek;
pos = (421,10);
},
{
name = top;
pos = (430,510);
},
{
name = topright;
pos = (553,510);
}
);
background = {
shapes = (
{
pos = (302,0);
ref = e;
},
{
ref = o;
}
);
};
layerId = "6B2E1CAF-7E84-411F-9290-838331FE9C95";
shapes = (
{
closed = 1;
nodes = (
(284,-12,o),
(319,-4,o),
(366,25,c),
(385,48,ls),
(390,54,o),
(394,56,o),
(399,47,cs),
(410,25,l),
(444,3,o),
(485,-10,o),
(536,-10,cs),
(616,-10,o),
(697,18,o),
(745,108,c),
(636,162,l),
(615,125,o),
(583,108,o),
(556,108,cs),
(507,108,o),
(468,137,o),
(471,191,cs),
(471,201,o),
(472,210,o),
(473,219,c),
(741,219,l),
(776,288,l),
(794,417,o),
(740,520,o),
(587,520,cs),
(543,520,o),
(491,505,o),
(462,485,c),
(444,459,ls),
(438,452,o),
(434,453,o),
(430,459,cs),
(417,485,l),
(382,508,o),
(338,522,o),
(284,522,cs),
(159,522,o),
(84,453,o),
(55,358,cs),
(39,307,o),
(28,240,o),
(28,187,cs),
(28,89,o),
(91,-12,o),
(228,-12,cs)
);
},
{
closed = 1;
nodes = (
(190,109,o),
(166,143,o),
(166,196,cs),
(166,241,o),
(177,302,o),
(187,329,cs),
(201,370,o),
(231,401,o),
(274,401,cs),
(322,401,o),
(349,366,o),
(349,315,cs),
(349,275,o),
(338,210,o),
(327,182,cs),
(312,139,o),
(281,109,o),
(238,109,cs)
);
},
{
closed = 1;
nodes = (
(505,373,o),
(537,405,o),
(593,405,cs),
(637,405,o),
(663,371,o),
(651,318,c),
(491,318,l)
);
}
);
width = 806;
},
{
anchors = (
{
name = bottom;
pos = (366,0);
},
{
name = center;
pos = (255,250);
},
{
name = ogonek;
pos = (904,10);
},
{
name = top;
pos = (436,500);
},
{
name = topright;
pos = (525,500);
}
);
background = {
shapes = (
{
pos = (324,0);
ref = e;
}
);
};
layerId = "3DBDB2C8-AF6E-4CF3-B71C-7D596AD599C8";
shapes = (
{
closed = 1;
nodes = (
(281,-11,o),
(326,6,o),
(358,37,c),
(388,83,ls),
(392,90,o),
(398,91,o),
(402,82,cs),
(423,40,l),
(448,13,o),
(486,-10,o),
(551,-10,cs),
(614,-10,o),
(666,20,o),
(729,91,c),
(669,120,l),
(632,80,o),
(601,60,o),
(559,60,cs),
(486,60,o),
(449,107,o),
(449,183,cs),
(449,205,o),
(450,219,o),
(452,233,c),
(737,232,l),
(766,274,l),
(789,389,o),
(762,510,o),
(616,510,cs),
(562,510,o),
(509,493,o),
(474,458,c),
(446,415,ls),
(441,407,o),
(435,408,o),
(432,416,cs),
(413,460,l),
(388,489,o),
(348,511,o),
(286,511,cs),
(194,511,o),
(118,460,o),
(83,369,cs),
(63,317,o),
(50,232,o),
(50,173,cs),
(50,79,o),
(105,-11,o),
(223,-11,cs)
);
},
{
closed = 1;
nodes = (
(155,60,o),
(126,116,o),
(126,177,cs),
(126,230,o),
(137,304,o),
(154,345,cs),
(178,406,o),
(216,440,o),
(281,440,cs),
(355,440,o),
(384,384,o),
(384,323,cs),
(384,274,o),
(373,193,o),
(356,155,c),
(332,94,o),
(294,60,o),
(228,60,cs)
);
},
{
closed = 1;
nodes = (
(492,395,o),
(555,440,o),
(615,440,cs),
(683,440,o),
(714,391,o),
(693,304,c),
(465,302,l)
);
}
);
width = 805;
}
);
metricLeft = o;
metricRight = e;
unicode = 339;
userData = {
com.schriftgestaltung.Glyphs.leftMetricsKey = o;
com.schriftgestaltung.Glyphs.rightMetricsKey = e;
};
},
{
color = 6;
glyphname = p;
kernLeft = n;
kernRight = o;
lastChange = "2022-04-28 13:53:09 +0000";
layers = (
{
anchors = (
{
name = bottom;
pos = (252,0);
},
{
name = bottomleft;
pos = (-35,0);
},
{
name = center;
pos = (69,-104);
},
{
name = ogonek;
pos = (13,497);
},
{
name = top;
pos = (324,510);
}
);
layerId = "6B2E1CAF-7E84-411F-9290-838331FE9C95";
metricLeft = "=n";
metricRight = "=o";
shapes = (
{
closed = 1;
nodes = (
(162,-200,l),
(188,-5,l),
(195,-7,l),
(218,-10,o),
(232,-11,o),
(247,-11,cs),
(345,-11,o),
(420,35,o),
(469,123,cs),
(499,183,o),
(513,261,o),
(513,335,cs),
(513,479,o),
(421,519,o),
(334,519,cs),
(294,519,o),
(277,512,o),
(227,493,c),
(209,473,ls),
(206,469,o),
(200,469,o),
(195,471,cs),
(95,520,l),
(30,398,l),
(92,367,l),
(16,-200,l)
);
},
{
closed = 1;
nodes = (
(233,112,o),
(220,113,o),
(202,116,c),
(236,361,l),
(276,381,o),
(294,388,o),
(311,388,cs),
(351,388,o),
(375,374,o),
(375,312,cs),
(375,261,o),
(367,211,o),
(346,168,cs),
(327,130,o),
(288,112,o),
(247,112,cs)
);
}
);
width = 541;
},
{
anchors = (
{
name = bottom;
pos = (231,0);
},
{
name = bottomleft;
pos = (-19,0);
},
{
name = center;
pos = (75,-111);
},
{
name = ogonek;
pos = (95,490);
},
{
name = top;
pos = (301,500);
}
);
background = {
shapes = (
{
pos = (10,0);
ref = n;
}
);
};
layerId = "3DBDB2C8-AF6E-4CF3-B71C-7D596AD599C8";
metricLeft = "=n";
metricRight = "=o";
shapes = (
{
closed = 1;
nodes = (
(112,-200,l),
(142,0,l),
(171,-7,l),
(189,-9,o),
(204,-10,o),
(224,-10,cs),
(318,-10,o),
(395,44,o),
(435,125,cs),
(467,190,o),
(482,265,o),
(482,340,cs),
(482,483,o),
(400,510,o),
(339,510,cs),
(295,510,o),
(269,502,o),
(222,476,c),
(209,463,ls),
(205,459,o),
(199,458,o),
(194,461,cs),
(93,510,l),
(60,440,l),
(118,412,l),
(32,-200,l)
);
},
{
closed = 1;
nodes = (
(197,60,o),
(178,63,o),
(150,70,c),
(194,385,l),
(253,423,o),
(289,437,o),
(325,437,cs),
(362,437,o),
(406,423,o),
(406,337,cs),
(406,267,o),
(394,212,o),
(373,162,cs),
(348,103,o),
(294,60,o),
(218,60,cs)
);
}
);
width = 530;
}
);
metricLeft = n;
unicode = 112;
userData = {
com.schriftgestaltung.Glyphs.ColorIndex = 3;
com.schriftgestaltung.Glyphs.layer.leftMetricsKey = "==n";
com.schriftgestaltung.Glyphs.layer.rightMetricsKey = "==o";
com.schriftgestaltung.Glyphs.leftMetricsKey = n;
};
},
{
color = 6;
glyphname = thorn;
kernLeft = h;
kernRight = o;
lastChange = "2022-04-28 13:53:09 +0000";
layers = (
{
anchors = (
{
name = bottom;
pos = (229,0);
},
{
name = top;
pos = (301,510);
}
);
background = {
anchors = (
{
name = bottom;
pos = (240,0);
},
{
name = bottomleft;
pos = (-47,0);
},
{
name = center;
pos = (57,-104);
},
{
name = ogonek;
pos = (1,497);
},
{
name = top;
pos = (312,510);
}
);
};
layerId = "6B2E1CAF-7E84-411F-9290-838331FE9C95";
shapes = (
{
closed = 1;
nodes = (
(150,-200,l),
(176,-5,l),
(203,-9,o),
(209,-11,o),
(235,-11,cs),
(333,-11,o),
(408,35,o),
(457,123,cs),
(487,183,o),
(501,261,o),
(501,335,cs),
(501,479,o),
(409,519,o),
(322,519,cs),
(282,519,o),
(256,507,o),
(243,502,c),
(280,700,l),
(130,700,l),
(96,463,l),
(30,-4,l),
(4,-200,l)
);
},
{
closed = 1;
nodes = (
(221,112,o),
(208,113,o),
(190,116,c),
(224,361,l),
(264,381,o),
(282,388,o),
(299,388,cs),
(339,388,o),
(363,374,o),
(363,312,cs),
(363,261,o),
(355,211,o),
(334,168,cs),
(315,130,o),
(276,112,o),
(235,112,cs)
);
}
);
width = 529;
},
{
anchors = (
{
name = bottom;
pos = (225,0);
},
{
name = top;
pos = (295,500);
}
);
layerId = "3DBDB2C8-AF6E-4CF3-B71C-7D596AD599C8";
shapes = (
{
closed = 1;
nodes = (
(102,-200,l),
(132,0,l),
(160,-5,o),
(179,-10,o),
(214,-10,cs),
(308,-10,o),
(385,44,o),
(425,125,cs),
(457,190,o),
(472,265,o),
(472,340,cs),
(472,483,o),
(390,510,o),
(329,510,cs),
(281,510,o),
(237,490,o),
(184,461,c),
(216,700,l),
(150,700,l),
(108,412,l),
(50,-4,l),
(22,-200,l)
);
},
{
closed = 1;
nodes = (
(187,60,o),
(168,63,o),
(140,70,c),
(184,385,l),
(243,423,o),
(279,437,o),
(315,437,cs),
(352,437,o),
(396,423,o),
(396,337,cs),
(396,267,o),
(384,212,o),
(363,162,cs),
(338,103,o),
(284,60,o),
(208,60,cs)
);
}
);
width = 520;
}
);
metricLeft = h;
metricRight = o;
unicode = 254;
userData = {
com.schriftgestaltung.Glyphs.leftMetricsKey = p;
com.schriftgestaltung.Glyphs.rightMetricsKey = p;
};
},
{
color = 6;
glyphname = q;
kernLeft = o;
kernRight = q;
lastChange = "2022-04-28 13:53:09 +0000";
layers = (
{
anchors = (
{
name = bottom;
pos = (232,0);
},
{
name = top;
pos = (304,510);
}
);
layerId = "6B2E1CAF-7E84-411F-9290-838331FE9C95";
metricLeft = "=o";
metricRight = "=i";
shapes = (
{
closed = 1;
nodes = (
(401,-200,l),
(499,514,l),
(398,503,ls),
(391,502,o),
(388,502,o),
(382,504,cs),
(346,517,l),
(322,521,o),
(306,522,o),
(284,522,cs),
(190,522,o),
(119,475,o),
(72,387,cs),
(42,327,o),
(28,249,o),
(28,175,cs),
(28,31,o),
(119,-9,o),
(207,-9,cs),
(212,-9,o),
(216,-8,o),
(221,-7,c),
(274,22,ls),
(282,26,o),
(287,22,o),
(286,14,cs),
(256,-200,l)
);
},
{
closed = 1;
nodes = (
(190,122,o),
(166,136,o),
(166,198,cs),
(166,249,o),
(175,299,o),
(196,343,cs),
(213,380,o),
(253,398,o),
(294,398,cs),
(308,398,o),
(321,397,o),
(339,394,c),
(305,149,l),
(276,130,o),
(255,122,o),
(230,122,cs)
);
}
);
width = 535;
},
{
anchors = (
{
name = bottom;
pos = (225,0);
},
{
name = top;
pos = (295,500);
}
);
background = {
shapes = (
{
ref = a;
}
);
};
layerId = "3DBDB2C8-AF6E-4CF3-B71C-7D596AD599C8";
metricLeft = "=o";
metricRight = "=i";
shapes = (
{
closed = 1;
nodes = (
(372,-200,l),
(470,504,l),
(413,498,l),
(406,497,o),
(402,497,o),
(397,498,c),
(359,507,l),
(344,509,o),
(328,510,o),
(306,510,cs),
(212,510,o),
(135,456,o),
(95,375,cs),
(63,310,o),
(48,235,o),
(48,158,cs),
(48,14,o),
(124,-10,o),
(197,-10,cs),
(211,-10,o),
(227,-8,o),
(241,-4,c),
(309,33,ls),
(320,39,o),
(328,35,o),
(326,22,cs),
(297,-200,l)
);
},
{
closed = 1;
nodes = (
(168,63,o),
(124,77,o),
(124,153,cs),
(124,233,o),
(136,288,o),
(157,338,cs),
(186,402,o),
(240,440,o),
(312,440,cs),
(338,440,o),
(356,437,o),
(381,430,c),
(340,122,l),
(258,75,o),
(224,63,o),
(202,63,cs)
);
}
);
width = 520;
}
);
metricLeft = o;
metricRight = i;
unicode = 113;
userData = {
com.schriftgestaltung.Glyphs.ColorIndex = 3;
com.schriftgestaltung.Glyphs.layer.leftMetricsKey = "==o";
com.schriftgestaltung.Glyphs.layer.rightMetricsKey = "==i";
com.schriftgestaltung.Glyphs.leftMetricsKey = o;
com.schriftgestaltung.Glyphs.rightMetricsKey = n;
};
},
{
color = 6;
glyphname = r;
kernLeft = n;
kernRight = r;
lastChange = "2022-04-28 13:53:09 +0000";
layers = (
{
anchors = (
{
name = bottom;
pos = (134,0);
},
{
name = top;
pos = (236,510);
}
);
background = {
anchors = (
{
name = bottom;
pos = (169,0);
},
{
name = top;
pos = (239,500);
}
);
shapes = (
{
pos = (24,0);
ref = n;
}
);
};
layerId = "6B2E1CAF-7E84-411F-9290-838331FE9C95";
shapes = (
{
closed = 1;
nodes = (
(200,0,l),
(254,381,ls),
(232,332,l),
(270,362,o),
(303,376,o),
(344,376,cs),
(360,376,o),
(379,374,o),
(399,371,c),
(426,511,l),
(409,517,o),
(388,522,o),
(361,522,cs),
(308,522,o),
(270,512,o),
(233,488,c),
(217,470,ls),
(212,464,o),
(205,464,o),
(199,467,cs),
(92,520,l),
(30,396,l),
(177,323,l),
(115,448,l),
(54,0,l)
);
}
);
width = 400;
},
{
anchors = (
{
name = bottom;
pos = (96,0);
},
{
name = top;
pos = (239,500);
}
);
background = {
shapes = (
{
pos = (10,0);
ref = s;
}
);
};
layerId = "3DBDB2C8-AF6E-4CF3-B71C-7D596AD599C8";
shapes = (
{
closed = 1;
nodes = (
(140,0,l),
(200,424,l),
(179,371,l),
(269,425,o),
(300,431,o),
(346,431,cs),
(363,431,o),
(377,428,o),
(390,423,c),
(420,496,l),
(400,504,o),
(379,509,o),
(353,510,cs),
(305,511,o),
(273,501,o),
(221,475,c),
(209,463,ls),
(205,459,o),
(200,458,o),
(194,461,cs),
(93,510,l),
(60,440,l),
(161,391,l),
(122,447,l),
(60,0,l)
);
}
);
width = 407;
}
);
metricLeft = n;
unicode = 114;
userData = {
com.schriftgestaltung.Glyphs.ColorIndex = 3;
};
},
{
color = 6;
glyphname = s;
kernLeft = s;
kernRight = s;
lastChange = "2022-04-28 13:53:09 +0000";
layers = (
{
anchors = (
{
name = bottom;
pos = (202,0);
},
{
name = top;
pos = (274,511);
}
);
background = {
shapes = (
{
closed = 1;
nodes = (
(341,509,o),
(290,522,o),
(214,522,cs),
(92,522,o),
(12,450,o),
(12,349,cs),
(12,255,o),
(81,202,o),
(177,197,cs),
(231,194,ls),
(266,192,o),
(277,175,o),
(277,154,cs),
(277,126,o),
(257,108,o),
(207,108,cs),
(155,108,o),
(121,110,o),
(54,153,c),
(12,45,l),
(90,-2,o),
(127,-12,o),
(206,-12,cs),
(328,-12,o),
(408,58,o),
(408,164,cs),
(408,258,o),
(341,315,o),
(243,320,cs),
(188,323,ls),
(156,325,o),
(143,338,o),
(143,359,cs),
(143,384,o),
(165,402,o),
(215,402,cs),
(270,402,o),
(309,395,o),
(352,367,c),
(394,475,l)
);
}
);
};
layerId = "6B2E1CAF-7E84-411F-9290-838331FE9C95";
shapes = (
{
closed = 1;
nodes = (
(321,-12,o),
(413,41,o),
(411,173,cs),
(410,258,o),
(356,295,o),
(258,323,cs),
(224,332,ls),
(204,338,o),
(196,348,o),
(196,364,cs),
(196,384,o),
(220,402,o),
(271,402,cs),
(326,402,o),
(362,390,o),
(395,367,c),
(437,475,l),
(407,498,o),
(354,522,o),
(283,522,cs),
(152,522,o),
(64,466,o),
(64,346,cs),
(64,279,o),
(108,229,o),
(203,205,cs),
(238,196,ls),
(271,188,o),
(281,174,o),
(281,156,cs),
(281,130,o),
(252,110,o),
(200,110,cs),
(143,110,o),
(105,121,o),
(54,154,c),
(12,46,l),
(64,8,o),
(125,-12,o),
(194,-12,cs)
);
}
);
width = 466;
},
{
anchors = (
{
name = bottom;
pos = (191,0);
},
{
name = top;
pos = (261,500);
}
);
background = {
shapes = (
{
closed = 1;
nodes = (
(345,-12,o),
(420,55,o),
(432,141,cs),
(444,226,o),
(396,285,o),
(298,292,cs),
(240,296,ls),
(201,299,o),
(176,318,o),
(181,355,cs),
(189,410,o),
(232,440,o),
(302,440,cs),
(355,440,o),
(397,425,o),
(425,404,c),
(456,467,l),
(415,497,o),
(362,512,o),
(304,512,cs),
(195,512,o),
(118,451,o),
(106,362,cs),
(93,273,o),
(148,229,o),
(226,224,cs),
(284,220,ls),
(337,216,o),
(362,188,o),
(357,151,cs),
(349,94,o),
(305,60,o),
(233,60,cs),
(181,60,o),
(139,77,o),
(96,111,c),
(62,45,l),
(107,10,o),
(165,-12,o),
(232,-12,cs)
);
},
{
closed = 1;
nodes = (
(318,-12,o),
(385,57,o),
(385,146,cs),
(385,228,o),
(331,285,o),
(232,292,cs),
(174,296,ls),
(134,299,o),
(104,320,o),
(104,360,cs),
(104,412,o),
(141,440,o),
(209,440,cs),
(264,440,o),
(308,424,o),
(339,403,c),
(365,468,l),
(320,498,o),
(265,512,o),
(209,512,cs),
(98,512,o),
(28,449,o),
(28,357,cs),
(28,271,o),
(87,229,o),
(165,224,cs),
(224,220,ls),
(277,216,o),
(309,186,o),
(309,146,cs),
(309,92,o),
(272,60,o),
(202,60,cs),
(148,60,o),
(103,78,o),
(55,112,c),
(28,44,l),
(77,9,o),
(138,-12,o),
(202,-12,cs)
);
}
);
};
layerId = "3DBDB2C8-AF6E-4CF3-B71C-7D596AD599C8";
shapes = (
{
closed = 1;
nodes = (
(315,-12,o),
(388,54,o),
(388,147,cs),
(388,218,o),
(343,260,o),
(264,289,cs),
(215,307,ls),
(174,322,o),
(155,338,o),
(155,372,cs),
(155,413,o),
(194,439,o),
(251,439,cs),
(304,439,o),
(351,426,o),
(390,404,c),
(415,468,l),
(370,496,o),
(312,512,o),
(252,512,cs),
(151,512,o),
(79,452,o),
(79,367,cs),
(79,302,o),
(123,265,o),
(200,237,cs),
(249,219,ls),
(293,203,o),
(313,182,o),
(313,139,cs),
(313,91,o),
(272,60,o),
(209,60,cs),
(147,60,o),
(90,80,o),
(54,114,c),
(28,44,l),
(62,14,o),
(132,-12,o),
(211,-12,cs)
);
}
);
width = 452;
}
);
unicode = 115;
userData = {
com.schriftgestaltung.Glyphs.ColorIndex = 3;
com.typemytype.robofont.layerData = {
background = {
anchors = (
);
components = (
);
contours = (
{
points = (
{
segmentType = curve;
smooth = 1;
x = 246;
y = 523;
},
{
smooth = 0;
x = 124;
y = 523;
},
{
smooth = 0;
x = 44;
y = 451;
},
{
segmentType = curve;
smooth = 1;
x = 44;
y = 350;
},
{
smooth = 0;
x = 44;
y = 256;
},
{
smooth = 0;
x = 113;
y = 203;
},
{
segmentType = curve;
smooth = 1;
x = 209;
y = 198;
},
{
segmentType = line;
smooth = 1;
x = 263;
y = 195;
},
{
smooth = 0;
x = 298;
y = 193;
},
{
smooth = 0;
x = 309;
y = 176;
},
{
segmentType = curve;
smooth = 1;
x = 309;
y = 155;
},
{
smooth = 0;
x = 309;
y = 127;
},
{
smooth = 0;
x = 289;
y = 109;
},
{
segmentType = curve;
smooth = 1;
x = 239;
y = 109;
},
{
smooth = 0;
x = 187;
y = 109;
},
{
smooth = 0;
x = 153;
y = 111;
},
{
segmentType = curve;
smooth = 0;
x = 86;
y = 154;
},
{
segmentType = line;
smooth = 0;
x = 44;
y = 46;
},
{
smooth = 0;
x = 122;
y = -1;
},
{
smooth = 0;
x = 159;
y = -11;
},
{
segmentType = curve;
smooth = 1;
x = 238;
y = -11;
},
{
smooth = 0;
x = 360;
y = -11;
},
{
smooth = 0;
x = 440;
y = 59;
},
{
segmentType = curve;
smooth = 1;
x = 440;
y = 165;
},
{
smooth = 0;
x = 440;
y = 259;
},
{
smooth = 0;
x = 373;
y = 316;
},
{
segmentType = curve;
smooth = 1;
x = 275;
y = 321;
},
{
segmentType = line;
smooth = 1;
x = 220;
y = 324;
},
{
smooth = 0;
x = 188;
y = 326;
},
{
smooth = 0;
x = 175;
y = 339;
},
{
segmentType = curve;
smooth = 1;
x = 175;
y = 360;
},
{
smooth = 0;
x = 175;
y = 385;
},
{
smooth = 0;
x = 197;
y = 403;
},
{
segmentType = curve;
smooth = 1;
x = 247;
y = 403;
},
{
smooth = 0;
x = 302;
y = 403;
},
{
smooth = 0;
x = 341;
y = 396;
},
{
segmentType = curve;
smooth = 0;
x = 384;
y = 368;
},
{
segmentType = line;
smooth = 0;
x = 426;
y = 476;
},
{
smooth = 0;
x = 373;
y = 510;
},
{
smooth = 0;
x = 322;
y = 523;
}
);
}
);
lib = {
};
name = s;
unicodes = (
);
width = 452;
};
};
};
},
{
color = 6;
glyphname = germandbls;
kernLeft = h;
kernRight = germandbls;
lastChange = "2022-04-28 13:53:09 +0000";
layers = (
{
anchors = (
{
name = bottom;
pos = (333,0);
},
{
name = top;
pos = (405,510);
}
);
background = {
anchors = (
{
name = bottom;
pos = (463,0);
},
{
name = top;
pos = (535,511);
}
);
};
layerId = "6B2E1CAF-7E84-411F-9290-838331FE9C95";
shapes = (
{
closed = 1;
nodes = (
(582,-12,o),
(674,41,o),
(672,163,cs),
(671,250,o),
(619,293,o),
(530,318,cs),
(481,332,ls),
(462,337,o),
(453,349,o),
(453,360,cs),
(453,377,o),
(464,387,o),
(497,396,cs),
(523,403,ls),
(625,431,o),
(678,479,o),
(678,567,cs),
(678,662,o),
(594,753,o),
(428,753,cs),
(250,753,o),
(123,658,o),
(100,492,cs),
(30,0,l),
(190,0,l),
(258,485,ls),
(269,559,o),
(313,624,o),
(426,624,cs),
(506,624,o),
(537,587,o),
(537,561,cs),
(537,543,o),
(522,524,o),
(499,519,cs),
(465,512,ls),
(374,493,o),
(315,441,o),
(315,359,cs),
(315,275,o),
(376,227,o),
(464,205,cs),
(499,196,ls),
(532,188,o),
(542,174,o),
(542,156,cs),
(542,130,o),
(513,110,o),
(461,110,cs),
(404,110,o),
(366,121,o),
(315,154,c),
(273,46,l),
(325,8,o),
(386,-12,o),
(455,-12,cs)
);
}
);
width = 728;
},
{
anchors = (
{
name = bottom;
pos = (291,0);
},
{
name = top;
pos = (361,500);
}
);
background = {
anchors = (
{
name = bottom;
pos = (391,0);
},
{
name = top;
pos = (461,500);
}
);
shapes = (
{
closed = 1;
nodes = (
(515,-12,o),
(588,54,o),
(588,147,cs),
(588,218,o),
(543,260,o),
(464,289,cs),
(415,307,ls),
(374,322,o),
(355,338,o),
(355,372,cs),
(355,413,o),
(394,439,o),
(451,439,cs),
(504,439,o),
(551,426,o),
(590,404,c),
(615,468,l),
(570,496,o),
(512,512,o),
(452,512,cs),
(351,512,o),
(279,452,o),
(279,367,cs),
(279,302,o),
(323,265,o),
(400,237,cs),
(449,219,ls),
(493,203,o),
(513,182,o),
(513,139,cs),
(513,91,o),
(472,60,o),
(409,60,cs),
(347,60,o),
(290,80,o),
(254,114,c),
(228,44,l),
(262,14,o),
(332,-12,o),
(411,-12,cs)
);
}
);
};
layerId = "3DBDB2C8-AF6E-4CF3-B71C-7D596AD599C8";
shapes = (
{
closed = 1;
nodes = (
(515,-12,o),
(588,54,o),
(588,147,cs),
(588,218,o),
(544,261,o),
(465,290,cs),
(416,308,ls),
(375,323,o),
(355,339,o),
(355,372,cs),
(355,407,o),
(383,424,o),
(428,437,cs),
(470,449,ls),
(548,471,o),
(606,514,o),
(606,597,cs),
(606,678,o),
(527,753,o),
(399,753,cs),
(229,753,o),
(143,659,o),
(126,544,cs),
(50,0,l),
(127,0,l),
(203,543,ls),
(215,630,o),
(288,687,o),
(394,687,cs),
(487,687,o),
(531,638,o),
(531,591,cs),
(531,551,o),
(503,529,o),
(461,518,cs),
(427,509,ls),
(333,484,o),
(279,444,o),
(279,367,cs),
(279,302,o),
(323,265,o),
(400,237,cs),
(449,219,ls),
(493,203,o),
(513,182,o),
(513,139,cs),
(513,91,o),
(472,60,o),
(409,60,cs),
(347,60,o),
(290,80,o),
(254,114,c),
(228,44,l),
(262,14,o),
(332,-12,o),
(411,-12,cs)
);
}
);
width = 652;
}
);
metricLeft = l;
metricRight = s;
unicode = 223;
userData = {
com.schriftgestaltung.Glyphs.leftMetricsKey = l;
com.schriftgestaltung.Glyphs.rightMetricsKey = s;
};
},
{
color = 6;
glyphname = t;
kernLeft = t;
kernRight = t;
lastChange = "2022-04-28 13:53:09 +0000";
layers = (
{
anchors = (
{
name = bottom;
pos = (177,0);
},
{
name = center;
pos = (213,255);
},
{
name = top;
pos = (249,510);
},
{
name = topright;
pos = (323,750);
}
);
background = {
shapes = (
{
pos = (34,0);
ref = e;
}
);
};
layerId = "6B2E1CAF-7E84-411F-9290-838331FE9C95";
shapes = (
{
closed = 1;
nodes = (
(313,1,l),
(331,130,l),
(248,130,ls),
(233,130,o),
(226,133,o),
(229,151,cs),
(263,386,l),
(383,386,l),
(402,510,l),
(281,510,l),
(303,650,l),
(201,650,l),
(156,522,l),
(153,515,o),
(147,510,o),
(139,510,cs),
(46,510,l),
(28,386,l),
(118,386,l),
(81,124,ls),
(71,52,o),
(117,1,o),
(187,1,cs)
);
}
);
width = 428;
},
{
anchors = (
{
name = bottom;
pos = (90,0);
},
{
name = center;
pos = (160,250);
},
{
name = top;
pos = (230,500);
},
{
name = topright;
pos = (263,750);
}
);
background = {
shapes = (
{
closed = 1;
nodes = (
(215,116,o),
(206,122,o),
(209,143,cs),
(244,390,l),
(327,390,l),
(344,510,l),
(261,510,l),
(278,630,l),
(169,630,l),
(154,600,ls),
(118,528,o),
(113,510,o),
(84,510,cs),
(36,510,l),
(19,390,l),
(98,390,l),
(61,124,ls),
(48,34,o),
(107,-11,o),
(180,-11,cs),
(210,-11,o),
(242,-4,o),
(272,11,cs),
(339,43,l),
(288,147,l),
(232,123,ls)
);
}
);
};
layerId = "3DBDB2C8-AF6E-4CF3-B71C-7D596AD599C8";
shapes = (
{
closed = 1;
nodes = (
(255,0,l),
(265,70,l),
(174,70,ls),
(153,70,o),
(144,83,o),
(147,106,cs),
(192,430,l),
(315,430,l),
(325,500,l),
(202,500,l),
(220,630,l),
(172,630,l),
(167,615,ls),
(132,509,o),
(127,500,o),
(109,500,cs),
(35,500,l),
(25,430,l),
(112,430,l),
(67,110,ls),
(58,44,o),
(99,0,o),
(168,0,cs)
);
}
);
width = 330;
},
{
anchors = (
{
name = bottom;
pos = (143,0);
},
{
name = center;
pos = (179,255);
},
{
name = top;
pos = (215,510);
},
{
name = topright;
pos = (383,510);
}
);
associatedMasterId = "6B2E1CAF-7E84-411F-9290-838331FE9C95";
background = {
shapes = (
{
ref = e;
}
);
};
layerId = "E25B522A-5D6C-421F-8298-5180265A6C59";
name = "May 13 18, 16:06";
shapes = (
{
closed = 1;
nodes = (
(278,124,o),
(256,108,o),
(237,108,cs),
(222,108,o),
(213,119,o),
(216,139,cs),
(254,390,l),
(428,390,l),
(445,510,l),
(271,510,l),
(288,630,l),
(204,630,l),
(141,510,l),
(51,510,l),
(29,390,l),
(108,390,l),
(74,150,ls),
(59,41,o),
(144,-12,o),
(210,-12,cs),
(283,-12,o),
(336,10,o),
(412,108,c),
(304,159,l)
);
}
);
width = 475;
}
);
unicode = 116;
userData = {
com.schriftgestaltung.Glyphs.ColorIndex = 3;
};
},
{
color = 6;
glyphname = u;
kernLeft = u;
kernRight = u;
lastChange = "2022-04-28 13:53:09 +0000";
layers = (
{
anchors = (
{
name = bottom;
pos = (250,0);
},
{
name = center;
pos = (359,-102);
},
{
name = ogonek;
pos = (446,0);
},
{
name = top;
pos = (322,510);
},
{
name = topright;
pos = (588,510);
}
);
background = {
shapes = (
{
pos = (15,0);
ref = q;
}
);
};
layerId = "6B2E1CAF-7E84-411F-9290-838331FE9C95";
shapes = (
{
closed = 1;
nodes = (
(198,-10,o),
(215,-8,o),
(232,-4,c),
(251,4,o),
(269,13,o),
(288,21,cs),
(296,25,o),
(303,24,o),
(302,16,cs),
(300,0,l),
(446,0,l),
(518,510,l),
(372,510,l),
(321,147,l),
(295,130,o),
(272,120,o),
(248,120,cs),
(205,120,o),
(191,141,o),
(197,185,cs),
(242,510,l),
(96,510,l),
(47,165,ls),
(30,43,o),
(87,-10,o),
(179,-10,cs)
);
}
);
width = 552;
},
{
anchors = (
{
name = bottom;
pos = (181,-250);
},
{
name = center;
pos = (361,-110);
},
{
name = ogonek;
pos = (399,0);
},
{
name = top;
pos = (296,500);
},
{
name = topright;
pos = (588,510);
}
);
background = {
shapes = (
{
ref = q;
}
);
};
layerId = "3DBDB2C8-AF6E-4CF3-B71C-7D596AD599C8";
shapes = (
{
closed = 1;
nodes = (
(204,-11,o),
(222,-8,o),
(238,-4,c),
(258,7,o),
(281,20,o),
(311,36,cs),
(322,42,o),
(330,37,o),
(328,25,cs),
(324,0,l),
(399,0,l),
(470,500,l),
(390,500,l),
(341,124,l),
(246,70,o),
(224,63,o),
(202,63,cs),
(155,63,o),
(124,85,o),
(131,139,cs),
(178,500,l),
(98,500,l),
(51,145,ls),
(38,49,o),
(91,-11,o),
(188,-11,cs)
);
}
);
width = 520;
}
);
metricRight = i;
unicode = 117;
userData = {
com.schriftgestaltung.Glyphs.ColorIndex = 3;
com.schriftgestaltung.Glyphs.rightMetricsKey = i;
};
},
{
color = 6;
glyphname = v;
kernLeft = v;
kernRight = v;
lastChange = "2022-04-28 13:53:09 +0000";
layers = (
{
anchors = (
{
name = bottom;
pos = (211,0);
},
{
name = top;
pos = (283,510);
}
);
layerId = "6B2E1CAF-7E84-411F-9290-838331FE9C95";
shapes = (
{
closed = 1;
nodes = (
(317,0,l),
(510,510,l),
(361,510,l),
(226,118,ls),
(222,106,o),
(208,108,o),
(208,120,cs),
(211,236,l),
(201,510,l),
(56,510,l),
(104,0,l)
);
}
);
width = 494;
},
{
anchors = (
{
name = bottom;
pos = (200,0);
},
{
name = top;
pos = (270,500);
}
);
layerId = "3DBDB2C8-AF6E-4CF3-B71C-7D596AD599C8";
shapes = (
{
closed = 1;
nodes = (
(255,0,l),
(476,500,l),
(391,500,l),
(209,73,ls),
(205,64,o),
(197,66,o),
(197,73,cs),
(195,160,l),
(145,500,l),
(64,500,l),
(142,0,l)
);
}
);
width = 470;
}
);
unicode = 118;
userData = {
com.schriftgestaltung.Glyphs.ColorIndex = 3;
};
},
{
color = 6;
glyphname = w;
kernLeft = w;
kernRight = w;
lastChange = "2022-04-28 13:53:09 +0000";
layers = (
{
anchors = (
{
name = bottom;
pos = (304,0);
},
{
name = top;
pos = (376,510);
}
);
layerId = "6B2E1CAF-7E84-411F-9290-838331FE9C95";
shapes = (
{
closed = 1;
nodes = (
(234,0,l),
(331,238,ls),
(335,248,o),
(346,248,o),
(347,238,cs),
(374,0,l),
(524,0,l),
(676,510,l),
(535,510,l),
(483,328,l),
(462,206,ls),
(459,190,o),
(444,190,o),
(443,205,cs),
(420,510,l),
(328,510,l),
(217,202,ls),
(213,192,o),
(198,189,o),
(200,204,cs),
(214,326,l),
(215,510,l),
(76,510,l),
(84,0,l)
);
}
);
width = 680;
},
{
anchors = (
{
name = bottom;
pos = (255,0);
},
{
name = top;
pos = (325,500);
}
);
layerId = "3DBDB2C8-AF6E-4CF3-B71C-7D596AD599C8";
shapes = (
{
closed = 1;
nodes = (
(163,3,l),
(294,331,ls),
(300,347,o),
(310,347,o),
(312,331,cs),
(348,3,l),
(425,3,l),
(575,500,l),
(504,500,l),
(417,220,l),
(401,148,ls),
(398,136,o),
(387,135,o),
(386,148,cs),
(353,500,l),
(296,500,l),
(162,148,ls),
(157,135,o),
(147,136,o),
(148,148,cs),
(152,220,l),
(147,500,l),
(75,500,l),
(84,3,l)
);
}
);
width = 580;
}
);
unicode = 119;
userData = {
com.schriftgestaltung.Glyphs.ColorIndex = 3;
};
},
{
color = 6;
glyphname = x;
kernLeft = x;
kernRight = x;
lastChange = "2022-04-28 13:53:09 +0000";
layers = (
{
anchors = (
{
name = bottom;
pos = (218,0);
},
{
name = top;
pos = (290,510);
}
);
guides = (
{
pos = (226,346);
}
);
layerId = "6B2E1CAF-7E84-411F-9290-838331FE9C95";
metricLeft = "=v";
metricRight = "=v";
shapes = (
{
closed = 1;
nodes = (
(142,0,l),
(245,184,ls),
(252,196,o),
(264,197,o),
(264,184,cs),
(266,124,l),
(299,0,l),
(450,0,l),
(365,255,l),
(524,510,l),
(369,510,l),
(263,320,ls),
(256,308,o),
(247,308,o),
(246,320,cs),
(242,391,l),
(211,510,l),
(58,510,l),
(143,255,l),
(-16,0,l)
);
}
);
width = 508;
},
{
anchors = (
{
name = bottom;
pos = (201,0);
},
{
name = top;
pos = (271,500);
}
);
guides = (
{
pos = (227,346);
}
);
layerId = "3DBDB2C8-AF6E-4CF3-B71C-7D596AD599C8";
metricLeft = "=v";
metricRight = "=v";
shapes = (
{
closed = 1;
nodes = (
(90,0,l),
(228,194,ls),
(233,201,o),
(241,201,o),
(243,194,cs),
(262,124,l),
(314,0,l),
(406,0,l),
(286,250,l),
(478,500,l),
(382,500,l),
(245,306,ls),
(240,299,o),
(233,299,o),
(231,306,cs),
(215,369,l),
(158,500,l),
(66,500,l),
(188,250,l),
(-6,0,l)
);
}
);
width = 472;
}
);
metricLeft = V;
metricRight = V;
unicode = 120;
userData = {
com.schriftgestaltung.Glyphs.ColorIndex = 3;
com.schriftgestaltung.Glyphs.layer.leftMetricsKey = "==v";
com.schriftgestaltung.Glyphs.layer.rightMetricsKey = "==v";
com.schriftgestaltung.Glyphs.leftMetricsKey = V;
com.schriftgestaltung.Glyphs.rightMetricsKey = V;
com.typemytype.robofont.guides = (
{
angle = 0;
isGlobal = 0;
x = 200;
y = 346;
}
);
};
},
{
color = 6;
glyphname = y;
kernLeft = y;
kernRight = y;
lastChange = "2022-04-28 13:53:09 +0000";
layers = (
{
anchors = (
{
name = bottom;
pos = (196,0);
},
{
name = top;
pos = (268,510);
}
);
layerId = "6B2E1CAF-7E84-411F-9290-838331FE9C95";
shapes = (
{
closed = 1;
nodes = (
(111,-210,o),
(212,-146,o),
(277,8,cs),
(489,510,l),
(337,510,l),
(235,217,ls),
(231,205,o),
(218,205,o),
(218,217,cs),
(217,343,l),
(188,510,l),
(37,510,l),
(125,8,l),
(118,-12,ls),
(100,-63,o),
(42,-80,o),
(-29,-87,c),
(-3,-214,l)
);
}
);
width = 483;
},
{
anchors = (
{
name = bottom;
pos = (200,0);
},
{
name = top;
pos = (270,500);
}
);
layerId = "3DBDB2C8-AF6E-4CF3-B71C-7D596AD599C8";
shapes = (
{
closed = 1;
nodes = (
(123,-192,o),
(180,-137,o),
(220,-50,cs),
(475,500,l),
(390,500,l),
(225,133,ls),
(220,122,o),
(211,122,o),
(210,133,cs),
(202,231,l),
(138,500,l),
(56,500,l),
(171,12,l),
(151,-29,ls),
(119,-94,o),
(86,-127,o),
(15,-155,c),
(37,-221,l)
);
}
);
width = 470;
}
);
unicode = 121;
userData = {
com.schriftgestaltung.Glyphs.ColorIndex = 3;
com.schriftgestaltung.Glyphs.layer.rightMetricsKey = "==v";
com.schriftgestaltung.Glyphs.rightMetricsKey = v;
};
},
{
color = 6;
glyphname = z;
kernLeft = z;
kernRight = z;
lastChange = "2022-04-28 13:53:09 +0000";
layers = (
{
anchors = (
{
name = bottom;
pos = (204,0);
},
{
name = top;
pos = (276,510);
}
);
layerId = "6B2E1CAF-7E84-411F-9290-838331FE9C95";
shapes = (
{
closed = 1;
nodes = (
(398,0,l),
(415,120,l),
(203,120,ls),
(196,120,o),
(194,128,o),
(199,133,cs),
(253,178,l),
(457,397,l),
(470,510,l),
(81,510,l),
(64,390,l),
(275,390,ls),
(283,390,o),
(284,382,o),
(278,377,cs),
(231,339,l),
(23,114,l),
(9,0,l)
);
}
);
width = 479;
},
{
anchors = (
{
name = bottom;
pos = (169,0);
},
{
name = top;
pos = (239,500);
}
);
layerId = "3DBDB2C8-AF6E-4CF3-B71C-7D596AD599C8";
shapes = (
{
closed = 1;
nodes = (
(341,0,l),
(351,70,l),
(112,70,ls),
(106,70,o),
(103,76,o),
(108,81,cs),
(148,119,l),
(405,452,l),
(411,500,l),
(66,500,l),
(56,430,l),
(296,430,ls),
(303,430,o),
(305,425,o),
(299,419,cs),
(259,381,l),
(2,48,l),
(-4,0,l)
);
}
);
width = 437;
}
);
unicode = 122;
userData = {
com.schriftgestaltung.Glyphs.ColorIndex = 3;
};
},
{
color = 6;
glyphname = i.ss01;
kernLeft = i.ss01;
kernRight = i.ss01;
lastChange = "2022-04-28 13:53:09 +0000";
layers = (
{
anchors = (
{
name = bottom;
pos = (103,0);
}
);
layerId = "6B2E1CAF-7E84-411F-9290-838331FE9C95";
metricRight = "=i";
shapes = (
{
closed = 1;
nodes = (
(176,0,l),
(248,511,l),
(102,511,l),
(30,0,l)
);
},
{
closed = 1;
nodes = (
(257,578,l),
(275,700,l),
(129,700,l),
(111,578,l)
);
}
);
width = 282;
},
{
anchors = (
{
name = bottom;
pos = (90,0);
}
);
layerId = "3DBDB2C8-AF6E-4CF3-B71C-7D596AD599C8";
metricRight = "=i";
shapes = (
{
closed = 1;
nodes = (
(130,0,l),
(200,500,l),
(120,500,l),
(50,0,l)
);
},
{
closed = 1;
nodes = (
(214,600,l),
(228,700,l),
(148,700,l),
(134,600,l)
);
}
);
width = 250;
}
);
metricLeft = h;
metricRight = i;
userData = {
com.schriftgestaltung.Glyphs.layer.rightMetricsKey = "==i";
com.schriftgestaltung.Glyphs.leftMetricsKey = "=n";
com.schriftgestaltung.Glyphs.rightMetricsKey = i;
};
},
{
color = 6;
glyphname = idotless.ss01;
kernLeft = i;
kernRight = i;
lastChange = "2022-04-28 13:53:09 +0000";
layers = (
{
anchors = (
{
name = bottom;
pos = (104,0);
},
{
name = ogonek;
pos = (179,0);
},
{
name = top;
pos = (176,510);
}
);
layerId = "6B2E1CAF-7E84-411F-9290-838331FE9C95";
shapes = (
{
closed = 1;
nodes = (
(179,0,l),
(251,510,l),
(101,510,l),
(29,0,l)
);
}
);
width = 280;
},
{
anchors = (
{
name = bottom;
pos = (90,0);
},
{
name = ogonek;
pos = (130,0);
},
{
name = top;
pos = (160,500);
}
);
layerId = "3DBDB2C8-AF6E-4CF3-B71C-7D596AD599C8";
shapes = (
{
closed = 1;
nodes = (
(130,0,l),
(200,500,l),
(120,500,l),
(50,0,l)
);
}
);
width = 250;
}
);
},
{
color = 6;
glyphname = j.ss01;
kernLeft = j.ss01;
kernRight = j.ss01;
lastChange = "2022-04-28 13:53:09 +0000";
layers = (
{
layerId = "6B2E1CAF-7E84-411F-9290-838331FE9C95";
shapes = (
{
closed = 1;
nodes = (
(34,-255,o),
(156,-179,o),
(183,10,cs),
(253,511,l),
(106,511,l),
(36,12,ls),
(23,-80,o),
(-35,-127,o),
(-92,-134,c),
(-72,-262,l)
);
},
{
closed = 1;
nodes = (
(261,578,l),
(279,700,l),
(133,700,l),
(115,578,l)
);
}
);
width = 297;
},
{
layerId = "3DBDB2C8-AF6E-4CF3-B71C-7D596AD599C8";
shapes = (
{
closed = 1;
nodes = (
(62,-230,o),
(122,-164,o),
(141,-37,cs),
(217,500,l),
(136,500,l),
(61,-33,ls),
(49,-122,o),
(3,-176,o),
(-54,-193,c),
(-30,-263,l)
);
},
{
closed = 1;
nodes = (
(230,600,l),
(244,700,l),
(164,700,l),
(150,600,l)
);
}
);
width = 267;
}
);
},
{
color = 6;
glyphname = f_f;
kernLeft = f;
kernRight = f;
lastChange = "2022-04-28 13:53:09 +0000";
layers = (
{
anchors = (
{
name = caret_1;
pos = (365,0);
}
);
background = {
shapes = (
{
closed = 1;
nodes = (
(256,0,l),
(256,386,l),
(360,386,l),
(360,510,l),
(256,510,l),
(256,566,ls),
(256,602,o),
(280,627,o),
(349,627,cs),
(380,627,o),
(419,616,o),
(453,588,c),
(500,690,l),
(459,723,o),
(396,743,o),
(327,743,cs),
(193,743,o),
(106,674,o),
(106,556,cs),
(106,510,l),
(20,510,l),
(20,386,l),
(106,386,l),
(106,0,l)
);
},
{
closed = 1;
nodes = (
(596,0,l),
(596,386,l),
(700,386,l),
(700,510,l),
(596,510,l),
(596,576,ls),
(596,612,o),
(620,637,o),
(689,637,cs),
(717,637,o),
(752,629,o),
(783,608,c),
(830,700,l),
(791,733,o),
(732,753,o),
(667,753,cs),
(533,753,o),
(446,688,o),
(446,576,cs),
(446,510,l),
(360,510,l),
(360,386,l),
(446,386,l),
(446,0,l)
);
}
);
};
layerId = "6B2E1CAF-7E84-411F-9290-838331FE9C95";
metricRight = "=f";
shapes = (
{
closed = 1;
nodes = (
(528,0,l),
(582,386,l),
(686,386,l),
(705,510,l),
(600,510,l),
(605,553,ls),
(611,604,o),
(641,632,o),
(702,632,cs),
(733,632,o),
(777,623,o),
(813,597,c),
(854,706,l),
(819,734,o),
(764,753,o),
(698,753,cs),
(567,753,o),
(474,688,o),
(458,570,cs),
(450,510,l),
(365,510,l),
(346,386,l),
(432,386,l),
(378,0,l)
);
},
{
closed = 1;
nodes = (
(210,0,l),
(264,386,l),
(368,386,l),
(387,510,l),
(282,510,l),
(287,553,ls),
(293,604,o),
(323,632,o),
(384,632,cs),
(415,632,o),
(459,623,o),
(495,597,c),
(536,706,l),
(501,734,o),
(446,753,o),
(380,753,cs),
(249,753,o),
(157,688,o),
(140,570,cs),
(132,510,l),
(47,510,l),
(28,386,l),
(114,386,l),
(60,0,l)
);
}
);
width = 764;
},
{
anchors = (
{
name = caret_1;
pos = (303,0);
}
);
background = {
shapes = (
{
closed = 1;
nodes = (
(479,0,l),
(479,430,l),
(600,430,l),
(600,500,l),
(479,500,l),
(479,585,ls),
(479,647,o),
(526,684,o),
(604,684,cs),
(649,684,o),
(686,669,o),
(716,640,c),
(750,703,l),
(715,732,o),
(662,753,o),
(600,753,cs),
(461,753,o),
(402,671,o),
(402,585,cs),
(402,500,l),
(300,500,l),
(300,430,l),
(402,430,l),
(402,0,l)
);
},
{
closed = 1;
nodes = (
(179,0,l),
(179,430,l),
(300,430,l),
(300,500,l),
(179,500,l),
(179,575,ls),
(179,637,o),
(226,674,o),
(304,674,cs),
(353,674,o),
(393,656,o),
(426,620,c),
(450,693,l),
(415,722,o),
(362,743,o),
(300,743,cs),
(161,743,o),
(102,661,o),
(102,575,cs),
(102,500,l),
(0,500,l),
(0,430,l),
(102,430,l),
(102,0,l)
);
}
);
};
layerId = "3DBDB2C8-AF6E-4CF3-B71C-7D596AD599C8";
metricRight = "=f";
shapes = (
{
closed = 1;
nodes = (
(416,0,l),
(476,430,l),
(607,430,l),
(617,500,l),
(486,500,l),
(495,563,ls),
(506,640,o),
(551,681,o),
(614,681,cs),
(654,681,o),
(688,671,o),
(732,646,c),
(758,710,l),
(717,735,o),
(666,753,o),
(617,753,cs),
(493,753,o),
(434,676,o),
(421,584,cs),
(409,500,l),
(307,500,l),
(297,430,l),
(399,430,l),
(339,0,l)
);
},
{
closed = 1;
nodes = (
(144,0,l),
(204,430,l),
(335,430,l),
(345,500,l),
(214,500,l),
(223,563,ls),
(232,640,o),
(279,681,o),
(342,681,cs),
(382,681,o),
(416,671,o),
(460,646,c),
(486,710,l),
(445,735,o),
(394,753,o),
(345,753,cs),
(221,753,o),
(161,676,o),
(149,584,cs),
(137,500,l),
(35,500,l),
(25,430,l),
(127,430,l),
(67,0,l)
);
}
);
width = 659;
}
);
metricLeft = f;
metricRight = f;
userData = {
com.schriftgestaltung.Glyphs.layer.rightMetricsKey = "==f";
com.schriftgestaltung.Glyphs.leftMetricsKey = f;
com.schriftgestaltung.Glyphs.rightMetricsKey = f;
};
},
{
color = 6;
glyphname = f_f_i;
kernLeft = f;
kernRight = i;
lastChange = "2022-04-28 13:53:09 +0000";
layers = (
{
anchors = (
{
name = caret_1;
pos = (321.333,0);
},
{
name = caret_2;
pos = (642.667,0);
}
);
background = {
shapes = (
{
closed = 1;
nodes = (
(256,0,l),
(256,386,l),
(360,386,l),
(360,510,l),
(256,510,l),
(256,566,ls),
(256,602,o),
(280,627,o),
(349,627,cs),
(380,627,o),
(419,616,o),
(453,588,c),
(500,690,l),
(459,723,o),
(396,743,o),
(327,743,cs),
(193,743,o),
(106,674,o),
(106,556,cs),
(106,510,l),
(20,510,l),
(20,386,l),
(106,386,l),
(106,0,l)
);
},
{
closed = 1;
nodes = (
(596,0,l),
(596,386,l),
(700,386,l),
(700,510,l),
(596,510,l),
(596,576,ls),
(596,612,o),
(620,637,o),
(689,637,cs),
(717,637,o),
(752,629,o),
(783,608,c),
(830,700,l),
(791,733,o),
(732,753,o),
(667,753,cs),
(533,753,o),
(446,694,o),
(446,576,cs),
(446,510,l),
(360,510,l),
(360,386,l),
(446,386,l),
(446,0,l)
);
},
{
closed = 1;
nodes = (
(916,0,l),
(916,510,l),
(676,510,l),
(676,386,l),
(766,386,l),
(766,0,l)
);
},
{
closed = 1;
nodes = (
(916,578,l),
(916,700,l),
(766,700,l),
(766,578,l)
);
}
);
};
layerId = "6B2E1CAF-7E84-411F-9290-838331FE9C95";
metricRight = "=i";
shapes = (
{
closed = 1;
nodes = (
(528,0,l),
(582,386,l),
(686,386,l),
(705,510,l),
(600,510,l),
(605,553,ls),
(611,604,o),
(641,632,o),
(712,632,cs),
(753,632,o),
(777,623,o),
(813,597,c),
(867,701,l),
(829,732,o),
(769,753,o),
(698,753,cs),
(567,753,o),
(474,688,o),
(458,570,cs),
(450,510,l),
(365,510,l),
(346,386,l),
(432,386,l),
(378,0,l)
);
},
{
closed = 1;
nodes = (
(210,0,l),
(264,386,l),
(368,386,l),
(387,510,l),
(282,510,l),
(287,553,ls),
(293,604,o),
(323,632,o),
(384,632,cs),
(415,632,o),
(459,623,o),
(495,597,c),
(536,706,l),
(501,734,o),
(446,753,o),
(380,753,cs),
(249,753,o),
(157,688,o),
(140,570,cs),
(132,510,l),
(47,510,l),
(28,386,l),
(114,386,l),
(60,0,l)
);
},
{
closed = 1;
nodes = (
(858,0,l),
(930,510,l),
(690,510,l),
(672,386,l),
(762,386,l),
(708,0,l)
);
},
{
closed = 1;
nodes = (
(939,578,l),
(957,700,l),
(807,700,l),
(789,578,l)
);
}
);
width = 964;
},
{
anchors = (
{
name = caret_1;
pos = (266,0);
},
{
name = caret_2;
pos = (541,0);
}
);
background = {
shapes = (
{
closed = 1;
nodes = (
(179,0,l),
(179,430,l),
(300,430,l),
(300,500,l),
(179,500,l),
(179,575,ls),
(179,637,o),
(226,674,o),
(304,674,cs),
(353,674,o),
(393,656,o),
(426,620,c),
(450,693,l),
(415,722,o),
(362,743,o),
(300,743,cs),
(161,743,o),
(102,661,o),
(102,575,cs),
(102,500,l),
(0,500,l),
(0,430,l),
(102,430,l),
(102,0,l)
);
},
{
closed = 1;
nodes = (
(479,0,l),
(479,430,l),
(600,430,l),
(600,500,l),
(479,500,l),
(479,585,ls),
(479,647,o),
(526,684,o),
(604,684,cs),
(645,684,o),
(679,669,o),
(706,640,c),
(740,700,l),
(707,732,o),
(658,753,o),
(600,753,cs),
(461,753,o),
(402,671,o),
(402,585,cs),
(402,500,l),
(300,500,l),
(300,430,l),
(402,430,l),
(402,0,l)
);
},
{
closed = 1;
nodes = (
(772,0,l),
(772,500,l),
(572,500,l),
(572,430,l),
(692,430,l),
(692,0,l)
);
},
{
closed = 1;
nodes = (
(772,600,l),
(772,700,l),
(692,700,l),
(692,600,l)
);
}
);
};
layerId = "3DBDB2C8-AF6E-4CF3-B71C-7D596AD599C8";
metricRight = "=i";
shapes = (
{
closed = 1;
nodes = (
(416,0,l),
(476,430,l),
(607,430,l),
(617,500,l),
(486,500,l),
(495,563,ls),
(506,640,o),
(551,681,o),
(614,681,cs),
(657,681,o),
(691,675,o),
(741,636,c),
(767,700,l),
(720,738,o),
(669,753,o),
(617,753,cs),
(493,753,o),
(434,676,o),
(421,584,cs),
(409,500,l),
(307,500,l),
(297,430,l),
(399,430,l),
(339,0,l)
);
},
{
closed = 1;
nodes = (
(144,0,l),
(204,430,l),
(335,430,l),
(345,500,l),
(214,500,l),
(223,563,ls),
(232,640,o),
(279,681,o),
(342,681,cs),
(382,681,o),
(416,671,o),
(460,646,c),
(486,710,l),
(445,735,o),
(394,753,o),
(345,753,cs),
(221,753,o),
(161,676,o),
(149,584,cs),
(137,500,l),
(35,500,l),
(25,430,l),
(127,430,l),
(67,0,l)
);
},
{
closed = 1;
nodes = (
(697,0,l),
(767,500,l),
(617,500,l),
(607,430,l),
(677,430,l),
(617,0,l)
);
},
{
closed = 1;
nodes = (
(781,600,l),
(795,700,l),
(715,700,l),
(701,600,l)
);
}
);
width = 817;
}
);
metricLeft = f;
metricRight = i;
userData = {
com.schriftgestaltung.Glyphs.layer.rightMetricsKey = "==i";
com.schriftgestaltung.Glyphs.leftMetricsKey = f;
com.schriftgestaltung.Glyphs.rightMetricsKey = i;
};
},
{
color = 6;
glyphname = f_f_l;
kernLeft = f;
kernRight = l;
lastChange = "2022-04-28 13:53:09 +0000";
layers = (
{
anchors = (
{
name = caret_1;
pos = (314.333,0);
},
{
name = caret_2;
pos = (628.667,0);
}
);
background = {
shapes = (
{
closed = 1;
nodes = (
(256,0,l),
(256,386,l),
(360,386,l),
(360,510,l),
(256,510,l),
(256,566,ls),
(256,602,o),
(280,627,o),
(349,627,cs),
(380,627,o),
(419,616,o),
(453,588,c),
(500,690,l),
(459,723,o),
(396,743,o),
(327,743,cs),
(193,743,o),
(106,674,o),
(106,556,cs),
(106,510,l),
(20,510,l),
(20,386,l),
(106,386,l),
(106,0,l)
);
},
{
closed = 1;
nodes = (
(596,0,l),
(596,386,l),
(720,386,l),
(720,510,l),
(596,510,l),
(596,576,ls),
(596,612,o),
(614,637,o),
(669,637,cs),
(703,637,o),
(746,626,o),
(783,598,c),
(820,690,l),
(781,729,o),
(719,753,o),
(654,753,cs),
(529,753,o),
(446,694,o),
(446,576,cs),
(446,510,l),
(360,510,l),
(360,386,l),
(446,386,l),
(446,0,l)
);
},
{
closed = 1;
nodes = (
(991,1,l),
(991,130,l),
(937,130,ls),
(928,130,o),
(921,137,o),
(921,146,cs),
(921,750,l),
(775,750,l),
(775,120,ls),
(775,50,o),
(825,1,o),
(895,1,cs)
);
}
);
};
layerId = "6B2E1CAF-7E84-411F-9290-838331FE9C95";
metricLeft = "=f";
shapes = (
{
closed = 1;
nodes = (
(210,0,l),
(264,386,l),
(368,386,l),
(387,510,l),
(282,510,l),
(287,553,ls),
(293,604,o),
(323,632,o),
(384,632,cs),
(415,632,o),
(459,623,o),
(495,597,c),
(536,706,l),
(501,734,o),
(446,753,o),
(380,753,cs),
(249,753,o),
(157,688,o),
(140,570,cs),
(132,510,l),
(47,510,l),
(28,386,l),
(114,386,l),
(60,0,l)
);
},
{
closed = 1;
nodes = (
(528,0,l),
(582,386,l),
(686,386,l),
(705,510,l),
(600,510,l),
(605,553,ls),
(611,604,o),
(641,632,o),
(702,632,cs),
(733,632,o),
(777,623,o),
(813,597,c),
(823,674,l),
(795,721,o),
(751,753,o),
(679,753,cs),
(567,753,o),
(474,688,o),
(458,570,cs),
(450,510,l),
(365,510,l),
(346,386,l),
(432,386,l),
(378,0,l)
);
},
{
closed = 1;
nodes = (
(887,1,l),
(905,130,l),
(856,130,ls),
(841,130,o),
(834,133,o),
(837,151,cs),
(923,750,l),
(778,750,l),
(689,124,ls),
(679,53,o),
(725,1,o),
(795,1,cs)
);
}
);
width = 943;
},
{
anchors = (
{
name = caret_1;
pos = (268,0);
},
{
name = caret_2;
pos = (567,0);
}
);
layerId = "3DBDB2C8-AF6E-4CF3-B71C-7D596AD599C8";
shapes = (
{
closed = 1;
nodes = (
(416,0,l),
(476,430,l),
(607,430,l),
(617,500,l),
(486,500,l),
(495,563,ls),
(506,640,o),
(551,681,o),
(614,681,cs),
(654,681,o),
(688,671,o),
(732,646,c),
(758,710,l),
(717,735,o),
(666,753,o),
(617,753,cs),
(493,753,o),
(434,676,o),
(421,584,cs),
(409,500,l),
(307,500,l),
(297,430,l),
(399,430,l),
(339,0,l)
);
},
{
closed = 1;
nodes = (
(144,0,l),
(204,430,l),
(335,430,l),
(345,500,l),
(214,500,l),
(223,563,ls),
(232,640,o),
(279,681,o),
(342,681,cs),
(382,681,o),
(416,671,o),
(460,646,c),
(486,710,l),
(445,735,o),
(394,753,o),
(345,753,cs),
(221,753,o),
(161,676,o),
(149,584,cs),
(137,500,l),
(35,500,l),
(25,430,l),
(127,430,l),
(67,0,l)
);
},
{
closed = 1;
nodes = (
(765,0,l),
(775,70,l),
(732,70,ls),
(711,70,o),
(702,83,o),
(705,106,cs),
(795,750,l),
(715,750,l),
(625,110,ls),
(616,44,o),
(657,0,o),
(726,0,cs)
);
}
);
width = 835;
}
);
metricLeft = f;
metricRight = l;
userData = {
com.schriftgestaltung.Glyphs.leftMetricsKey = f;
com.schriftgestaltung.Glyphs.rightMetricsKey = l;
};
},
{
color = 6;
glyphname = fi;
kernLeft = f;
kernRight = i;
lastChange = "2022-04-28 13:53:09 +0000";
layers = (
{
anchors = (
{
name = caret_1;
pos = (326,0);
}
);
layerId = "6B2E1CAF-7E84-411F-9290-838331FE9C95";
shapes = (
{
closed = 1;
nodes = (
(210,0,l),
(264,386,l),
(368,386,l),
(387,510,l),
(282,510,l),
(287,553,ls),
(293,604,o),
(323,632,o),
(394,632,cs),
(435,632,o),
(459,623,o),
(495,597,c),
(549,701,l),
(511,732,o),
(451,753,o),
(380,753,cs),
(249,753,o),
(156,688,o),
(140,570,cs),
(132,510,l),
(47,510,l),
(28,386,l),
(114,386,l),
(60,0,l)
);
},
{
closed = 1;
nodes = (
(540,0,l),
(612,510,l),
(372,510,l),
(354,386,l),
(444,386,l),
(390,0,l)
);
},
{
closed = 1;
nodes = (
(621,578,l),
(639,700,l),
(489,700,l),
(471,578,l)
);
}
);
width = 646;
},
{
anchors = (
{
name = caret_1;
pos = (255,0);
}
);
layerId = "3DBDB2C8-AF6E-4CF3-B71C-7D596AD599C8";
shapes = (
{
closed = 1;
nodes = (
(144,0,l),
(204,430,l),
(335,430,l),
(345,500,l),
(214,500,l),
(223,563,ls),
(234,640,o),
(279,681,o),
(342,681,cs),
(385,681,o),
(419,675,o),
(469,636,c),
(495,700,l),
(448,738,o),
(397,753,o),
(345,753,cs),
(221,753,o),
(162,676,o),
(149,584,cs),
(137,500,l),
(35,500,l),
(25,430,l),
(127,430,l),
(67,0,l)
);
},
{
closed = 1;
nodes = (
(425,0,l),
(495,500,l),
(345,500,l),
(335,430,l),
(405,430,l),
(345,0,l)
);
},
{
closed = 1;
nodes = (
(509,600,l),
(523,700,l),
(443,700,l),
(429,600,l)
);
}
);
width = 545;
}
);
metricLeft = f;
metricRight = i;
unicode = 64257;
userData = {
com.schriftgestaltung.Glyphs.leftMetricsKey = f;
com.schriftgestaltung.Glyphs.rightMetricsKey = i;
};
},
{
color = 6;
glyphname = fl;
kernLeft = f;
kernRight = l;
lastChange = "2022-04-28 13:53:09 +0000";
layers = (
{
anchors = (
{
name = caret_1;
pos = (313,0);
}
);
layerId = "6B2E1CAF-7E84-411F-9290-838331FE9C95";
shapes = (
{
closed = 1;
nodes = (
(210,0,l),
(264,386,l),
(368,386,l),
(387,510,l),
(282,510,l),
(287,553,ls),
(293,604,o),
(323,632,o),
(384,632,cs),
(415,632,o),
(459,623,o),
(495,597,c),
(536,706,l),
(501,734,o),
(446,753,o),
(380,753,cs),
(249,753,o),
(156,688,o),
(140,570,cs),
(132,510,l),
(47,510,l),
(28,386,l),
(114,386,l),
(60,0,l)
);
},
{
closed = 1;
nodes = (
(569,1,l),
(587,130,l),
(538,130,ls),
(523,130,o),
(516,133,o),
(519,151,cs),
(605,750,l),
(460,750,l),
(371,124,ls),
(361,53,o),
(407,1,o),
(477,1,cs)
);
}
);
width = 625;
},
{
anchors = (
{
name = caret_1;
pos = (282,0);
}
);
layerId = "3DBDB2C8-AF6E-4CF3-B71C-7D596AD599C8";
shapes = (
{
closed = 1;
nodes = (
(144,0,l),
(204,430,l),
(335,430,l),
(345,500,l),
(214,500,l),
(223,563,ls),
(234,640,o),
(279,681,o),
(342,681,cs),
(382,681,o),
(416,671,o),
(460,646,c),
(486,710,l),
(445,735,o),
(394,753,o),
(345,753,cs),
(221,753,o),
(162,676,o),
(149,584,cs),
(137,500,l),
(35,500,l),
(25,430,l),
(127,430,l),
(67,0,l)
);
},
{
closed = 1;
nodes = (
(493,0,l),
(503,70,l),
(460,70,ls),
(439,70,o),
(430,83,o),
(433,106,cs),
(523,750,l),
(443,750,l),
(353,110,ls),
(344,44,o),
(385,0,o),
(454,0,cs)
);
}
);
width = 563;
}
);
metricLeft = f;
metricRight = l;
unicode = 64258;
userData = {
com.schriftgestaltung.Glyphs.leftMetricsKey = f;
com.schriftgestaltung.Glyphs.rightMetricsKey = l;
};
},
{
color = 6;
glyphname = ordfeminine;
kernLeft = ordfeminine;
kernRight = ordfeminine;
lastChange = "2022-04-28 13:53:09 +0000";
layers = (
{
background = {
shapes = (
{
closed = 1;
nodes = (
(422,458,l),
(370,485,l),
(412,804,l),
(328,795,ls),
(322,794,o),
(318,794,o),
(314,796,cs),
(284,807,l),
(265,809,o),
(253,810,o),
(241,810,cs),
(159,810,o),
(90,772,o),
(49,698,cs),
(22,649,o),
(12,578,o),
(12,517,cs),
(12,400,o),
(102,353,o),
(168,353,cs),
(202,353,o),
(216,359,o),
(258,375,c),
(273,392,ls),
(275,395,o),
(280,395,o),
(284,393,cs),
(433,320,l),
(334,288,l)
);
},
{
closed = 1;
nodes = (
(137,568,o),
(142,609,o),
(159,645,cs),
(174,677,o),
(208,689,o),
(242,689,cs),
(254,689,o),
(264,688,o),
(279,685,c),
(250,496,l),
(221,480,o),
(202,475,o),
(188,475,cs),
(156,475,o),
(137,493,o),
(137,531,cs)
);
}
);
};
layerId = "6B2E1CAF-7E84-411F-9290-838331FE9C95";
shapes = (
{
closed = 1;
nodes = (
(202,353,o),
(216,359,o),
(258,375,c),
(273,392,ls),
(275,395,o),
(280,395,o),
(284,393,cs),
(367,352,l),
(422,458,l),
(370,485,l),
(412,804,l),
(328,795,ls),
(322,794,o),
(318,794,o),
(314,796,cs),
(284,807,l),
(265,809,o),
(253,810,o),
(241,810,cs),
(159,810,o),
(90,772,o),
(49,698,cs),
(22,649,o),
(12,578,o),
(12,517,cs),
(12,400,o),
(102,353,o),
(168,353,cs)
);
},
{
closed = 1;
nodes = (
(156,475,o),
(137,493,o),
(137,531,cs),
(137,568,o),
(142,609,o),
(159,645,cs),
(174,677,o),
(208,689,o),
(242,689,cs),
(254,689,o),
(264,688,o),
(279,685,c),
(250,496,l),
(221,480,o),
(202,475,o),
(188,475,cs)
);
}
);
width = 451;
},
{
layerId = "3DBDB2C8-AF6E-4CF3-B71C-7D596AD599C8";
shapes = (
{
closed = 1;
nodes = (
(210,361,o),
(228,364,o),
(268,387,c),
(284,405,ls),
(287,408,o),
(292,409,o),
(296,407,cs),
(390,363,l),
(418,421,l),
(369,445,l),
(418,791,l),
(370,786,ls),
(364,785,o),
(361,785,o),
(357,786,cs),
(319,794,l),
(304,795,o),
(292,796,o),
(275,796,cs),
(197,796,o),
(129,751,o),
(94,684,cs),
(66,630,o),
(50,567,o),
(50,503,cs),
(50,387,o),
(131,361,o),
(185,361,cs)
);
},
{
closed = 1;
nodes = (
(162,430,o),
(119,447,o),
(119,505,cs),
(119,571,o),
(133,611,o),
(151,653,cs),
(172,702,o),
(217,732,o),
(280,732,cs),
(298,732,o),
(313,730,o),
(337,724,c),
(304,476,l),
(247,435,o),
(215,430,o),
(194,430,cs)
);
}
);
width = 443;
},
{
associatedMasterId = "6B2E1CAF-7E84-411F-9290-838331FE9C95";
background = {
anchors = (
{
name = bottom;
pos = (246,0);
},
{
name = ogonek;
pos = (528,13);
},
{
name = top;
pos = (318,510);
}
);
shapes = (
{
closed = 1;
nodes = (
(426,407,l),
(384,476,l),
(384,649,ls),
(384,742,o),
(325,810,o),
(198,810,cs),
(140,810,o),
(88,793,o),
(43,768,c),
(81,665,l),
(115,684,o),
(151,698,o),
(187,698,cs),
(235,698,o),
(259,682,o),
(259,649,cs),
(259,611,l),
(192,611,ls),
(108,611,o),
(40,567,o),
(40,484,cs),
(40,409,o),
(90,354,o),
(173,354,cs),
(218,354,o),
(251,369,o),
(277,389,cs),
(285,395,o),
(292,394,o),
(298,386,cs),
(325,350,l)
);
},
{
closed = 1;
nodes = (
(179,450,o),
(160,466,o),
(160,485,cs),
(160,504,o),
(170,515,o),
(193,515,cs),
(218,515,l),
(244,524,ls),
(253,527,o),
(259,525,o),
(259,519,cs),
(259,513,ls),
(259,476,o),
(239,450,o),
(205,450,cs)
);
}
);
};
layerId = "C592034D-45BD-4393-98F2-4813C95854BE";
name = "28 Apr 22 at 14:51";
shapes = (
{
closed = 1;
nodes = (
(422,458,l),
(370,485,l),
(412,804,l),
(328,795,ls),
(322,794,o),
(318,794,o),
(314,796,cs),
(284,807,l),
(265,809,o),
(253,810,o),
(241,810,cs),
(159,810,o),
(90,772,o),
(49,698,cs),
(22,649,o),
(12,578,o),
(12,517,cs),
(12,400,o),
(102,353,o),
(168,353,cs),
(202,353,o),
(216,359,o),
(258,375,c),
(273,392,ls),
(275,395,o),
(280,395,o),
(284,393,cs),
(433,320,l),
(334,288,l)
);
},
{
closed = 1;
nodes = (
(137,568,o),
(142,609,o),
(159,645,cs),
(174,677,o),
(208,689,o),
(242,689,cs),
(254,689,o),
(264,688,o),
(279,685,c),
(250,496,l),
(221,480,o),
(202,475,o),
(188,475,cs),
(156,475,o),
(137,493,o),
(137,531,cs)
);
}
);
width = 451;
}
);
unicode = 170;
},
{
color = 6;
glyphname = ordmasculine;
kernLeft = ordmasculine;
kernRight = ordmasculine;
lastChange = "2022-04-28 13:53:09 +0000";
layers = (
{
background = {
shapes = (
{
closed = 1;
nodes = (
(346,344,o),
(413,413,o),
(425,499,cs),
(429,527,o),
(429,553,o),
(429,577,cs),
(429,604,o),
(427,629,o),
(425,657,cs),
(419,747,o),
(346,813,o),
(237,813,cs),
(127,813,o),
(61,746,o),
(49,657,cs),
(46,628,o),
(45,604,o),
(45,577,cs),
(45,553,o),
(47,527,o),
(49,499,cs),
(56,410,o),
(127,344,o),
(237,344,cs)
);
},
{
closed = 1;
nodes = (
(204,462,o),
(187,489,o),
(185,524,cs),
(183,564,o),
(180,594,o),
(184,635,cs),
(188,669,o),
(204,698,o),
(237,698,cs),
(270,698,o),
(287,670,o),
(290,635,cs),
(294,594,o),
(295,564,o),
(289,523,cs),
(285,491,o),
(270,462,o),
(237,462,cs)
);
}
);
};
layerId = "6B2E1CAF-7E84-411F-9290-838331FE9C95";
shapes = (
{
closed = 1;
nodes = (
(363,345,o),
(424,407,o),
(452,484,cs),
(460,506,o),
(467,537,o),
(472,568,cs),
(477,596,o),
(480,625,o),
(480,646,cs),
(480,727,o),
(415,813,o),
(294,813,cs),
(158,813,o),
(109,746,o),
(82,675,cs),
(74,655,o),
(68,627,o),
(63,598,cs),
(58,566,o),
(55,534,o),
(55,512,cs),
(55,432,o),
(118,345,o),
(238,345,cs)
);
},
{
closed = 1;
nodes = (
(217,463,o),
(193,485,o),
(193,528,cs),
(193,556,o),
(205,618,o),
(214,641,cs),
(229,679,o),
(258,695,o),
(284,695,cs),
(315,695,o),
(342,675,o),
(342,634,cs),
(342,601,o),
(332,538,o),
(321,516,cs),
(304,481,o),
(288,463,o),
(248,463,cs)
);
}
);
width = 474;
},
{
layerId = "3DBDB2C8-AF6E-4CF3-B71C-7D596AD599C8";
shapes = (
{
closed = 1;
nodes = (
(346,354,o),
(410,417,o),
(432,498,cs),
(440,528,o),
(444,551,o),
(447,572,cs),
(451,600,o),
(453,621,o),
(453,649,cs),
(453,738,o),
(404,802,o),
(302,802,cs),
(203,802,o),
(139,743,o),
(117,659,cs),
(110,628,o),
(105,604,o),
(102,582,cs),
(98,555,o),
(97,533,o),
(97,508,cs),
(97,420,o),
(145,354,o),
(248,354,cs)
);
},
{
closed = 1;
nodes = (
(191,420,o),
(167,457,o),
(168,503,cs),
(171,556,o),
(176,594,o),
(188,643,cs),
(199,694,o),
(240,737,o),
(302,737,cs),
(359,737,o),
(383,698,o),
(381,653,cs),
(378,598,o),
(370,560,o),
(359,512,cs),
(350,461,o),
(310,420,o),
(249,420,cs)
);
}
);
width = 457;
}
);
unicode = 186;
},
{
color = 6;
glyphname = "Be-cy";
kernLeft = H;
kernRight = B;
lastChange = "2022-04-28 13:53:09 +0000";
layers = (
{
background = {
shapes = (
{
closed = 1;
nodes = (
(70,700,l),
(70,0,l),
(329,0,ls),
(471,0,o),
(552,72,o),
(552,198,cs),
(552,281,o),
(513,341,o),
(445,362,c),
(501,389,o),
(533,442,o),
(533,509,cs),
(533,631,o),
(451,700,o),
(309,700,cs)
);
},
{
closed = 1;
nodes = (
(379,285,o),
(407,252,o),
(407,205,cs),
(407,156,o),
(379,130,o),
(329,130,cs),
(215,130,l),
(215,285,l),
(329,285,ls)
);
},
{
closed = 1;
nodes = (
(360,570,o),
(389,543,o),
(389,495,cs),
(389,448,o),
(360,415,o),
(309,415,cs),
(215,415,l),
(215,570,l),
(309,570,ls)
);
}
);
};
layerId = "6B2E1CAF-7E84-411F-9290-838331FE9C95";
shapes = (
{
closed = 1;
nodes = (
(310,0,ls),
(461,0,o),
(545,83,o),
(545,233,cs),
(545,363,o),
(461,435,o),
(310,435,cs),
(240,435,l),
(258,560,l),
(552,560,l),
(572,700,l),
(133,700,l),
(34,0,l)
);
},
{
closed = 1;
nodes = (
(222,305,l),
(310,305,ls),
(368,305,o),
(400,275,o),
(400,222,cs),
(400,163,o),
(368,130,o),
(310,130,cs),
(197,130,l)
);
}
);
width = 583;
},
{
background = {
anchors = (
{
name = bottom;
pos = (282,0);
},
{
name = center;
pos = (310,530);
},
{
name = top;
pos = (282,670);
},
{
name = topleft;
pos = (20,700);
}
);
shapes = (
{
ref = B;
}
);
};
layerId = "3DBDB2C8-AF6E-4CF3-B71C-7D596AD599C8";
shapes = (
{
closed = 1;
nodes = (
(285,0,ls),
(413,0,o),
(505,72,o),
(505,213,cs),
(505,333,o),
(439,406,o),
(288,406,cs),
(190,406,l),
(220,622,l),
(514,622,l),
(525,700,l),
(153,700,l),
(55,0,l)
);
},
{
closed = 1;
nodes = (
(180,336,l),
(288,336,ls),
(384,336,o),
(428,293,o),
(428,208,cs),
(428,131,o),
(373,70,o),
(288,70,cs),
(143,70,l)
);
}
);
width = 563;
}
);
metricLeft = H;
metricRight = B;
unicode = 1041;
userData = {
com.schriftgestaltung.Glyphs.ColorIndex = 4;
com.schriftgestaltung.Glyphs.leftMetricsKey = H;
com.schriftgestaltung.Glyphs.rightMetricsKey = B;
com.typemytype.robofont.layerData = {
background = {
anchors = (
{
name = bottom;
x = 282;
y = 0;
},
{
name = top;
x = 282;
y = 670;
},
{
name = topleft;
x = 20;
y = 700;
},
{
name = center;
x = 310;
y = 530;
}
);
components = (
);
contours = (
{
points = (
{
segmentType = line;
smooth = 0;
x = 90;
y = 700;
},
{
segmentType = line;
smooth = 0;
x = 90;
y = 0;
},
{
segmentType = line;
smooth = 1;
x = 307;
y = 0;
},
{
smooth = 0;
x = 437;
y = 0;
},
{
smooth = 0;
x = 513;
y = 69;
},
{
segmentType = curve;
smooth = 1;
x = 513;
y = 190;
},
{
smooth = 0;
x = 513;
y = 269;
},
{
smooth = 0;
x = 471;
y = 331;
},
{
segmentType = curve;
smooth = 0;
x = 404;
y = 355;
},
{
smooth = 0;
x = 462;
y = 382;
},
{
smooth = 0;
x = 499;
y = 436;
},
{
segmentType = curve;
smooth = 1;
x = 499;
y = 510;
},
{
smooth = 0;
x = 499;
y = 631;
},
{
smooth = 0;
x = 428;
y = 700;
},
{
segmentType = curve;
smooth = 1;
x = 307;
y = 700;
}
);
},
{
points = (
{
smooth = 0;
x = 389;
y = 316;
},
{
smooth = 0;
x = 435;
y = 269;
},
{
segmentType = curve;
smooth = 1;
x = 435;
y = 190;
},
{
smooth = 0;
x = 435;
y = 115;
},
{
smooth = 0;
x = 389;
y = 70;
},
{
segmentType = curve;
smooth = 1;
x = 308;
y = 70;
},
{
segmentType = line;
smooth = 0;
x = 168;
y = 70;
},
{
segmentType = line;
smooth = 0;
x = 168;
y = 316;
},
{
segmentType = line;
smooth = 1;
x = 308;
y = 316;
}
);
},
{
points = (
{
smooth = 0;
x = 380;
y = 630;
},
{
smooth = 0;
x = 421;
y = 584;
},
{
segmentType = curve;
smooth = 1;
x = 421;
y = 510;
},
{
smooth = 0;
x = 421;
y = 432;
},
{
smooth = 0;
x = 380;
y = 386;
},
{
segmentType = curve;
smooth = 1;
x = 308;
y = 386;
},
{
segmentType = line;
smooth = 0;
x = 168;
y = 386;
},
{
segmentType = line;
smooth = 0;
x = 168;
y = 630;
},
{
segmentType = line;
smooth = 1;
x = 308;
y = 630;
}
);
}
);
lib = {
};
name = "Be-cy";
unicodes = (
);
width = 563;
};
};
};
},
{
color = 6;
glyphname = "Ge-cy";
kernLeft = H;
kernRight = "Ge-cy";
lastChange = "2022-04-28 13:53:09 +0000";
layers = (
{
anchors = (
{
name = bottomright;
pos = (428,0);
},
{
name = center;
pos = (85,352);
},
{
name = top;
pos = (325,700);
}
);
layerId = "6B2E1CAF-7E84-411F-9290-838331FE9C95";
shapes = (
{
closed = 1;
nodes = (
(194,0,l),
(273,560,l),
(497,560,l),
(517,700,l),
(133,700,l),
(34,0,l)
);
}
);
width = 474;
},
{
anchors = (
{
name = bottomright;
pos = (397,0);
},
{
name = center;
pos = (175,352);
},
{
name = top;
pos = (289,700);
}
);
layerId = "3DBDB2C8-AF6E-4CF3-B71C-7D596AD599C8";
shapes = (
{
closed = 1;
nodes = (
(138,0,l),
(225,622,l),
(474,622,l),
(485,700,l),
(153,700,l),
(55,0,l)
);
}
);
width = 432;
}
);
unicode = 1043;
userData = {
com.schriftgestaltung.Glyphs.ColorIndex = 4;
};
},
{
color = 6;
glyphname = "Gheupturn-cy";
kernLeft = H;
kernRight = "Ge-cy";
lastChange = "2022-04-28 13:53:09 +0000";
layers = (
{
layerId = "6B2E1CAF-7E84-411F-9290-838331FE9C95";
shapes = (
{
closed = 1;
nodes = (
(194,0,l),
(273,560,l),
(497,560,l),
(536,840,l),
(386,840,l),
(367,700,l),
(133,700,l),
(34,0,l)
);
}
);
width = 474;
},
{
layerId = "3DBDB2C8-AF6E-4CF3-B71C-7D596AD599C8";
shapes = (
{
closed = 1;
nodes = (
(138,0,l),
(225,622,l),
(474,622,l),
(505,840,l),
(432,840,l),
(412,700,l),
(153,700,l),
(55,0,l)
);
}
);
width = 432;
}
);
metricLeft = H;
metricRight = "Ge-cy";
unicode = 1168;
userData = {
com.schriftgestaltung.Glyphs.ColorIndex = 6;
com.schriftgestaltung.Glyphs.layer.rightMetricsKey = "==L";
com.schriftgestaltung.Glyphs.leftMetricsKey = H;
com.schriftgestaltung.Glyphs.rightMetricsKey = "Ge-cy";
};
},
{
color = 3;
glyphname = "Ghestroke-cy";
kernLeft = "Ghestroke-cy";
kernRight = "Ge-cy";
lastChange = "2022-04-28 13:53:09 +0000";
layers = (
{
background = {
shapes = (
{
closed = 1;
nodes = (
(370,296,l),
(370,410,l),
(10,410,l),
(10,296,l)
);
}
);
};
layerId = "6B2E1CAF-7E84-411F-9290-838331FE9C95";
shapes = (
{
closed = 1;
nodes = (
(346,295,l),
(362,409,l),
(22,409,l),
(6,295,l)
);
},
{
pos = (10,0);
ref = "Ge-cy";
}
);
width = 484;
},
{
layerId = "3DBDB2C8-AF6E-4CF3-B71C-7D596AD599C8";
shapes = (
{
closed = 1;
nodes = (
(315,317,l),
(325,386,l),
(34,386,l),
(24,317,l)
);
},
{
alignment = -1;
ref = "Ge-cy";
}
);
width = 432;
}
);
metricRight = "Ge-cy";
unicode = 1170;
userData = {
com.schriftgestaltung.Glyphs.ColorIndex = 3;
com.schriftgestaltung.Glyphs.rightMetricsKey = "Ge-cy";
};
},
{
color = 6;
glyphname = "Ghemiddlehook-cy";
kernLeft = "Ghemiddlehook-cy";
kernRight = "Ghemiddlehook-cy";
lastChange = "2022-04-28 13:53:09 +0000";
layers = (
{
layerId = "6B2E1CAF-7E84-411F-9290-838331FE9C95";
shapes = (
{
closed = 1;
nodes = (
(463,-149,o),
(548,3,o),
(559,185,cs),
(565,343,o),
(485,411,o),
(375,411,cs),
(360,411,o),
(343,411,o),
(326,408,c),
(269,385,ls),
(255,379,o),
(247,387,o),
(249,398,cs),
(273,560,l),
(582,560,l),
(602,700,l),
(133,700,l),
(34,0,l),
(194,0,l),
(234,258,l),
(252,265,o),
(286,276,o),
(323,276,cs),
(371,276,o),
(399,246,o),
(397,181,cs),
(397,104,o),
(356,-19,o),
(293,-19,cs),
(287,-19,o),
(273,-18,o),
(265,-15,c),
(226,-138,l),
(246,-143,o),
(278,-149,o),
(311,-149,cs)
);
}
);
width = 602;
},
{
layerId = "3DBDB2C8-AF6E-4CF3-B71C-7D596AD599C8";
shapes = (
{
closed = 1;
nodes = (
(421,-149,o),
(507,18,o),
(507,205,cs),
(504,344,o),
(422,395,o),
(335,395,cs),
(315,395,o),
(281,392,o),
(261,387,c),
(207,365,ls),
(196,360,o),
(188,363,o),
(190,374,cs),
(225,622,l),
(548,622,l),
(559,700,l),
(153,700,l),
(55,0,l),
(138,0,l),
(178,288,l),
(214,306,o),
(260,320,o),
(317,320,cs),
(383,320,o),
(423,284,o),
(424,200,cs),
(424,69,o),
(366,-78,o),
(257,-78,cs),
(249,-78,o),
(235,-77,o),
(226,-74,c),
(201,-138,l),
(214,-143,o),
(233,-149,o),
(255,-149,cs)
);
}
);
width = 569;
}
);
metricLeft = "En-cy";
metricRight = "Be-cy";
unicode = 1172;
userData = {
com.schriftgestaltung.Glyphs.ColorIndex = 3;
com.schriftgestaltung.Glyphs.leftMetricsKey = "En-cy";
com.schriftgestaltung.Glyphs.rightMetricsKey = "Be-cy";
com.typemytype.robofont.layerData = {
background = {
anchors = (
);
components = (
{
baseGlyph = "Be-cy";
transformation = (
1,
0,
0,
1,
0,
0
);
}
);
contours = (
);
lib = {
};
name = "Ghemiddlehook-cy";
unicodes = (
);
width = 568;
};
};
};
},
{
color = 3;
glyphname = "De-cy";
kernLeft = "De-cy";
kernRight = "De-cy";
lastChange = "2022-04-28 13:53:09 +0000";
layers = (
{
background = {
anchors = (
{
name = bottom;
pos = (337,0);
},
{
name = center;
pos = (369,350);
},
{
name = top;
pos = (369,700);
}
);
shapes = (
{
closed = 1;
nodes = (
(170,-140,l),
(170,0,l),
(516,0,l),
(516,-140,l),
(666,-140,l),
(666,140,l),
(596,140,l),
(596,700,l),
(159,700,l),
(156,610,ls),
(150,431,o),
(125,256,o),
(70,140,c),
(20,140,l),
(20,-140,l)
);
},
{
closed = 1;
nodes = (
(217,140,o),
(212,148,o),
(217,156,cs),
(246,203,l),
(281,297,o),
(299,427,o),
(303,560,c),
(436,560,l),
(436,140,l),
(228,140,ls)
);
}
);
};
layerId = "6B2E1CAF-7E84-411F-9290-838331FE9C95";
shapes = (
{
closed = 1;
nodes = (
(114,-140,l),
(134,0,l),
(545,0,l),
(644,700,l),
(207,704,l),
(180,525,o),
(157,398,o),
(137,317,cs),
(117,227,o),
(79,170,o),
(36,143,c),
(4,140,l),
(-36,-140,l)
);
},
{
pos = (447,0);
ref = Descender;
},
{
closed = 1;
nodes = (
(207,140,o),
(209,144,o),
(217,154,cs),
(255,205,l),
(264,235,o),
(275,268,o),
(282,295,cs),
(294,349,o),
(313,434,o),
(332,560,c),
(470,560,l),
(411,140,l),
(219,140,l)
);
}
);
width = 686;
},
{
background = {
shapes = (
{
pos = (10,0);
ref = "El-cy";
}
);
};
layerId = "3DBDB2C8-AF6E-4CF3-B71C-7D596AD599C8";
shapes = (
{
closed = 1;
nodes = (
(38,-140,l),
(58,0,l),
(489,0,l),
(590,700,l),
(214,702,l),
(182,494,o),
(155,346,o),
(132,249,cs),
(112,161,o),
(76,104,o),
(33,77,c),
(-4,76,l),
(-35,-140,l)
);
},
{
pos = (458,0);
ref = Descender;
},
{
closed = 1;
nodes = (
(136,76,o),
(137,82,o),
(144,92,cs),
(182,143,l),
(191,173,o),
(203,206,o),
(210,235,cs),
(228,310,o),
(252,437,o),
(280,620,c),
(496,622,l),
(420,76,l),
(148,76,ls)
);
}
);
width = 627;
}
);
unicode = 1044;
userData = {
com.schriftgestaltung.Glyphs.ColorIndex = 4;
com.typemytype.robofont.layerData = {
background = {
anchors = (
);
components = (
{
baseGlyph = "El-cy";
transformation = (
1,
0,
0,
1,
10,
0
);
}
);
contours = (
);
lib = {
};
name = "De-cy";
unicodes = (
);
width = 627;
};
};
};
},
{
color = 6;
glyphname = "Zhe-cy";
kernLeft = X;
kernRight = X;
lastChange = "2022-04-28 13:53:09 +0000";
layers = (
{
anchors = (
{
name = bottomright;
pos = (820,0);
},
{
name = top;
pos = (501,700);
}
);
layerId = "6B2E1CAF-7E84-411F-9290-838331FE9C95";
shapes = (
{
closed = 1;
nodes = (
(155,0,l),
(311,285,l),
(364,285,l),
(324,0,l),
(480,0,l),
(520,285,l),
(590,285,l),
(650,0,l),
(814,0,l),
(731,362,l),
(920,700,l),
(750,700,l),
(595,415,l),
(539,415,l),
(579,700,l),
(423,700,l),
(383,415,l),
(311,415,l),
(251,700,l),
(89,700,l),
(171,337,l),
(-17,0,l)
);
}
);
width = 876;
},
{
anchors = (
{
name = bottomright;
pos = (737,0);
},
{
name = top;
pos = (455,670);
}
);
layerId = "3DBDB2C8-AF6E-4CF3-B71C-7D596AD599C8";
shapes = (
{
closed = 1;
nodes = (
(84,0,l),
(289,312,l),
(363,312,l),
(319,0,l),
(401,0,l),
(445,312,l),
(521,312,l),
(638,0,l),
(726,0,l),
(592,356,l),
(819,700,l),
(732,700,l),
(529,387,l),
(455,387,l),
(499,700,l),
(417,700,l),
(373,387,l),
(297,387,l),
(182,700,l),
(94,700,l),
(227,353,l),
(-6,0,l)
);
}
);
width = 792;
}
);
metricRight = K;
unicode = 1046;
userData = {
com.schriftgestaltung.Glyphs.ColorIndex = 6;
com.schriftgestaltung.Glyphs.rightMetricsKey = K;
};
},
{
color = 6;
glyphname = "Ze-cy";
kernLeft = X;
kernRight = B;
lastChange = "2022-04-28 13:53:09 +0000";
layers = (
{
anchors = (
{
name = bottom;
pos = (261,0);
},
{
name = top;
pos = (340,700);
}
);
background = {
shapes = (
{
closed = 1;
nodes = (
(262,0,ls),
(416,0,o),
(516,55,o),
(516,201,cs),
(516,261,o),
(487,328,o),
(418,360,c),
(499,389,o),
(539,451,o),
(539,520,cs),
(539,629,o),
(455,700,o),
(334,700,cs),
(107,700,l),
(9,0,l)
);
},
{
closed = 1;
nodes = (
(194,285,l),
(302,285,ls),
(344,285,o),
(369,258,o),
(369,218,cs),
(369,161,o),
(337,130,o),
(273,130,cs),
(172,130,l)
);
},
{
closed = 1;
nodes = (
(234,570,l),
(327,570,ls),
(368,570,o),
(394,544,o),
(394,505,cs),
(394,458,o),
(361,415,o),
(298,415,cs),
(212,415,l)
);
}
);
};
layerId = "6B2E1CAF-7E84-411F-9290-838331FE9C95";
shapes = (
{
closed = 1;
nodes = (
(383,-10,o),
(499,68,o),
(499,210,cs),
(499,277,o),
(465,329,o),
(421,356,c),
(485,389,o),
(525,450,o),
(525,525,cs),
(525,640,o),
(450,712,o),
(309,712,cs),
(238,712,o),
(171,702,o),
(97,656,c),
(140,538,l),
(191,567,o),
(229,578,o),
(290,578,cs),
(348,578,o),
(376,547,o),
(376,504,cs),
(376,454,o),
(346,422,o),
(276,422,cs),
(163,422,l),
(145,292,l),
(245,292,ls),
(324,292,o),
(351,258,o),
(351,214,cs),
(351,155,o),
(304,127,o),
(238,127,cs),
(151,127,o),
(106,150,o),
(58,191,c),
(11,64,l),
(67,14,o),
(150,-10,o),
(234,-10,cs)
);
}
);
width = 539;
},
{
anchors = (
{
name = bottom;
pos = (219,0);
},
{
name = top;
pos = (303,670);
}
);
background = {
shapes = (
{
pos = (-3,0);
ref = three;
}
);
};
layerId = "3DBDB2C8-AF6E-4CF3-B71C-7D596AD599C8";
shapes = (
{
closed = 1;
nodes = (
(365,-6,o),
(459,72,o),
(459,208,cs),
(459,286,o),
(409,332,o),
(366,353,c),
(438,374,o),
(490,449,o),
(490,535,cs),
(490,631,o),
(421,706,o),
(308,706,cs),
(231,706,o),
(172,689,o),
(108,653,c),
(129,582,l),
(170,612,o),
(233,629,o),
(295,629,cs),
(368,629,o),
(410,593,o),
(410,532,cs),
(410,449,o),
(353,390,o),
(257,390,cs),
(148,390,l),
(137,314,l),
(251,314,ls),
(333,314,o),
(376,273,o),
(376,207,cs),
(376,113,o),
(313,71,o),
(206,71,cs),
(143,71,o),
(79,96,o),
(41,134,c),
(5,68,l),
(59,20,o),
(121,-6,o),
(205,-6,cs)
);
}
);
width = 518;
}
);
metricRight = B;
unicode = 1047;
userData = {
com.schriftgestaltung.Glyphs.ColorIndex = 4;
com.schriftgestaltung.Glyphs.rightMetricsKey = B;
com.typemytype.robofont.layerData = {
background = {
anchors = (
);
components = (
{
baseGlyph = three;
transformation = (
1,
0,
0,
1,
5,
0
);
}
);
contours = (
);
lib = {
};
name = "Ze-cy";
unicodes = (
);
width = 518;
};
};
};
},
{
color = 6;
glyphname = "Ii-cy";
kernLeft = H;
kernRight = H;
lastChange = "2022-04-28 13:53:09 +0000";
layers = (
{
anchors = (
{
name = bottomright;
pos = (539,0);
},
{
name = top;
pos = (386,700);
}
);
background = {
shapes = (
{
closed = 1;
nodes = (
(410,700,l),
(411,420,l),
(230,420,l),
(230,700,l),
(70,700,l),
(70,0,l),
(230,0,l),
(230,280,l),
(411,280,l),
(410,0,l),
(570,0,l),
(570,700,l)
);
}
);
};
layerId = "6B2E1CAF-7E84-411F-9290-838331FE9C95";
shapes = (
{
closed = 1;
nodes = (
(190,0,l),
(440,404,ls),
(446,413,o),
(457,407,o),
(453,397,cs),
(427,305,l),
(384,0,l),
(539,0,l),
(638,700,l),
(481,700,l),
(230,297,ls),
(224,288,o),
(214,293,o),
(217,303,cs),
(245,395,l),
(288,700,l),
(133,700,l),
(34,0,l)
);
}
);
width = 645;
},
{
anchors = (
{
name = bottomright;
pos = (508,0);
},
{
name = top;
pos = (371,670);
}
);
background = {
shapes = (
{
closed = 1;
nodes = (
(447,700,l),
(447,389,l),
(173,389,l),
(173,700,l),
(90,700,l),
(90,0,l),
(173,0,l),
(173,311,l),
(447,311,l),
(447,0,l),
(530,0,l),
(530,700,l)
);
}
);
};
layerId = "3DBDB2C8-AF6E-4CF3-B71C-7D596AD599C8";
shapes = (
{
closed = 1;
nodes = (
(141,0,l),
(499,537,ls),
(507,549,o),
(519,544,o),
(515,533,cs),
(496,466,l),
(431,0,l),
(514,0,l),
(612,700,l),
(525,700,l),
(161,164,ls),
(155,155,o),
(148,156,o),
(150,165,cs),
(171,234,l),
(236,700,l),
(153,700,l),
(55,0,l)
);
}
);
width = 639;
}
);
metricLeft = H;
metricRight = H;
unicode = 1048;
userData = {
com.schriftgestaltung.Glyphs.ColorIndex = 6;
com.schriftgestaltung.Glyphs.leftMetricsKey = H;
com.schriftgestaltung.Glyphs.rightMetricsKey = H;
com.typemytype.robofont.layerData = {
background = {
anchors = (
);
components = (
);
contours = (
{
points = (
{
segmentType = line;
smooth = 0;
x = 447;
y = 700;
},
{
segmentType = line;
smooth = 0;
x = 447;
y = 389;
},
{
segmentType = line;
smooth = 0;
x = 173;
y = 389;
},
{
segmentType = line;
smooth = 0;
x = 173;
y = 700;
},
{
segmentType = line;
smooth = 0;
x = 90;
y = 700;
},
{
segmentType = line;
smooth = 0;
x = 90;
y = 0;
},
{
segmentType = line;
smooth = 0;
x = 173;
y = 0;
},
{
segmentType = line;
smooth = 0;
x = 173;
y = 311;
},
{
segmentType = line;
smooth = 0;
x = 447;
y = 311;
},
{
segmentType = line;
smooth = 0;
x = 447;
y = 0;
},
{
segmentType = line;
smooth = 0;
x = 530;
y = 0;
},
{
segmentType = line;
smooth = 0;
x = 530;
y = 700;
}
);
}
);
lib = {
};
name = "Ii-cy";
unicodes = (
);
width = 639;
};
};
};
},
{
color = 3;
glyphname = "Iishorttail-cy";
kernLeft = H;
kernRight = "Iishorttail-cy";
lastChange = "2022-04-28 13:53:09 +0000";
layers = (
{
layerId = "6B2E1CAF-7E84-411F-9290-838331FE9C95";
shapes = (
{
closed = 1;
nodes = (
(477,-140,l),
(622,110,l),
(625,140,l),
(487,140,l),
(325,-140,l)
);
},
{
ref = "Iishort-cy";
}
);
width = 660;
},
{
layerId = "3DBDB2C8-AF6E-4CF3-B71C-7D596AD599C8";
shapes = (
{
closed = 1;
nodes = (
(454,-140,l),
(578,57,l),
(580,76,l),
(510,76,l),
(373,-140,l)
);
},
{
ref = "Iishort-cy";
}
);
width = 634;
}
);
metricLeft = "En-cy";
unicode = 1162;
userData = {
com.schriftgestaltung.Glyphs.ColorIndex = 4;
com.schriftgestaltung.Glyphs.leftMetricsKey = "En-cy";
};
},
{
color = 6;
glyphname = "El-cy";
kernLeft = "El-cy";
kernRight = H;
lastChange = "2022-04-28 13:53:09 +0000";
layers = (
{
background = {
shapes = (
{
closed = 1;
nodes = (
(208,9,o),
(246,101,o),
(260,560,c),
(410,560,l),
(410,0,l),
(570,0,l),
(570,700,l),
(116,700,l),
(111,561,ls),
(98,202,o),
(89,128,o),
(-15,112,c),
(65,-15,l)
);
},
{
pos = (-29,210);
ref = j;
}
);
};
layerId = "6B2E1CAF-7E84-411F-9290-838331FE9C95";
shapes = (
{
closed = 1;
nodes = (
(132,8,o),
(212,73,o),
(244,175,cs),
(275,273,o),
(291,405,o),
(313,560,c),
(453,560,l),
(374,0,l),
(534,0,l),
(633,700,l),
(186,700,l),
(158,496,o),
(130,345,o),
(104,236,cs),
(88,170,o),
(48,131,o),
(-9,121,c),
(16,-13,l)
);
}
);
width = 640;
},
{
background = {
shapes = (
{
closed = 1;
nodes = (
(100,7,o),
(159,75,o),
(171,184,cs),
(183,292,o),
(187,441,o),
(191,622,c),
(397,622,l),
(397,0,l),
(480,0,l),
(480,700,l),
(112,700,l),
(110,482,o),
(105,324,o),
(92,205,cs),
(83,120,o),
(46,73,o),
(-20,57,c),
(11,-16,l)
);
}
);
};
layerId = "3DBDB2C8-AF6E-4CF3-B71C-7D596AD599C8";
shapes = (
{
closed = 1;
nodes = (
(103,7,o),
(168,73,o),
(195,179,cs),
(223,290,o),
(247,440,o),
(273,622,c),
(479,622,l),
(392,0,l),
(475,0,l),
(573,700,l),
(206,700,l),
(176,484,o),
(148,326,o),
(119,210,cs),
(97,122,o),
(52,73,o),
(-17,57,c),
(14,-16,l)
);
}
);
width = 600;
}
);
metricLeft = J;
metricRight = H;
unicode = 1051;
userData = {
com.schriftgestaltung.Glyphs.ColorIndex = 4;
com.schriftgestaltung.Glyphs.leftMetricsKey = J;
com.schriftgestaltung.Glyphs.rightMetricsKey = H;
com.typemytype.robofont.layerData = {
background = {
anchors = (
);
components = (
);
contours = (
{
points = (
{
segmentType = move;
smooth = 0;
x = 513;
y = 76;
},
{
segmentType = line;
smooth = 0;
x = 513;
y = 700;
},
{
segmentType = line;
smooth = 0;
x = 144;
y = 700;
},
{
segmentType = line;
smooth = 1;
x = 144;
y = 622;
},
{
smooth = 0;
x = 144;
y = 430;
},
{
smooth = 0;
x = 125;
y = 220;
},
{
segmentType = curve;
smooth = 0;
x = 46;
y = 76;
}
);
},
{
points = (
{
segmentType = move;
smooth = 0;
x = 153;
y = 129;
},
{
smooth = 0;
x = 202;
y = 258;
},
{
smooth = 0;
x = 223;
y = 439;
},
{
segmentType = curve;
smooth = 0;
x = 223;
y = 622;
},
{
segmentType = line;
smooth = 0;
x = 430;
y = 622;
},
{
segmentType = line;
smooth = 0;
x = 430;
y = 76;
}
);
}
);
lib = {
};
name = "El-cy";
unicodes = (
);
width = 600;
};
};
};
},
{
color = 6;
glyphname = "Pe-cy";
kernLeft = H;
kernRight = H;
lastChange = "2022-04-28 13:53:09 +0000";
layers = (
{
anchors = (
{
name = bottomright;
pos = (529,0);
}
);
background = {
shapes = (
{
ref = H;
}
);
};
layerId = "6B2E1CAF-7E84-411F-9290-838331FE9C95";
shapes = (
{
closed = 1;
nodes = (
(194,0,l),
(273,560,l),
(448,560,l),
(369,0,l),
(529,0,l),
(628,700,l),
(133,700,l),
(34,0,l)
);
}
);
width = 635;
},
{
anchors = (
{
name = bottomright;
pos = (495,0);
}
);
background = {
shapes = (
{
ref = H;
}
);
};
layerId = "3DBDB2C8-AF6E-4CF3-B71C-7D596AD599C8";
shapes = (
{
closed = 1;
nodes = (
(138,0,l),
(226,624,l),
(500,624,l),
(412,0,l),
(495,0,l),
(593,700,l),
(153,700,l),
(55,0,l)
);
}
);
width = 620;
}
);
metricLeft = H;
metricRight = H;
unicode = 1055;
userData = {
com.schriftgestaltung.Glyphs.ColorIndex = 6;
com.schriftgestaltung.Glyphs.leftMetricsKey = H;
com.schriftgestaltung.Glyphs.rightMetricsKey = H;
com.typemytype.robofont.layerData = {
background = {
anchors = (
);
components = (
{
baseGlyph = H;
transformation = (
1,
0,
0,
1,
0,
0
);
}
);
contours = (
);
lib = {
};
name = "Pe-cy";
unicodes = (
);
width = 620;
};
};
};
},
{
color = 6;
glyphname = "U-cy";
kernLeft = "U-cy";
kernRight = "U-cy";
lastChange = "2022-04-28 13:53:09 +0000";
layers = (
{
anchors = (
{
name = top;
pos = (349,700);
}
);
background = {
shapes = (
{
closed = 1;
nodes = (
(175,-12,o),
(232,44,o),
(274,171,cs),
(450,700,l),
(288,700,l),
(208,399,l),
(198,298,ls),
(197,291,o),
(181,291,o),
(180,298,cs),
(170,399,l),
(64,700,l),
(-100,700,l),
(112,165,l),
(102,142,o),
(87,126,o),
(59,126,cs),
(35,126,o),
(17,134,o),
(-1,146,c),
(-47,20,l),
(-18,3,o),
(26,-12,o),
(61,-12,cs)
);
},
{
pos = (-32,0);
ref = "El-cy";
}
);
};
layerId = "6B2E1CAF-7E84-411F-9290-838331FE9C95";
shapes = (
{
closed = 1;
nodes = (
(162,-12,o),
(224,36,o),
(334,217,cs),
(628,700,l),
(461,700,l),
(249,321,ls),
(240,305,o),
(227,306,o),
(231,328,cs),
(248,416,l),
(230,700,l),
(77,700,l),
(137,173,l),
(114,139,o),
(93,126,o),
(59,126,cs),
(37,126,o),
(16,134,o),
(-1,146,c),
(-47,20,l),
(-22,6,o),
(18,-12,o),
(66,-12,cs)
);
}
);
width = 540;
},
{
anchors = (
{
name = top;
pos = (325,670);
}
);
background = {
shapes = (
{
closed = 1;
nodes = (
(107,-12,o),
(156,24,o),
(194,136,cs),
(383,700,l),
(298,700,l),
(174,291,l),
(161,220,ls),
(160,213,o),
(148,213,o),
(147,220,cs),
(134,291,l),
(-14,700,l),
(-99,700,l),
(112,136,l),
(97,92,o),
(73,62,o),
(26,62,cs),
(4,62,o),
(-17,71,o),
(-30,79,c),
(-58,12,l),
(-35,-4,o),
(-5,-12,o),
(25,-12,cs)
);
}
);
};
layerId = "3DBDB2C8-AF6E-4CF3-B71C-7D596AD599C8";
shapes = (
{
closed = 1;
nodes = (
(101,-12,o),
(172,28,o),
(269,190,cs),
(575,700,l),
(487,700,l),
(212,228,ls),
(206,218,o),
(194,220,o),
(196,234,cs),
(204,298,l),
(174,700,l),
(93,700,l),
(144,140,l),
(115,96,o),
(79,62,o),
(28,62,cs),
(5,62,o),
(-11,67,o),
(-30,79,c),
(-58,12,l),
(-39,-2,o),
(-11,-12,o),
(25,-12,cs)
);
}
);
width = 507;
}
);
unicode = 1059;
userData = {
com.schriftgestaltung.Glyphs.ColorIndex = 4;
};
},
{
color = 6;
glyphname = "Ef-cy";
kernLeft = Phi;
kernRight = Phi;
lastChange = "2022-04-28 13:53:09 +0000";
layers = (
{
layerId = "6B2E1CAF-7E84-411F-9290-838331FE9C95";
shapes = (
{
closed = 1;
nodes = (
(457,-10,l),
(467,70,ls),
(468,80,o),
(473,84,o),
(483,82,cs),
(553,71,l),
(688,93,o),
(760,166,o),
(788,258,cs),
(802,314,o),
(811,380,o),
(811,434,cs),
(811,537,o),
(754,615,o),
(625,637,c),
(561,629,ls),
(552,628,o),
(547,632,o),
(548,642,cs),
(558,710,l),
(398,710,l),
(389,641,ls),
(388,633,o),
(381,628,o),
(372,629,cs),
(303,639,l),
(168,617,o),
(95,544,o),
(68,452,cs),
(53,392,o),
(45,340,o),
(45,276,cs),
(45,173,o),
(102,95,o),
(231,73,c),
(294,80,ls),
(305,82,o),
(309,77,o),
(308,66,cs),
(297,-10,l)
);
},
{
closed = 1;
nodes = (
(241,184,o),
(209,209,o),
(200,266,cs),
(195,323,o),
(205,381,o),
(226,426,cs),
(253,499,o),
(304,526,o),
(376,526,c),
(320,184,l)
);
},
{
closed = 1;
nodes = (
(536,526,l),
(606,526,o),
(649,502,o),
(656,444,cs),
(660,387,o),
(651,329,o),
(630,284,cs),
(606,215,o),
(550,184,o),
(480,184,c)
);
}
);
width = 827;
},
{
layerId = "3DBDB2C8-AF6E-4CF3-B71C-7D596AD599C8";
shapes = (
{
closed = 1;
nodes = (
(361,-10,l),
(372,64,ls),
(373,74,o),
(383,82,o),
(392,81,cs),
(457,75,l),
(567,102,o),
(633,177,o),
(659,257,cs),
(672,304,o),
(685,390,o),
(682,433,cs),
(680,519,o),
(633,596,o),
(529,623,c),
(464,619,ls),
(454,618,o),
(450,622,o),
(452,632,cs),
(463,710,l),
(380,710,l),
(369,636,ls),
(368,626,o),
(359,618,o),
(349,619,cs),
(285,625,l),
(174,598,o),
(107,523,o),
(82,443,cs),
(69,396,o),
(57,316,o),
(59,267,cs),
(61,181,o),
(109,104,o),
(212,77,c),
(277,81,ls),
(288,82,o),
(291,78,o),
(289,68,cs),
(278,-10,l)
);
},
{
closed = 1;
nodes = (
(177,137,o),
(141,196,o),
(139,260,cs),
(138,323,o),
(146,369,o),
(163,428,cs),
(180,498,o),
(241,561,o),
(361,561,c),
(297,137,l)
);
},
{
closed = 1;
nodes = (
(444,561,l),
(564,561,o),
(606,502,o),
(603,428,cs),
(600,373,o),
(595,327,o),
(577,270,cs),
(558,200,o),
(500,137,o),
(380,137,c)
);
}
);
width = 713;
}
);
metricLeft = "=O-10";
metricRight = "=O-10";
unicode = 1060;
userData = {
com.schriftgestaltung.Glyphs.ColorIndex = 4;
com.schriftgestaltung.Glyphs.leftMetricsKey = "=O-5";
com.schriftgestaltung.Glyphs.rightMetricsKey = "=O-5";
};
},
{
color = 6;
glyphname = "Che-cy";
kernLeft = "Che-cy";
kernRight = H;
lastChange = "2022-04-28 13:53:09 +0000";
layers = (
{
anchors = (
{
name = bottomright;
pos = (500,0);
},
{
name = top;
pos = (343,700);
}
);
background = {
shapes = (
{
closed = 1;
nodes = (
(536,0,l),
(536,700,l),
(376,700,l),
(376,446,ls),
(376,404,o),
(342,374,o),
(293,374,cs),
(244,374,o),
(210,404,o),
(210,446,cs),
(210,700,l),
(50,700,l),
(50,434,ls),
(50,303,o),
(144,239,o),
(246,239,cs),
(264,239,o),
(281,240,o),
(298,243,c),
(358,280,ls),
(371,288,o),
(376,283,o),
(376,272,cs),
(376,0,l)
);
},
{
pos = (-6,0);
ref = U;
}
);
};
layerId = "6B2E1CAF-7E84-411F-9290-838331FE9C95";
shapes = (
{
closed = 1;
nodes = (
(504,0,l),
(603,700,l),
(443,700,l),
(397,402,l),
(379,395,o),
(345,384,o),
(308,384,cs),
(264,384,o),
(239,403,o),
(239,450,cs),
(239,456,o),
(239,463,o),
(240,470,cs),
(273,700,l),
(113,700,l),
(80,468,ls),
(78,452,o),
(77,437,o),
(77,423,cs),
(77,309,o),
(157,249,o),
(256,249,cs),
(271,249,o),
(288,249,o),
(305,252,c),
(367,277,ls),
(381,283,o),
(384,284,o),
(383,273,cs),
(344,0,l)
);
}
);
width = 610;
},
{
anchors = (
{
name = bottomright;
pos = (454,0);
},
{
name = top;
pos = (334,670);
}
);
background = {
shapes = (
{
pos = (613,0);
ref = P;
scale = (-1,1);
}
);
};
layerId = "3DBDB2C8-AF6E-4CF3-B71C-7D596AD599C8";
shapes = (
{
closed = 1;
nodes = (
(454,0,l),
(552,700,l),
(468,700,l),
(421,380,l),
(390,364,o),
(335,350,o),
(275,350,cs),
(210,350,o),
(171,376,o),
(171,441,cs),
(171,449,o),
(172,458,o),
(173,467,cs),
(206,700,l),
(123,700,l),
(90,462,ls),
(88,450,o),
(88,439,o),
(88,428,cs),
(88,319,o),
(175,275,o),
(264,275,cs),
(285,275,o),
(322,277,o),
(341,282,c),
(395,305,ls),
(406,310,o),
(413,309,o),
(412,296,cs),
(370,0,l)
);
}
);
width = 579;
}
);
metricRight = H;
unicode = 1063;
userData = {
com.schriftgestaltung.Glyphs.ColorIndex = 4;
com.schriftgestaltung.Glyphs.rightMetricsKey = H;
com.typemytype.robofont.layerData = {
background = {
anchors = (
);
components = (
{
baseGlyph = P;
transformation = (
-1,
0,
0,
1,
613,
0
);
}
);
contours = (
);
lib = {
};
name = "Che-cy";
unicodes = (
);
width = 579;
};
};
};
},
{
color = 3;
glyphname = "Tse-cy";
kernLeft = H;
kernRight = "De-cy";
lastChange = "2022-04-28 13:53:09 +0000";
layers = (
{
layerId = "6B2E1CAF-7E84-411F-9290-838331FE9C95";
shapes = (
{
closed = 1;
nodes = (
(529,0,l),
(628,700,l),
(468,700,l),
(389,140,l),
(214,140,l),
(293,700,l),
(133,700,l),
(34,0,l)
);
},
{
pos = (431,0);
ref = Descender;
}
);
width = 670;
},
{
layerId = "3DBDB2C8-AF6E-4CF3-B71C-7D596AD599C8";
shapes = (
{
closed = 1;
nodes = (
(493,0,l),
(594,700,l),
(511,700,l),
(424,76,l),
(149,76,l),
(236,700,l),
(153,700,l),
(55,0,l)
);
},
{
pos = (461,0);
ref = Descender;
}
);
width = 630;
}
);
metricLeft = H;
metricRight = "De-cy";
unicode = 1062;
userData = {
com.schriftgestaltung.Glyphs.ColorIndex = 6;
com.schriftgestaltung.Glyphs.leftMetricsKey = H;
com.schriftgestaltung.Glyphs.rightMetricsKey = "De-cy";
};
},
{
color = 6;
glyphname = "Sha-cy";
kernLeft = H;
kernRight = H;
lastChange = "2022-04-28 13:53:09 +0000";
layers = (
{
layerId = "6B2E1CAF-7E84-411F-9290-838331FE9C95";
metricLeft = "=H";
metricRight = "=H";
shapes = (
{
closed = 1;
nodes = (
(834,0,l),
(933,700,l),
(773,700,l),
(694,140,l),
(534,140,l),
(613,700,l),
(453,700,l),
(374,140,l),
(214,140,l),
(293,700,l),
(133,700,l),
(34,0,l)
);
}
);
width = 940;
},
{
layerId = "3DBDB2C8-AF6E-4CF3-B71C-7D596AD599C8";
metricLeft = "=H";
metricRight = "=H";
shapes = (
{
closed = 1;
nodes = (
(672,0,l),
(770,700,l),
(687,700,l),
(600,76,l),
(416,76,l),
(503,700,l),
(420,700,l),
(333,76,l),
(149,76,l),
(236,700,l),
(153,700,l),
(55,0,l)
);
}
);
width = 797;
}
);
metricLeft = H;
metricRight = H;
unicode = 1064;
userData = {
com.schriftgestaltung.Glyphs.ColorIndex = 6;
com.schriftgestaltung.Glyphs.layer.leftMetricsKey = "==H";
com.schriftgestaltung.Glyphs.layer.rightMetricsKey = "==H";
com.schriftgestaltung.Glyphs.leftMetricsKey = H;
com.schriftgestaltung.Glyphs.rightMetricsKey = H;
};
},
{
color = 3;
glyphname = "Shcha-cy";
kernLeft = H;
kernRight = "De-cy";
lastChange = "2022-04-28 13:53:09 +0000";
layers = (
{
layerId = "6B2E1CAF-7E84-411F-9290-838331FE9C95";
shapes = (
{
closed = 1;
nodes = (
(834,0,l),
(933,700,l),
(773,700,l),
(694,140,l),
(534,140,l),
(613,700,l),
(453,700,l),
(374,140,l),
(214,140,l),
(293,700,l),
(133,700,l),
(34,0,l)
);
},
{
pos = (736,0);
ref = Descender;
}
);
width = 975;
},
{
layerId = "3DBDB2C8-AF6E-4CF3-B71C-7D596AD599C8";
shapes = (
{
closed = 1;
nodes = (
(670,0,l),
(771,700,l),
(688,700,l),
(601,76,l),
(416,76,l),
(503,700,l),
(420,700,l),
(333,76,l),
(149,76,l),
(236,700,l),
(153,700,l),
(55,0,l)
);
},
{
pos = (638,0);
ref = Descender;
}
);
width = 807;
}
);
metricLeft = H;
metricRight = "De-cy";
unicode = 1065;
userData = {
com.schriftgestaltung.Glyphs.ColorIndex = 6;
com.schriftgestaltung.Glyphs.leftMetricsKey = H;
com.schriftgestaltung.Glyphs.rightMetricsKey = "De-cy";
};
},
{
color = 6;
glyphname = "Dzhe-cy";
kernLeft = H;
kernRight = H;
lastChange = "2022-04-28 13:53:09 +0000";
layers = (
{
layerId = "6B2E1CAF-7E84-411F-9290-838331FE9C95";
shapes = (
{
closed = 1;
nodes = (
(336,-140,l),
(356,0,l),
(529,0,l),
(628,700,l),
(468,700,l),
(389,140,l),
(214,140,l),
(293,700,l),
(133,700,l),
(34,0,l),
(206,0,l),
(186,-140,l)
);
}
);
width = 635;
},
{
layerId = "3DBDB2C8-AF6E-4CF3-B71C-7D596AD599C8";
shapes = (
{
closed = 1;
nodes = (
(288,-140,l),
(308,0,l),
(495,0,l),
(593,700,l),
(510,700,l),
(423,76,l),
(149,76,l),
(236,700,l),
(153,700,l),
(55,0,l),
(235,0,l),
(215,-140,l)
);
}
);
width = 620;
}
);
metricLeft = H;
metricRight = H;
unicode = 1039;
userData = {
com.schriftgestaltung.Glyphs.ColorIndex = 6;
com.schriftgestaltung.Glyphs.leftMetricsKey = H;
com.schriftgestaltung.Glyphs.rightMetricsKey = H;
};
},
{
color = 6;
glyphname = "Softsign-cy";
kernLeft = H;
kernRight = "Softsign-cy";
lastChange = "2022-04-28 13:53:09 +0000";
layers = (
{
layerId = "6B2E1CAF-7E84-411F-9290-838331FE9C95";
shapes = (
{
closed = 1;
nodes = (
(329,0,ls),
(480,0,o),
(564,83,o),
(564,233,cs),
(564,363,o),
(480,435,o),
(329,435,cs),
(255,435,l),
(293,700,l),
(133,700,l),
(34,0,l)
);
},
{
closed = 1;
nodes = (
(237,305,l),
(329,305,ls),
(387,305,o),
(419,274,o),
(419,222,cs),
(419,163,o),
(387,130,o),
(329,130,cs),
(212,130,l)
);
}
);
width = 601;
},
{
layerId = "3DBDB2C8-AF6E-4CF3-B71C-7D596AD599C8";
shapes = (
{
closed = 1;
nodes = (
(288,0,ls),
(416,0,o),
(508,72,o),
(508,213,cs),
(508,333,o),
(442,406,o),
(291,406,cs),
(195,406,l),
(236,700,l),
(153,700,l),
(55,0,l)
);
},
{
closed = 1;
nodes = (
(185,336,l),
(291,336,ls),
(387,336,o),
(431,293,o),
(431,208,cs),
(431,131,o),
(376,70,o),
(291,70,cs),
(148,70,l)
);
}
);
width = 546;
}
);
metricLeft = H;
unicode = 1068;
userData = {
com.schriftgestaltung.Glyphs.ColorIndex = 4;
com.schriftgestaltung.Glyphs.leftMetricsKey = H;
};
},
{
color = 6;
glyphname = "Hardsign-cy";
kernLeft = T;
kernRight = "Softsign-cy";
lastChange = "2022-04-28 13:53:09 +0000";
layers = (
{
layerId = "6B2E1CAF-7E84-411F-9290-838331FE9C95";
shapes = (
{
closed = 1;
nodes = (
(409,0,ls),
(560,0,o),
(644,83,o),
(644,233,cs),
(644,363,o),
(560,435,o),
(409,435,cs),
(335,435,l),
(373,700,l),
(93,700,l),
(76,580,l),
(196,580,l),
(114,0,l)
);
},
{
closed = 1;
nodes = (
(317,305,l),
(409,305,ls),
(467,305,o),
(499,274,o),
(499,222,cs),
(499,163,o),
(467,130,o),
(409,130,cs),
(292,130,l)
);
}
);
width = 681;
},
{
layerId = "3DBDB2C8-AF6E-4CF3-B71C-7D596AD599C8";
shapes = (
{
closed = 1;
nodes = (
(348,0,ls),
(476,0,o),
(568,72,o),
(568,213,cs),
(568,333,o),
(502,406,o),
(351,406,cs),
(255,406,l),
(296,700,l),
(93,700,l),
(83,630,l),
(203,630,l),
(115,0,l)
);
},
{
closed = 1;
nodes = (
(245,336,l),
(351,336,ls),
(447,336,o),
(491,293,o),
(491,208,cs),
(491,131,o),
(436,70,o),
(351,70,cs),
(208,70,l)
);
}
);
width = 606;
}
);
metricRight = "Softsign-cy";
unicode = 1066;
userData = {
com.schriftgestaltung.Glyphs.ColorIndex = 6;
com.schriftgestaltung.Glyphs.rightMetricsKey = "Softsign-cy";
};
},
{
color = 3;
glyphname = "Lje-cy";
kernLeft = "El-cy";
kernRight = "Softsign-cy";
lastChange = "2022-04-28 13:53:09 +0000";
layers = (
{
layerId = "6B2E1CAF-7E84-411F-9290-838331FE9C95";
shapes = (
{
closed = 1;
nodes = (
(132,8,o),
(212,73,o),
(244,175,cs),
(275,273,o),
(291,405,o),
(313,560,c),
(453,560,l),
(523,700,l),
(186,700,l),
(158,496,o),
(130,345,o),
(104,236,cs),
(88,170,o),
(48,131,o),
(-9,121,c),
(16,-13,l)
);
},
{
pos = (325,0);
ref = "Softsign-cy";
}
);
width = 926;
},
{
background = {
shapes = (
{
closed = 1;
nodes = (
(100,7,o),
(165,73,o),
(192,179,cs),
(220,290,o),
(244,439,o),
(273,621,c),
(502,621,l),
(551,700,l),
(206,700,l),
(173,482,o),
(145,326,o),
(116,210,cs),
(94,122,o),
(49,73,o),
(-20,57,c),
(11,-16,l)
);
}
);
};
layerId = "3DBDB2C8-AF6E-4CF3-B71C-7D596AD599C8";
shapes = (
{
closed = 1;
nodes = (
(103,7,o),
(168,73,o),
(195,179,cs),
(223,290,o),
(247,439,o),
(273,621,c),
(502,621,l),
(551,700,l),
(206,700,l),
(176,482,o),
(148,326,o),
(119,210,cs),
(97,122,o),
(52,73,o),
(-17,57,c),
(14,-16,l)
);
},
{
pos = (340,0);
ref = "Softsign-cy";
}
);
width = 886;
}
);
metricLeft = "El-cy";
metricRight = "Softsign-cy";
unicode = 1033;
userData = {
com.schriftgestaltung.Glyphs.ColorIndex = 6;
com.schriftgestaltung.Glyphs.leftMetricsKey = "El-cy";
com.schriftgestaltung.Glyphs.rightMetricsKey = "Softsign-cy";
};
},
{
color = 3;
glyphname = "Nje-cy";
kernLeft = H;
kernRight = "Softsign-cy";
lastChange = "2022-04-28 13:53:09 +0000";
layers = (
{
guides = (
{
pos = (627,439);
}
);
layerId = "6B2E1CAF-7E84-411F-9290-838331FE9C95";
shapes = (
{
closed = 1;
nodes = (
(194,0,l),
(236,300,l),
(516,300,l),
(536,440,l),
(256,440,l),
(293,700,l),
(133,700,l),
(34,0,l)
);
},
{
pos = (340,0);
ref = "Softsign-cy";
}
);
width = 941;
},
{
layerId = "3DBDB2C8-AF6E-4CF3-B71C-7D596AD599C8";
shapes = (
{
closed = 1;
nodes = (
(138,0,l),
(184,327,l),
(488,327,l),
(499,405,l),
(195,405,l),
(236,700,l),
(153,700,l),
(55,0,l)
);
},
{
pos = (357,0);
ref = "Softsign-cy";
}
);
width = 903;
}
);
metricLeft = H;
metricRight = "Softsign-cy";
unicode = 1034;
userData = {
com.schriftgestaltung.Glyphs.ColorIndex = 6;
com.schriftgestaltung.Glyphs.leftMetricsKey = H;
com.schriftgestaltung.Glyphs.rightMetricsKey = "Softsign-cy";
};
},
{
color = 6;
glyphname = "E-cy";
kernLeft = O;
kernRight = C;
lastChange = "2022-04-28 13:53:09 +0000";
layers = (
{
anchors = (
{
name = bottom;
pos = (216,0);
},
{
name = top;
pos = (315,700);
}
);
layerId = "6B2E1CAF-7E84-411F-9290-838331FE9C95";
shapes = (
{
closed = 1;
nodes = (
(362,-12,o),
(407,6,o),
(454,40,c),
(407,165,l),
(375,143,o),
(346,129,o),
(294,129,cs),
(238,129,o),
(206,164,o),
(206,223,cs),
(206,277,o),
(234,452,o),
(246,491,cs),
(264,546,o),
(310,572,o),
(360,572,cs),
(413,572,o),
(446,562,o),
(482,537,c),
(525,656,l),
(486,690,o),
(431,712,o),
(361,712,cs),
(215,712,o),
(129,634,o),
(96,524,cs),
(67,427,o),
(49,319,o),
(49,215,cs),
(49,108,o),
(130,-12,o),
(286,-12,cs)
);
},
{
closed = 1;
nodes = (
(410,285,l),
(428,415,l),
(140,415,l),
(122,285,l)
);
}
);
width = 504;
},
{
anchors = (
{
name = bottom;
pos = (302,0);
},
{
name = top;
pos = (302,670);
}
);
layerId = "3DBDB2C8-AF6E-4CF3-B71C-7D596AD599C8";
shapes = (
{
closed = 1;
nodes = (
(346,-12,o),
(400,7,o),
(439,39,c),
(419,117,l),
(387,89,o),
(337,64,o),
(286,64,cs),
(195,64,o),
(143,119,o),
(143,215,cs),
(143,304,o),
(162,429,o),
(190,513,cs),
(219,606,o),
(280,636,o),
(348,636,cs),
(411,636,o),
(456,612,o),
(483,575,c),
(517,644,l),
(481,685,o),
(428,712,o),
(356,712,cs),
(222,712,o),
(147,639,o),
(116,534,cs),
(84,439,o),
(64,308,o),
(64,214,cs),
(64,97,o),
(134,-12,o),
(278,-12,cs)
);
},
{
closed = 1;
nodes = (
(405,311,l),
(416,389,l),
(138,389,l),
(127,311,l)
);
}
);
width = 503;
}
);
metricLeft = C;
metricRight = C;
unicode = 1028;
userData = {
com.schriftgestaltung.Glyphs.ColorIndex = 6;
com.schriftgestaltung.Glyphs.leftMetricsKey = C;
com.schriftgestaltung.Glyphs.rightMetricsKey = C;
};
},
